SplineFontDB: 3.2
FontName: Sampradaya
FullName: Sampradaya
FamilyName: Sampradaya
Weight: Regular
Copyright: Copyright 2014-2021 Ambarish Sridharanarayanan.
Version: 0.9
ItalicAngle: 0
UnderlinePosition: -126
UnderlineWidth: 50
Ascent: 819
Descent: 205
InvalidEm: 0
sfntRevision: 0x0000e666
LayerCount: 2
Layer: 0 1 "Back" 1
Layer: 1 1 "Fore" 0
XUID: [1021 268 364675272 1489025]
StyleMap: 0x0040
FSType: 0
OS2Version: 3
OS2_WeightWidthSlopeOnly: 0
OS2_UseTypoMetrics: 1
CreationTime: 1358746353
ModificationTime: 1636952624
PfmFamily: 81
TTFWeight: 400
TTFWidth: 5
LineGap: 0
VLineGap: 0
Panose: 0 0 0 0 0 0 0 0 0 0
OS2TypoAscent: 704
OS2TypoAOffset: 0
OS2TypoDescent: -448
OS2TypoDOffset: 0
OS2TypoLinegap: 0
OS2WinAscent: 1200
OS2WinAOffset: 0
OS2WinDescent: 800
OS2WinDOffset: 0
HheadAscent: 704
HheadAOffset: 0
HheadDescent: -448
HheadDOffset: 0
OS2SubXSize: 102
OS2SubYSize: 102
OS2SubXOff: 0
OS2SubYOff: 143
OS2SupXSize: 102
OS2SupYSize: 102
OS2SupXOff: 0
OS2SupYOff: 143
OS2StrikeYSize: 51
OS2StrikeYPos: 256
OS2Vendor: '    '
Lookup: 4 0 0 "'akhn' Akhanda" { "'akhn' Akhanda subtable"  } ['akhn' ('DFLT' <'dflt' > 'deva' <'dflt' > 'gran' <'dflt' > 'taml' <'dflt' > ) ]
Lookup: 4 0 0 "'blwf' Below Base Forms (second stacked layer)" { "'blwf' Below Base Forms (second stacked layer) subtable"  } ['blwf' ('DFLT' <'dflt' > 'deva' <'dflt' > 'gran' <'dflt' > 'taml' <'dflt' > ) ]
Lookup: 4 0 0 "Ligature Substitution post repha rakara ya" { "Ligature Substitution post repha rakara ya subtable"  } []
Lookup: 6 0 0 "'rphf' Repha Form" { "'rphf' Repha Form (do nothing)"  "'rphf' Repha Form (post repha form)"  } ['rphf' ('DFLT' <'dflt' > 'deva' <'dflt' > 'gran' <'dflt' > 'taml' <'dflt' > ) ]
Lookup: 6 0 0 "'rkrf' Rakara Forms" { "'rkrf' Rakara Forms (do nothing)"  "'rkrf' Rakara Forms (post rakara form)"  } ['rkrf' ('DFLT' <'dflt' > 'deva' <'dflt' > 'gran' <'dflt' > 'taml' <'dflt' > ) ]

StartChar: .notdef
Encoding: 1114112 -1 0
Width: 373
Flags: MW
LayerCount: 2
Fore
SplineSet
34 0 m 1,0,-1
 34 682 l 1,1,-1
 306 682 l 1,2,-1
 306 0 l 1,3,-1
 34 0 l 1,0,-1
68 34 m 1,4,-1
 272 34 l 1,5,-1
 272 648 l 1,6,-1
 68 648 l 1,7,-1
 68 34 l 1,4,-1
EndSplineSet
Validated: 1
EndChar

StartChar: u0951
Encoding: 2385 2385 3
Width: 0
Flags: MW
LayerCount: 2
Fore
SplineSet
-227 667 m 2,0,1
 -227 704 -227 704 -210 704 c 128,-1,2
 -193 704 -193 704 -188 695 c 128,-1,3
 -183 686 -183 686 -183 667 c 2,4,-1
 -183 468 l 2,5,6
 -183 460 -183 460 -189 454.5 c 128,-1,7
 -195 449 -195 449 -203.5 449 c 128,-1,8
 -212 449 -212 449 -219.5 454 c 128,-1,9
 -227 459 -227 459 -227 466 c 2,10,-1
 -227 667 l 2,0,1
EndSplineSet
Position2: "Single Position lookup for accent markers 3-1" dx=0 dy=150 dh=0 dv=0
Position2: "Single Position lookup for accent markers 4-1" dx=0 dy=425 dh=0 dv=0
Position2: "Single Position lookup for accent markers 1-1" dx=0 dy=300 dh=0 dv=0
Substitution2: "Accent marker rearrangement single substitution 1-1" uE487
Substitution2: "Accent marker rearrangement single substitution 4-1" uE48A
Substitution2: "Accent marker rearrangement single substitution 7-1" uE48D
Substitution2: "Accent marker rearrangement single substitution 10-1" uE490
Substitution2: "Accent marker rearrangement single substitution 13-1" uE493
Substitution2: "Accent marker rearrangement single substitution 16-1" uE496
Substitution2: "Accent marker rearrangement single substitution 19-1" uE499
Substitution2: "Accent marker rearrangement single substitution 22-1" uE49C
Substitution2: "Accent marker rearrangement single substitution 25-1" uE49F
Substitution2: "Accent marker rearrangement single substitution 28-1" uE4A2
Substitution2: "Accent marker rearrangement single substitution 31-1" uE4A5
Substitution2: "Accent marker rearrangement single substitution 34-1" uE4A8
Substitution2: "Accent marker rearrangement single substitution 37-1" uE4AB
Substitution2: "Accent marker rearrangement single substitution 40-1" uE4AE
Substitution2: "Accent marker rearrangement single substitution 43-1" uE4B1
Substitution2: "Accent marker rearrangement single substitution 46-1" uE4B4
Substitution2: "Accent marker rearrangement single substitution 49-1" uE4B7
Substitution2: "Accent marker rearrangement single substitution 52-1" uE4BA
EndChar

StartChar: u0952
Encoding: 2386 2386 4
Width: 0
Flags: MW
LayerCount: 2
Fore
SplineSet
-354 -59 m 256,0,1
 -354 -36 -354 -36 -339 -36 c 6,2,-1
 -90 -36 l 6,3,4
 -82 -36 -82 -36 -77.5 -43.5 c 128,-1,5
 -73 -51 -73 -51 -73 -59.5 c 128,-1,6
 -73 -68 -73 -68 -78.5 -75.5 c 128,-1,7
 -84 -83 -84 -83 -92 -83 c 2,8,-1
 -339 -83 l 2,9,10
 -354 -83 -354 -83 -354 -59 c 256,0,1
EndSplineSet
Position2: "Single Position lookup for accent markers 1-1" dx=0 dy=-300 dh=0 dv=0
Position2: "Single Position lookup for accent markers 2-1" dx=0 dy=-615 dh=0 dv=0
Position2: "Single Position lookup for accent markers 3-1" dx=0 dy=-125 dh=0 dv=0
Position2: "Single Position lookup for accent markers 4-1" dx=0 dy=-380 dh=0 dv=0
Substitution2: "Accent marker rearrangement single substitution 2-1" uE488
Substitution2: "Accent marker rearrangement single substitution 5-1" uE48B
Substitution2: "Accent marker rearrangement single substitution 8-1" uE48E
Substitution2: "Accent marker rearrangement single substitution 11-1" uE491
Substitution2: "Accent marker rearrangement single substitution 14-1" uE494
Substitution2: "Accent marker rearrangement single substitution 17-1" uE497
Substitution2: "Accent marker rearrangement single substitution 20-1" uE49A
Substitution2: "Accent marker rearrangement single substitution 23-1" uE49D
Substitution2: "Accent marker rearrangement single substitution 26-1" uE4A0
Substitution2: "Accent marker rearrangement single substitution 29-1" uE4A3
Substitution2: "Accent marker rearrangement single substitution 32-1" uE4A6
Substitution2: "Accent marker rearrangement single substitution 35-1" uE4A9
Substitution2: "Accent marker rearrangement single substitution 38-1" uE4AC
Substitution2: "Accent marker rearrangement single substitution 41-1" uE4AF
Substitution2: "Accent marker rearrangement single substitution 44-1" uE4B2
Substitution2: "Accent marker rearrangement single substitution 47-1" uE4B5
Substitution2: "Accent marker rearrangement single substitution 50-1" uE4B8
Substitution2: "Accent marker rearrangement single substitution 53-1" uE4BB
EndChar

StartChar: u0964
Encoding: 2404 2404 5
Width: 198
Flags: MW
LayerCount: 2
Fore
SplineSet
67 455 m 2,0,1
 67 483 67 483 98 483 c 0,2,3
 108 483 108 483 119.5 476.5 c 128,-1,4
 131 470 131 470 131 455 c 2,5,-1
 131 27 l 2,6,7
 131 14 131 14 120 7 c 128,-1,8
 109 0 109 0 97.5 0 c 128,-1,9
 86 0 86 0 76.5 6.5 c 128,-1,10
 67 13 67 13 67 27 c 2,11,-1
 67 455 l 2,0,1
EndSplineSet
Validated: 1
EndChar

StartChar: u0BE6
Encoding: 3046 3046 7
Width: 408
Flags: MW
LayerCount: 2
Fore
SplineSet
49 243 m 128,-1,1
 69 279 69 279 108 302 c 128,-1,2
 147 325 147 325 196 325 c 132,-1,3
 245 325 245 325 272 314.5 c 128,-1,4
 299 304 299 304 324 284 c 0,5,6
 383 237 383 237 383 165 c 0,7,8
 382 96 382 96 340 52 c 0,9,10
 291 0 291 0 206 0 c 0,11,12
 149 0 149 0 108 25 c 0,13,14
 29 74 29 74 29 165 c 256,15,0
 29 207 29 207 49 243 c 128,-1,1
210 269 m 1,16,17
 176 269 176 269 153.5 259.5 c 0,18,19
 130 250 130 250 116 234 c 0,20,21
 88 203 88 203 88 163.5 c 128,-1,22
 88 124 88 124 117.5 94.5 c 128,-1,23
 147 65 147 65 206.5 65 c 128,-1,24
 266 65 266 65 296 94.5 c 128,-1,25
 326 124 326 124 326 163 c 4,26,27
 326 198 326 198 296 232 c 0,28,29
 264 268 264 268 210 269 c 1,16,17
EndSplineSet
Validated: 1
EndChar

StartChar: u0BE7
Encoding: 3047 3047 8
Width: 490
Flags: MW
LayerCount: 2
Fore
SplineSet
381 284 m 6,0,1
 392 284 392 284 397.5 276.5 c 132,-1,2
 403 269 403 269 403 260 c 4,3,4
 403 252 403 252 401 248 c 4,5,6
 395 240 395 240 322 239 c 1,7,-1
 322 187 l 1,8,-1
 337 187 l 2,9,10
 354 187 354 187 381.5 178 c 128,-1,11
 409 169 409 169 426 156 c 0,12,13
 461 129 461 129 461 86 c 0,14,15
 461 32 461 32 406 8 c 0,16,17
 388 0 388 0 371 0 c 128,-1,18
 354 0 354 0 347.5 7 c 128,-1,19
 341 14 341 14 341 23 c 0,20,21
 341 42 341 42 368 45.5 c 128,-1,22
 395 49 395 49 405 64 c 0,23,24
 415 80 415 80 415 90 c 0,25,26
 415 117 415 117 386 137 c 0,27,28
 368 150 368 150 336 150 c 0,29,30
 330 150 330 150 322 149 c 1,31,-1
 322 75 l 2,32,33
 322 50 322 50 284 22 c 0,34,35
 262 6 262 6 240 2 c 0,36,37
 225 -1 225 -1 214 -1 c 0,38,39
 209 -1 209 -1 204 0 c 1,40,41
 151 0 151 0 117 20 c 0,42,43
 48 60 48 60 48 114 c 0,44,45
 48 148 48 148 86 162 c 0,46,47
 113 172 113 172 156 179 c 1,48,-1
 156 261 l 2,49,50
 156 270 156 270 168 276 c 1,51,52
 174 284 174 284 186 284 c 2,53,-1
 381 284 l 6,0,1
260 150 m 1,54,55
 217 150 217 150 175 141 c 0,56,57
 103 126 103 126 103 118 c 2,58,-1
 103 114 l 2,59,60
 103 78 103 78 143 57 c 0,61,62
 169 43 169 43 199.5 43 c 128,-1,63
 230 43 230 43 245 50.5 c 128,-1,64
 260 58 260 58 260 69 c 2,65,-1
 260 150 l 1,54,55
198 185 m 1,66,-1
 260 188 l 1,67,-1
 260 239 l 1,68,-1
 198 239 l 1,69,-1
 198 185 l 1,66,-1
EndSplineSet
EndChar

StartChar: u0BE8
Encoding: 3048 3048 9
Width: 489
Flags: MW
LayerCount: 2
Fore
SplineSet
97 118 m 1,0,1
 37 155 37 155 37 214 c 0,2,3
 37 258 37 258 70 284.5 c 0,4,5
 103 312 103 312 150 312 c 0,6,7
 152 312 152 312 153 312 c 0,8,9
 198 312 198 312 225 299 c 0,10,11
 253 286 253 286 268 268.5 c 128,-1,12
 283 251 283 251 283 225 c 0,13,14
 283 154 283 154 227 128 c 2,15,-1
 104 68 l 2,16,17
 86 60 86 60 75 49 c 1,18,-1
 418 49 l 2,19,20
 431 49 431 49 437 41.5 c 128,-1,21
 443 34 443 34 443 25 c 260,22,23
 443 16 443 16 437 8 c 128,-1,24
 431 0 431 0 418 0 c 2,25,-1
 72 0 l 2,26,27
 63 0 63 0 51.5 10 c 152,-1,28
 40 20 40 20 35.5 31 c 128,-1,29
 31 42 31 42 35 56 c 0,30,31
 44 87 44 87 97 118 c 1,0,1
161 256 m 256,32,33
 127 256 127 256 109 243.5 c 128,-1,34
 91 231 91 231 91 213 c 128,-1,35
 91 195 91 195 108 176.5 c 128,-1,36
 125 158 125 158 160 146 c 1,37,38
 195 158 195 158 212 176.5 c 128,-1,39
 229 195 229 195 229 212.5 c 128,-1,40
 229 230 229 230 212 243 c 128,-1,41
 195 256 195 256 161 256 c 256,32,33
EndSplineSet
Validated: 1
EndChar

StartChar: u0BE9
Encoding: 3049 3049 10
Width: 367
Flags: MW
LayerCount: 2
Fore
SplineSet
280 283 m 4,0,1
 280 255 280 255 193 255 c 1,2,-1
 193 188 l 1,3,4
 213 191 213 191 232 191 c 128,-1,5
 251 191 251 191 277 182.5 c 128,-1,6
 303 174 303 174 322 152 c 0,7,8
 348 122 348 122 348 87 c 0,9,10
 348 42 348 42 306 16 c 0,11,12
 280 0 280 0 238 0 c 0,13,14
 226 0 226 0 219 7 c 128,-1,15
 212 14 212 14 212 23 c 128,-1,16
 212 32 212 32 217.5 39 c 128,-1,17
 223 46 223 46 241 46 c 128,-1,18
 259 46 259 46 272 57 c 128,-1,19
 285 68 285 68 288.5 82 c 128,-1,20
 292 96 292 96 287 111 c 0,21,22
 277 142 277 142 242 142 c 2,23,-1
 238 142 l 2,24,25
 219 142 219 142 193 124 c 1,26,-1
 193 93 l 2,27,28
 193 81 193 81 182 75.5 c 128,-1,29
 171 70 171 70 159 70 c 256,30,31
 147 70 147 70 136 75.5 c 128,-1,32
 125 81 125 81 125 93 c 2,33,-1
 125 255 l 1,34,-1
 80 255 l 1,35,-1
 80 33 l 2,36,37
 80 0 80 0 54 0 c 0,38,39
 45 0 45 0 39 11 c 128,-1,40
 33 22 33 22 33 31 c 2,41,-1
 33 282 l 2,42,43
 33 293 33 293 39.5 299 c 128,-1,44
 46 305 46 305 54 305 c 2,45,-1
 193 305 l 2,46,47
 280 305 280 305 280 283 c 4,0,1
EndSplineSet
EndChar

StartChar: u0BEA
Encoding: 3050 3050 11
Width: 490
Flags: MW
LayerCount: 2
Fore
SplineSet
33 115 m 0,0,1
 33 165 33 165 130 190 c 1,2,-1
 130 282 l 2,3,4
 130 293 130 293 142 298 c 1,5,6
 149 308 149 308 160 308 c 2,7,-1
 344 308 l 6,8,9
 361 308 361 308 368 297 c 4,10,11
 372 291 372 291 372 277 c 135,-1,12
 372 263 372 263 357.5 259.5 c 132,-1,13
 343 256 343 256 298 256 c 1,14,-1
 298 195 l 1,15,16
 316 192 316 192 330 192 c 0,17,18
 370 192 370 192 392 208 c 0,19,20
 432 236 432 236 432 278 c 0,21,22
 432 288 432 288 434 294.5 c 128,-1,23
 436 301 436 301 446 301 c 0,24,25
 475 301 475 301 475 282 c 0,26,27
 475 191 475 191 382 162 c 0,28,29
 360 155 360 155 336 155 c 128,-1,30
 312 155 312 155 298 156 c 1,31,-1
 298 77 l 2,32,33
 298 40 298 40 279 23 c 128,-1,34
 260 6 260 6 239 3 c 128,-1,35
 218 0 218 0 201.5 0 c 128,-1,36
 185 0 185 0 159 3.5 c 0,37,38
 132 8 132 8 102 24 c 0,39,40
 32 62 32 62 33 115 c 0,0,1
173 158 m 2,41,42
 104 158 104 158 87 124 c 1,43,-1
 87 108 l 2,44,45
 87 79 87 79 113.5 61.5 c 128,-1,46
 140 44 140 44 159.5 42.5 c 128,-1,47
 179 41 179 41 191 41 c 128,-1,48
 203 41 203 41 218 44 c 0,49,50
 241 51 241 51 241 65 c 2,51,-1
 241 157 l 1,52,53
 212 157 212 157 187 158 c 2,54,-1
 173 158 l 2,41,42
241 196 m 1,55,-1
 241 254 l 1,56,-1
 176 254 l 1,57,-1
 176 196 l 1,58,-1
 241 196 l 1,55,-1
EndSplineSet
EndChar

StartChar: u0BEB
Encoding: 3051 3051 12
Width: 490
Flags: MW
LayerCount: 2
Fore
SplineSet
328 304 m 2,0,1
 401 304 401 304 401 284.5 c 132,-1,2
 401 265 401 265 328 265 c 1,3,-1
 328 200 l 1,4,5
 349 211 349 211 361 211 c 2,6,-1
 376 211 l 1,7,8
 421 205 421 205 446 161 c 0,9,10
 455 145 455 145 455 122 c 0,11,12
 455 78 455 78 426 50 c 0,13,14
 373 0 373 0 281 0 c 0,15,16
 154 0 154 0 79 90 c 0,17,18
 41 135 41 135 41 193 c 2,19,-1
 41 251 l 2,20,21
 41 295 41 295 59 309 c 0,22,23
 67 315 67 315 73.5 302 c 128,-1,24
 80 289 80 289 80 235 c 128,-1,25
 80 181 80 181 101 139 c 0,26,27
 141 59 141 59 226 42 c 0,28,29
 246 38 246 38 264 38 c 0,30,31
 324 38 324 38 359.5 68.5 c 128,-1,32
 395 99 395 99 395 124 c 0,33,34
 395 136 395 136 390 150 c 0,35,36
 384 164 384 164 376 168 c 0,37,38
 371 171 371 171 365 171 c 0,39,40
 349 171 349 171 328 149 c 9,41,-1
 328 144 l 2,42,43
 328 128 328 128 303 128 c 0,44,45
 294 128 294 128 286.5 132 c 128,-1,46
 279 136 279 136 279 143 c 2,47,-1
 279 265 l 1,48,-1
 214 265 l 1,49,-1
 214 124 l 2,50,51
 214 111 214 111 195.5 111 c 128,-1,52
 177 111 177 111 177 123 c 2,53,-1
 177 287 l 2,54,55
 177 304 177 304 191 304 c 2,56,-1
 328 304 l 2,0,1
EndSplineSet
EndChar

StartChar: u0BEC
Encoding: 3052 3052 13
Width: 490
Flags: MW
LayerCount: 2
Fore
SplineSet
463 181 m 256,0,1
 463 155 463 155 447 155 c 2,2,-1
 441 155 l 1,3,-1
 441 23 l 2,4,5
 441 10 441 10 435.5 5 c 128,-1,6
 430 0 430 0 424 0 c 256,7,8
 422 0 422 0 413 3.5 c 128,-1,9
 404 7 404 7 404 25 c 2,10,-1
 404 155 l 1,11,-1
 353 155 l 1,12,-1
 353 27 l 2,13,14
 353 0 353 0 335 0 c 0,15,16
 329 0 329 0 323 7.5 c 128,-1,17
 317 15 317 15 317 27 c 2,18,-1
 317 155 l 1,19,-1
 265 155 l 1,20,-1
 265 71 l 2,21,22
 265 46 265 46 241.5 28.5 c 128,-1,23
 218 11 218 11 195 5.5 c 128,-1,24
 172 0 172 0 141.5 0 c 0,25,26
 112 0 112 0 86 16 c 0,27,28
 27 53 27 53 27 110 c 0,29,30
 27 114 27 114 34 131.5 c 128,-1,31
 41 149 41 149 63 168.5 c 128,-1,32
 85 188 85 188 119 200 c 1,33,-1
 119 282 l 2,34,35
 119 286 119 286 128 295 c 0,36,37
 136 303 136 303 141 303 c 2,38,-1
 317 303 l 22,39,40
 343 303 343 303 343 280 c 4,41,42
 343 276 343 276 342 273 c 4,43,44
 338 265 338 265 330 260 c 132,-1,45
 322 255 322 255 315 255 c 6,46,-1
 265 255 l 1,47,-1
 265 208 l 1,48,-1
 444 208 l 2,49,50
 453 208 453 208 458 199.5 c 128,-1,51
 463 191 463 191 463 181 c 256,0,1
170 48 m 0,52,53
 204 48 204 48 204 67 c 2,54,-1
 204 153 l 1,55,56
 179 159 179 159 157 159 c 0,57,58
 114 159 114 159 94.5 143 c 128,-1,59
 75 127 75 127 75 112 c 0,60,61
 74 97 74 97 84 85 c 0,62,63
 112 48 112 48 170 48 c 0,52,53
157 208 m 1,64,65
 181 208 181 208 204 208 c 1,66,-1
 204 255 l 1,67,-1
 157 255 l 1,68,-1
 157 208 l 1,64,65
EndSplineSet
EndChar

StartChar: u0BED
Encoding: 3053 3053 14
Width: 533
Flags: MW
LayerCount: 2
Fore
SplineSet
423 19 m 2,0,1
 423 0 423 0 391 0 c 0,2,3
 379 0 379 0 367.5 4.5 c 128,-1,4
 356 9 356 9 356 19 c 2,5,-1
 356 259 l 1,6,7
 259 259 259 259 218.5 250.5 c 128,-1,8
 178 242 178 242 155.5 228.5 c 128,-1,9
 133 215 133 215 117.5 191.5 c 128,-1,10
 102 168 102 168 96 152 c 1,11,12
 149 150 149 150 176.5 125 c 128,-1,13
 204 100 204 100 204 71.5 c 128,-1,14
 204 43 204 43 184.5 21.5 c 128,-1,15
 165 0 165 0 126 0 c 128,-1,16
 87 0 87 0 68 23 c 0,17,18
 38 59 38 59 38 113 c 0,19,20
 38 208 38 208 116 254 c 0,21,22
 187 296 187 296 320 302 c 0,23,24
 385 305 385 305 477 306 c 0,25,26
 488 306 488 306 494 299 c 128,-1,27
 500 292 500 292 500 283 c 0,28,29
 500 259 500 259 478 259 c 2,30,-1
 423 259 l 1,31,-1
 423 19 l 2,0,1
89 105 m 0,32,33
 89 45 89 45 125 45 c 0,34,35
 156 46 156 46 156 82 c 0,36,37
 156 96 156 96 137 107 c 0,38,39
 121 119 121 119 90 121 c 1,40,41
 89 113 89 113 89 105 c 0,32,33
EndSplineSet
EndChar

StartChar: u0BEE
Encoding: 3054 3054 15
Width: 490
Flags: MW
LayerCount: 2
Fore
SplineSet
412 285 m 2,0,1
 412 306 412 306 434 306 c 0,2,3
 446 306 446 306 455.5 300.5 c 128,-1,4
 465 295 465 295 465 284 c 6,5,-1
 465 24 l 6,6,7
 465 12 465 12 455.5 6 c 128,-1,8
 446 0 446 0 434 0 c 0,9,10
 412 0 412 0 412 23 c 2,11,-1
 412 203 l 1,12,13
 389 193 389 193 357 183.5 c 128,-1,14
 325 174 325 174 323 172 c 128,-1,15
 321 170 321 170 322.5 165 c 128,-1,16
 324 160 324 160 324 156 c 0,17,18
 322 90 322 90 260 42 c 0,19,20
 208 1 208 1 134 0 c 0,21,22
 106 0 106 0 69.5 24.5 c 128,-1,23
 33 49 33 49 19 86 c 0,24,25
 16 94 16 94 16 98.5 c 128,-1,26
 16 103 16 103 33 113 c 0,27,28
 55 126 55 126 236 183 c 1,29,30
 237 189 237 189 237 194 c 0,31,32
 238 214 238 214 228 228 c 0,33,34
 216 244 216 244 200 250 c 0,35,36
 189 254 189 254 177 254 c 0,37,38
 151 254 151 254 125 231 c 1,39,-1
 121 211 l 1,40,41
 114 198 114 198 103 193.5 c 128,-1,42
 92 189 92 189 83.5 193 c 128,-1,43
 75 197 75 197 70.5 206.5 c 128,-1,44
 66 216 66 216 73.5 234 c 128,-1,45
 81 252 81 252 102.5 267 c 128,-1,46
 124 282 124 282 145 286 c 0,47,48
 169 291 169 291 191 292 c 0,49,50
 223 292 223 292 251 280 c 0,51,52
 306 258 306 258 312 210 c 1,53,54
 321 214 321 214 354 225 c 2,55,-1
 412 245 l 1,56,-1
 412 285 l 2,0,1
240 143 m 1,57,58
 166 119 166 119 100 99 c 1,59,-1
 73 86 l 1,60,61
 76 66 76 66 90.5 55.5 c 128,-1,62
 105 45 105 45 125 45 c 128,-1,63
 145 45 145 45 166.5 51 c 0,64,65
 188 56 188 56 206 70 c 0,66,67
 241 96 241 96 241 131 c 0,68,69
 241 137 241 137 240 143 c 1,57,58
EndSplineSet
Validated: 33
EndChar

StartChar: u0BEF
Encoding: 3055 3055 16
Width: 490
Flags: MW
LayerCount: 2
Fore
SplineSet
143 199 m 1,0,1
 159 199 159 199 175 199 c 1,2,-1
 175 252 l 1,3,-1
 143 252 l 1,4,-1
 143 199 l 1,0,1
175 79 m 2,5,-1
 175 157 l 1,6,7
 109 154 109 154 100 149 c 128,-1,8
 91 144 91 144 82 140 c 0,9,10
 68 135 68 135 64 120.5 c 128,-1,11
 60 106 60 106 60 104 c 2,12,-1
 60 99 l 2,13,14
 60 75 60 75 74 62 c 0,15,16
 94 44 94 44 118 44 c 0,17,18
 132 44 132 44 146 50 c 0,19,20
 176 58 176 58 175 79 c 2,5,-1
306 278 m 4,21,22
 306 252 306 252 229 252 c 1,23,-1
 229 196 l 1,24,25
 245 197 245 197 263 197 c 128,-1,26
 281 197 281 197 297 189 c 1,27,28
 320 203 320 203 352 203 c 0,29,30
 420 202 420 202 460 150 c 0,31,32
 478 126 478 126 478 99 c 0,33,34
 478 95 478 95 478 92 c 0,35,36
 478 69 478 69 474 59 c 0,37,38
 466 32 466 32 449.5 16 c 128,-1,39
 433 0 433 0 426 0 c 2,40,-1
 419 0 l 2,41,42
 413 -3 413 -3 408 0 c 0,43,44
 406 1 406 1 403 8 c 128,-1,45
 400 15 400 15 407 21.5 c 128,-1,46
 414 28 414 28 422 34 c 0,47,48
 442 52 442 52 442 70 c 2,49,-1
 442 91 l 2,50,51
 442 134 442 134 401 158 c 0,52,53
 376 173 376 173 353 172 c 0,54,55
 341 172 341 172 329 168 c 1,56,57
 348 154 348 154 360.5 137 c 128,-1,58
 373 120 373 120 374 93 c 0,59,60
 374 45 374 45 357.5 22.5 c 128,-1,61
 341 0 341 0 320 0 c 128,-1,62
 299 0 299 0 278 18 c 128,-1,63
 257 36 257 36 257 58 c 2,64,-1
 257 86 l 2,65,66
 257 116 257 116 271 150 c 1,67,68
 261 159 261 159 244 159 c 0,69,70
 237 159 237 159 229 157 c 1,71,-1
 229 92 l 2,72,73
 229 89 229 89 227 81 c 0,74,75
 216 43 216 43 192.5 21.5 c 128,-1,76
 169 0 169 0 142.5 0 c 128,-1,77
 116 0 116 0 91 10 c 128,-1,78
 66 20 66 20 46 40 c 0,79,80
 15 71 15 71 15 106 c 0,81,82
 15 118 15 118 19 132 c 0,83,84
 24 149 24 149 46 167.5 c 128,-1,85
 68 186 68 186 98 197 c 1,86,-1
 98 279 l 2,87,88
 98 290 98 290 110 294 c 1,89,90
 114 303 114 303 122 303 c 2,91,-1
 289 303 l 6,92,93
 297 303 297 303 301.5 295 c 132,-1,94
 306 287 306 287 306 278 c 4,21,22
321 35 m 128,-1,96
 333 39 333 39 341 53 c 0,97,98
 347 63 347 63 347 77 c 0,99,100
 347 84 347 84 346 92 c 8,101,102
 342 116 342 116 334 127 c 0,103,104
 329 134 329 134 317 134 c 0,105,106
 310 134 310 134 302 132 c 0,107,108
 289 129 289 129 289 90.5 c 128,-1,109
 289 52 289 52 299 41.5 c 128,-1,95
 309 31 309 31 321 35 c 128,-1,96
EndSplineSet
EndChar

StartChar: uE100
Encoding: 57600 57600 17
Width: 859
Flags: MW
AnchorPoint: "stacking" 410 -194 basechar 0
LayerCount: 2
Fore
SplineSet
274 147 m 3,0,1
 274 77 274 77 212 50 c 0,2,3
 182 37 182 37 154 37 c 3,4,5
 130 37 130 37 100 49 c 0,6,7
 80 57 80 57 54 86 c 0,8,9
 34 108 34 108 33 146 c 0,10,11
 33 297 33 297 110 366 c 0,12,13
 145 398 145 398 190 404 c 0,14,15
 218 408 218 408 225 408 c 0,16,17
 252 408 252 408 280 399 c 0,18,19
 377 371 377 371 428 280 c 1,20,-1
 428 396 l 2,21,22
 428 408 428 408 440 414 c 0,23,24
 446 417 446 417 462 417 c 2,25,-1
 702 417 l 6,26,27
 722 417 722 417 729 406 c 4,28,29
 735 396 735 396 735 386 c 135,-1,30
 735 376 735 376 726 367 c 132,-1,31
 717 358 717 358 704 358 c 6,32,-1
 635 358 l 1,33,-1
 635 280 l 1,34,35
 709 268 709 268 759 217 c 128,-1,36
 809 166 809 166 809 106 c 3,37,38
 809 -13 809 -13 734 -54 c 0,39,40
 685 -81 685 -81 593 -81 c 0,41,42
 568 -81 568 -81 565 -81 c 0,43,44
 518 -76 518 -76 430 -76 c 2,45,-1
 380 -76 l 2,46,47
 288 -76 288 -76 277 -94 c 0,48,49
 272 -102 272 -102 281 -113.5 c 128,-1,50
 290 -125 290 -125 300.5 -135.5 c 128,-1,51
 311 -146 311 -146 308.5 -158.5 c 128,-1,52
 306 -171 306 -171 294 -184 c 0,53,54
 285 -194 285 -194 274 -194 c 3,55,56
 250 -194 250 -194 235 -165 c 0,57,58
 222 -139 222 -139 222 -122 c 3,59,60
 222 -97 222 -97 234 -78 c 0,61,62
 264.186480186 -29.7016317016 264.186480186 -29.7016317016 386 -32 c 2,63,-1
 545 -35 l 2,64,65
 689 -38 689 -38 726 34 c 0,66,67
 738 57 738 57 739 92 c 0,68,69
 740 141 740 141 714 177 c 0,70,71
 690 211 690 211 637 222 c 1,72,73
 641 182 641 182 641 141 c 3,74,75
 641 109 641 109 634 80 c 0,76,77
 615 0 615 0 526 0 c 3,78,79
 457 0 457 0 414 27.5 c 128,-1,80
 371 55 371 55 353 93 c 0,81,82
 341 119 341 119 341 148 c 3,83,84
 341 160 341 160 343 174 c 0,85,86
 351 216 351 216 388 246 c 1,87,88
 361 298 361 298 317 327 c 0,89,90
 267 361 267 361 228 361 c 0,91,92
 223 361 223 361 218 361 c 0,93,94
 180 361 180 361 148 337 c 0,95,96
 112 309 112 309 103 243 c 1,97,98
 128 253 128 253 153 253 c 0,99,100
 184 253 184 253 216 238 c 0,101,102
 274 212 274 212 274 147 c 3,0,1
484 358 m 1,103,-1
 484 282 l 1,104,-1
 564 282 l 1,105,-1
 564 358 l 1,106,-1
 484 358 l 1,103,-1
105 145 m 3,107,108
 105 117 105 117 123 103.5 c 128,-1,109
 141 90 141 90 161 90 c 0,110,111
 183 90 183 90 198 103 c 0,112,113
 216 117 216 117 216 145 c 3,114,115
 216 176 216 176 198 190 c 0,116,117
 184 201 184 201 161 201 c 3,118,119
 140 201 140 201 122 186 c 0,120,121
 105 171 105 171 105 145 c 3,107,108
526 74 m 3,122,123
 564 74 564 74 566 122 c 0,124,125
 567 141 567 141 567 148 c 3,126,127
 567 180 567 180 564 224 c 1,128,-1
 457 224 l 2,129,130
 421 224 421 224 402 188 c 0,131,132
 394 171 394 171 393 158 c 0,133,134
 392 147 392 147 396 138 c 0,135,136
 406 112 406 112 439 93 c 128,-1,137
 472 74 472 74 526 74 c 3,122,123
EndSplineSet
LCarets2: 2 0 0
Ligature2: "'akhn' Akhanda subtable" u11328 u1134D u11324
EndChar

StartChar: uE101
Encoding: 57601 57601 18
Width: 761
Flags: MW
AnchorPoint: "stacking" 365 -101 basechar 0
LayerCount: 2
Fore
SplineSet
244 160 m 3,0,1
 244 98 244 98 190 71 c 0,2,3
 164 58 164 58 138 58 c 3,4,5
 114 58 114 58 90 68 c 0,6,7
 47 85 47 85 30 155 c 0,8,9
 26 172 26 172 26 221 c 3,10,11
 26 310 26 310 62 359 c 0,12,13
 95 405 95 405 146 405 c 3,14,15
 160 405 160 405 176 401 c 0,16,17
 245 385 245 385 297 316 c 1,18,-1
 297 383 l 2,19,20
 297 394 297 394 309 398 c 1,21,22
 315 408 315 408 327 408 c 2,23,-1
 598 408 l 6,24,25
 607 408 607 408 612 398.5 c 132,-1,26
 617 389 617 389 617 379 c 135,-1,27
 617 369 617 369 612 360 c 132,-1,28
 607 351 607 351 598 351 c 6,29,-1
 516 351 l 1,30,-1
 516 217 l 1,31,32
 545 233 545 233 574 233 c 3,33,34
 608 233 608 233 640 213 c 0,35,36
 668 196 668 196 686.5 166.5 c 128,-1,37
 705 137 705 137 705 75 c 3,38,39
 705 3 705 3 659 -46 c 0,40,41
 607 -101 607 -101 516 -101 c 2,42,-1
 136 -101 l 2,43,44
 116 -101 116 -101 116 -73.5 c 131,-1,45
 116 -46 116 -46 136 -46 c 2,46,-1
 516 -46 l 2,47,48
 609 -46 609 -46 623 19 c 0,49,50
 628 41 628 41 628 70 c 3,51,52
 628 130 628 130 615.5 150.5 c 128,-1,53
 603 171 603 171 585 180 c 0,54,55
 577 184 577 184 569 183 c 0,56,57
 559 183 559 183 548 177 c 0,58,59
 529 167 529 167 516 138 c 1,60,-1
 516 26 l 2,61,62
 516 13 516 13 504.5 6.5 c 128,-1,63
 493 0 493 0 478.5 0 c 128,-1,64
 464 0 464 0 452 6.5 c 128,-1,65
 440 13 440 13 440 26 c 2,66,-1
 440 351 l 1,67,-1
 357 351 l 1,68,-1
 357 17 l 2,69,70
 357 1 357 1 332 0 c 0,71,72
 297 0 297 0 297 18 c 2,73,-1
 297 83 l 2,74,75
 297 240 297 240 240 309 c 0,76,77
 216 338 216 338 189 347 c 0,78,79
 174 352 174 352 159 352 c 3,80,81
 147 352 147 352 137 348 c 0,82,83
 113 340 113 340 96.5 314 c 128,-1,84
 80 288 80 288 79 248 c 1,85,86
 103 265 103 265 135 264 c 0,87,88
 159 264 159 264 184 253 c 128,-1,89
 209 242 209 242 226.5 218 c 128,-1,90
 244 194 244 194 244 160 c 3,0,1
108 205.5 m 128,-1,92
 94 191 94 191 94 161 c 131,-1,93
 94 131 94 131 108 116.5 c 128,-1,94
 122 102 122 102 138 102 c 131,-1,95
 154 102 154 102 168 116.5 c 128,-1,96
 182 131 182 131 182 160 c 3,97,98
 182 191 182 191 168.5 205.5 c 128,-1,99
 155 220 155 220 138.5 220 c 131,-1,91
 122 220 122 220 108 205.5 c 128,-1,92
EndSplineSet
LCarets2: 2 0 0
Ligature2: "'akhn' Akhanda subtable" u11328 u1134D u11328
EndChar

StartChar: uE102
Encoding: 57602 57602 19
Width: 853
Flags: MW
AnchorPoint: "stacking" 415 0 basechar 0
LayerCount: 2
Fore
SplineSet
591 63 m 1,0,1
 614 24 614 24 650 10 c 0,2,3
 677 0 677 0 691 0 c 3,4,5
 698 0 698 0 720 6 c 0,6,7
 754 16 754 16 777 52.5 c 128,-1,8
 800 89 800 89 800 149 c 3,9,10
 800 166 800 166 791.5 199 c 0,11,12
 778 251 778 251 732 269 c 0,13,14
 707 279 707 279 689 279 c 128,-1,15
 671 279 671 279 656 276 c 128,-1,16
 641 273 641 273 628 256 c 128,-1,17
 615 239 615 239 615 214 c 2,18,-1
 615 210 l 0,19,20
 616 175 616 175 664 148 c 0,21,22
 682 138 682 138 710 138 c 3,23,24
 728 138 728 138 743 149 c 1,25,26
 743 140 743 140 743 134 c 0,27,28
 743 93 743 93 730 70 c 0,29,30
 714 43 714 43 690 42 c 0,31,32
 689 42 689 42 688 42 c 0,33,34
 665 42 665 42 640 70 c 0,35,36
 614 100 614 100 614 146 c 3,37,38
 614 172 614 172 579 193 c 0,39,40
 572 197 572 197 560.5 189.5 c 128,-1,41
 549 182 549 182 546 177 c 128,-1,42
 543 172 543 172 544 171 c 0,43,44
 563 152 563 152 563 126 c 3,45,46
 563 98 563 98 550 80 c 0,47,48
 538 62 538 62 523 51.5 c 128,-1,49
 508 41 508 41 499 41 c 1,50,51
 495 40 495 40 481 40 c 0,52,53
 472 40 472 40 466 45 c 0,54,55
 456 53 456 53 455 69 c 0,56,57
 455 90 455 90 469 117 c 1,58,-1
 469 118 l 1,59,60
 477 140 477 140 477 159 c 3,61,62
 477 198 477 198 443 224 c 0,63,64
 401 257 401 257 314 261 c 1,65,-1
 314 357 l 1,66,-1
 383 357 l 6,67,68
 396 357 396 357 403 364.5 c 132,-1,69
 410 372 410 372 409.5 380.5 c 4,70,71
 410 389 410 389 400.5 396 c 4,72,73
 392 403 392 403 380 403 c 6,74,-1
 152 403 l 2,75,76
 138 403 138 403 127 398.5 c 0,77,78
 114 393 114 393 114 383 c 2,79,-1
 114 256 l 1,80,81
 79 245 79 245 59 221.5 c 128,-1,82
 39 198 39 198 33 170 c 0,83,84
 30 158 30 158 30 146 c 3,85,86
 30 130 30 130 35 112 c 0,87,88
 42 82 42 82 64 57 c 0,89,90
 115 0 115 0 204 0 c 3,91,92
 253 0 253 0 277.5 25 c 0,93,94
 301 50 301 50 310 84 c 0,95,96
 318 114 318 114 318 144 c 0,97,98
 318 148 318 148 318 154 c 0,99,100
 316 190 316 190 314 217 c 1,101,102
 318 217 318 217 323 217 c 0,103,104
 381 217 381 217 408 191 c 0,105,106
 424 175 424 175 424 154 c 3,107,108
 424 132 424 132 414 117 c 24,109,110
 401 97 401 97 398 87 c 0,111,112
 395 74 395 74 395 67 c 3,113,114
 395 58 395 58 398 49 c 0,115,116
 404 30 404 30 426 16 c 0,117,118
 449 -0 449 -0 489 0 c 3,119,120
 552 0 552 0 591 63 c 1,0,1
169 357 m 1,121,-1
 244 357 l 1,122,-1
 244 262 l 1,123,-1
 169 262 l 1,124,-1
 169 357 l 1,121,-1
205 62 m 3,125,126
 153 62 153 62 121 82.5 c 0,127,128
 87.5315487572 102.894837476 87.5315487572 102.894837476 80 128 c 0,129,130
 77 138 77 138 77 148 c 3,131,132
 77 164 77 164 86 179 c 0,133,134
 101 204 101 204 142 214 c 1,135,-1
 244 214 l 1,136,137
 244 182 244 182 246 154 c 0,138,139
 247 143 247 143 247 134 c 0,140,141
 248 118 248 118 246 106 c 0,142,143
 240 62 240 62 205 62 c 3,125,126
724 226 m 0,144,145
 732 215 732 215 726 197 c 0,146,147
 720 178 720 178 693 177 c 0,148,149
 668 177 668 177 662 186 c 0,150,151
 653 197 653 197 653 213 c 2,152,-1
 653 214 l 2,153,154
 653 226 653 226 663.5 234.5 c 0,155,156
 673.992425981 242.5 673.992425981 242.5 690.5 242.5 c 3,157,158
 713.00555487 242.5 713.00555487 242.5 724 226 c 0,144,145
EndSplineSet
Position2: "Single Position lookup 0-1" dx=0 dy=0 dh=-410 dv=0
LCarets2: 2 0 0
Ligature2: "'akhn' Akhanda subtable" u11324 u1134D u11325
EndChar

StartChar: uE103
Encoding: 57603 57603 20
Width: 1128
Flags: MW
AnchorPoint: "stacking" 550 0 basechar 0
LayerCount: 2
Fore
SplineSet
557 212 m 1,0,1
 556 221 556 221 555.5 230 c 128,-1,2
 555 239 555 239 554 247 c 1,3,4
 519 244 519 244 493 220 c 1,5,6
 499 221 499 221 506 221 c 0,7,8
 529 221 529 221 557 212 c 1,0,1
457 137 m 3,9,10
 457 117 457 117 473 107 c 0,11,12
 492 96 492 96 510 96 c 131,-1,13
 528 96 528 96 544 106 c 128,-1,14
 560 116 560 116 560 137 c 131,-1,15
 560 158 560 158 543 168 c 0,16,17
 529 176 529 176 510 176 c 3,18,19
 492 176 492 176 473.5 164.5 c 0,20,21
 457 154 457 154 457 137 c 3,9,10
552 283 m 1,22,23
 552 322 552 322 552 362 c 1,24,-1
 354 362 l 2,25,26
 319 362 319 362 304.5 350 c 0,27,28
 291 338 291 338 288 312 c 0,29,30
 287 304 287 304 287 275 c 2,31,-1
 287 136 l 2,32,33
 287 94 287 94 267 62.5 c 0,34,35
 250 36 250 36 219.5 18 c 0,36,37
 188 -0 188 -0 160 0 c 3,38,39
 130 0 130 0 100 16 c 0,40,41
 72 30 72 30 54 59 c 128,-1,42
 36 88 36 88 36 132 c 2,43,-1
 36 388 l 2,44,45
 36 404 36 404 59 404 c 3,46,47
 86 404 86 404 86 388 c 2,48,-1
 86 136 l 2,49,50
 86 94 86 94 109 73.5 c 128,-1,51
 132 53 132 53 159 53 c 131,-1,52
 186 53 186 53 207 74 c 0,53,54
 225 92 225 92 225 125 c 2,55,-1
 225 262 l 2,56,57
 225 309 225 309 234 338 c 0,58,59
 244 372 244 372 271 390.5 c 0,60,61
 299 410 299 410 354 410 c 2,62,-1
 688 410 l 6,63,64
 697 410 697 410 702 402.5 c 132,-1,65
 707 395 707 395 707 386 c 135,-1,66
 707 377 707 377 702 369.5 c 132,-1,67
 697 362 697 362 688 362 c 6,68,-1
 615 362 l 1,69,-1
 615 280 l 1,70,71
 682 270 682 270 722 232 c 0,72,73
 763 193 763 193 763 137 c 3,74,75
 763 70 763 70 696 39 c 1,76,77
 842 39 842 39 988 39 c 1,78,-1
 988 366 l 2,79,80
 988 379 988 379 999 388 c 0,81,82
 1011 398 1011 398 1025 397.5 c 0,83,84
 1039 398 1039 398 1051.5 393.5 c 0,85,86
 1064 388 1064 388 1064 374 c 2,87,-1
 1064 0 l 1,88,-1
 403 0 l 1,89,-1
 403 39 l 1,90,91
 552 39 552 39 596.5 49.5 c 0,92,93
 628 57 628 57 664.5 80 c 0,94,95
 695 99 695 99 696 137 c 0,96,97
 696 174 696 174 672 201 c 128,-1,98
 648 228 648 228 615 240 c 1,99,100
 618 156 618 156 618 138 c 3,101,102
 618 87 618 87 561 64 c 0,103,104
 536 54 536 54 505 53 c 0,105,106
 479 52 479 52 453 62 c 0,107,108
 395 84 395 84 395 137 c 3,109,110
 395 198 395 198 452 244 c 0,111,112
 492 277 492 277 552 283 c 1,22,23
EndSplineSet
LCarets2: 2 0 0
Ligature2: "'akhn' Akhanda subtable" u11336 u1134D u1131A
EndChar

StartChar: uE104
Encoding: 57604 57604 21
Width: 613
Flags: MW
AnchorPoint: "stacking" 306 0 basechar 0
LayerCount: 2
Fore
SplineSet
586 287 m 3,0,1
 586 196 586 196 483 158 c 0,2,3
 456 148 456 148 430 137.5 c 128,-1,4
 404 127 404 127 379 114.5 c 0,5,6
 352 102 352 102 352 82 c 3,7,8
 352 52 352 52 366 45 c 0,9,10
 384 36 384 36 397 36 c 19,11,12
 412 36 412 36 428 50.5 c 0,13,14
 442 63 442 63 442 88 c 0,15,16
 442 95 442 95 449 98.5 c 0,17,18
 455.937742252 101 455.937742252 101 464 101 c 3,19,20
 486.203603311 101 486.203603311 101 486 81 c 0,21,22
 486 37 486 37 440 11 c 0,23,24
 421 0 421 0 394 0 c 3,25,26
 374 0 374 0 354 7.5 c 0,27,28
 334 16 334 16 320.5 32.5 c 132,-1,29
 307 49 307 49 307 74 c 3,30,31
 307 108.228571429 307 108.228571429 326.5 125.5 c 0,32,33
 344 141 344 141 366 154 c 128,-1,34
 388 167 388 167 413 178 c 0,35,36
 438 188 438 188 459 204 c 0,37,38
 506 240 506 240 506 296 c 3,39,40
 506 334 506 334 467 352 c 0,41,42
 441 364 441 364 423 364 c 0,43,44
 414 364 414 364 406 362 c 0,45,46
 374 356 374 356 343 331 c 0,47,48
 304 300 304 300 300 266 c 0,49,50
 299 258 299 258 289 258 c 24,51,52
 282 258 282 258 275 258 c 0,53,54
 258 258 258 258 252 268 c 0,55,56
 251 270 251 270 251 275 c 2,57,-1
 251 282 l 2,58,59
 251 308 251 308 237 325.5 c 0,60,61
 222 343 222 343 202 351 c 0,62,63
 183 358 183 358 166 358 c 3,64,65
 140 358 140 358 118 342 c 1,66,67
 154 342 154 342 181 323 c 128,-1,68
 208 304 208 304 208 266 c 3,69,70
 208 212 208 212 162 188 c 0,71,72
 139 176 139 176 116 176 c 3,73,74
 96 176 96 176 76 185 c 0,75,76
 25 208 25 208 25 267 c 131,-1,77
 25 326 25 326 56.5 361 c 0,78,79
 90.1950422652 397.456930975 90.1950422652 397.456930975 131 404 c 0,80,81
 150 407 150 407 160 407 c 0,82,83
 199 407 199 407 217 396 c 24,84,85
 265.466353818 369.889410303 265.466353818 369.889410303 284 339 c 1,86,87
 315 380 315 380 362 396 c 0,88,89
 384 404 384 404 436 409 c 0,90,91
 446 410 446 410 458 408 c 0,92,93
 506 402 506 402 543 374 c 0,94,95
 586 341 586 341 586 287 c 3,0,1
86 266 m 3,96,97
 86 241 86 241 97.5 229 c 0,98,99
 108.990388169 216.5 108.990388169 216.5 122 216.5 c 131,-1,100
 135.009611831 216.5 135.009611831 216.5 146.5 227.5 c 0,101,102
 158 239 158 239 158 265 c 3,103,104
 158 284 158 284 144.5 292 c 0,105,106
 132.008925726 299.5 132.008925726 299.5 118 299.5 c 131,-1,107
 103.991074274 299.5 103.991074274 299.5 95 290 c 0,108,109
 86 281 86 281 86 266 c 3,96,97
EndSplineSet
LCarets2: 2 0 0
Ligature2: "'akhn' Akhanda subtable" u1132E u1134D u1132E
EndChar

StartChar: uE105
Encoding: 57605 57605 22
Width: 554
Flags: MW
AnchorPoint: "stacking" 277 -201 basechar 0
LayerCount: 2
Fore
SplineSet
425 -91 m 0,0,1
 425 -160 425 -160 384 -160.009765625 c 0,2,3
 334 -160 334 -160 320 -118 c 0,4,5
 318 -112 318 -112 321 -89 c 0,6,7
 324.963101758 -62.2490631306 324.963101758 -62.2490631306 337 -54 c 26,8,-1
 480 44 l 2,9,10
 499 57 499 57 500 147 c 4,11,12
 500 198 500 198 432 227 c 0,13,14
 393 244 393 244 364 244 c 2,15,-1
 342 244 l 2,16,17
 326 244 326 244 297 232 c 1,18,-1
 297 358 l 1,19,-1
 379 358 l 2,20,21
 390 358 390 358 396.5 365 c 128,-1,22
 403 372 403 372 403 380.5 c 128,-1,23
 403 389 403 389 397 396.5 c 128,-1,24
 391 404 391 404 379 404 c 2,25,-1
 92 404 l 2,26,27
 77 404 77 404 72 395 c 1,28,29
 54 391 54 391 54 380 c 2,30,-1
 54 31 l 2,31,32
 54 20 54 20 64 10 c 128,-1,33
 74 0 74 0 88.5 0 c 128,-1,34
 103 0 103 0 113 6 c 128,-1,35
 123 12 123 12 123 31 c 2,36,-1
 123 358 l 1,37,-1
 214 358 l 1,38,-1
 214 71 l 2,39,40
 214 40 214 40 228.5 20 c 128,-1,41
 243 0 243 0 256.5 0 c 128,-1,42
 270 0 270 0 283 18.5 c 128,-1,43
 296 37 296 37 296 74 c 2,44,-1
 296 166 l 1,45,46
 319 204 319 204 356 204 c 0,47,48
 364 204 364 204 372 201 c 0,49,50
 419 183 419 183 416 109 c 0,51,52
 415.003759398 91.0676691729 415.003759398 91.0676691729 412 88 c 2,53,-1
 318 -8 l 2,54,55
 280 -47 280 -47 277 -53 c 0,56,57
 261 -85 261 -85 261 -103.5 c 0,58,59
 261 -151 261 -151 306 -176 c 0,60,61
 341 -195 341 -195 363 -199 c 4,62,63
 394 -204 394 -204 418 -197 c 132,-1,64
 442 -190 442 -190 458 -156.5 c 128,-1,65
 474 -123 474 -123 474 -99 c 0,66,67
 474 -55 474 -55 442 -55 c 0,68,69
 425 -55 425 -55 425 -91 c 0,0,1
EndSplineSet
LCarets2: 2 0 0
Ligature2: "'akhn' Akhanda subtable" u11328 u1134D u1132E
EndChar

StartChar: uE106
Encoding: 57606 57606 23
Width: 655
Flags: MW
AnchorPoint: "stacking" 307 0 basechar 0
LayerCount: 2
Fore
SplineSet
216 355 m 1,0,1
 260 339 260 339 260 301 c 3,2,3
 260 262 260 262 220 244 c 0,4,5
 203.020507812 235 203.020507812 235 179 235 c 3,6,7
 159.973632812 235 159.973632812 235 142 240 c 0,8,9
 111 249 111 249 94 291 c 0,10,11
 91 295.916992188 91 295.916992188 91 302 c 3,12,13
 91 328.172851562 91 328.172851562 111 353.5 c 0,14,15
 131 376 131 376 162 388 c 128,-1,16
 193 400 193 400 229 401 c 0,17,18
 268 401 268 401 298 389 c 0,19,20
 330 376 330 376 353 345.5 c 0,21,22
 381 315.259765625 381 315.259765625 381 267 c 3,23,24
 381 199 381 199 322 160 c 1,25,26
 355 141 355 141 355 110 c 3,27,28
 355 78 355 78 314 49 c 1,29,-1
 510 49 l 1,30,-1
 510 391 l 2,31,32
 510 407 510 407 545 407 c 3,33,34
 558 407 558 407 569 402.5 c 128,-1,35
 580 398 580 398 580 391 c 2,36,-1
 580 35 l 1,37,38
 586 24 586 24 577.5 12 c 128,-1,39
 569 0 569 0 548 0 c 2,40,-1
 48 0 l 2,41,42
 39 0 39 0 34 7.5 c 128,-1,43
 29 15 29 15 29 24.5 c 131,-1,44
 29 34 29 34 34 41.5 c 128,-1,45
 39 49 39 49 48 49 c 2,46,-1
 86 49 l 2,47,48
 256 50 256 50 298 82 c 0,49,50
 314 94 314 94 303 106.5 c 0,51,52
 292 123 292 123 264 123 c 2,53,-1
 121 123 l 2,54,55
 100 123 100 123 100 145 c 3,56,57
 100 171 100 171 121 171 c 3,58,59
 252 171 252 171 298 225 c 0,60,61
 314 243 314 243 313 267 c 0,62,63
 313 314 313 314 280 338 c 0,64,65
 256 355 256 355 224 355 c 0,66,67
 220 355 220 355 216 355 c 1,0,1
160.5 321 m 128,-1,69
 153 314 153 314 153 300.5 c 131,-1,70
 153 287 153 287 160.5 280 c 128,-1,71
 168 273 168 273 177.5 273 c 131,-1,72
 187 273 187 273 195 280 c 128,-1,73
 203 287 203 287 203 300.5 c 131,-1,74
 203 314 203 314 195 321 c 128,-1,75
 187 328 187 328 177.5 328 c 131,-1,68
 168 328 168 328 160.5 321 c 128,-1,69
EndSplineSet
LCarets2: 2 0 0
Ligature2: "'akhn' Akhanda subtable" u11326 u1134D u11335
EndChar

StartChar: uE107
Encoding: 57607 57607 24
Width: 917
Flags: MW
AnchorPoint: "stacking" 449 0 basechar 0
LayerCount: 2
Fore
SplineSet
642 0 m 2,0,1
 628 0 628 0 620 19 c 0,2,3
 613 37 613 37 626 42 c 0,4,5
 653 51 653 51 662 84 c 0,6,7
 666 98 666 98 666 113 c 3,8,9
 666 132 666 132 660 152 c 0,10,11
 650 186 650 186 625 212 c 0,12,13
 603 236 603 236 570 236 c 3,14,15
 550 236 550 236 525 224 c 1,16,17
 567 194 567 194 587 156 c 0,18,19
 604 123 604 123 604 93 c 2,20,-1
 604 84 l 2,21,22
 604 53 604 53 575.5 25.5 c 0,23,24
 549 0 549 0 502.489257812 -0.1845703125 c 0,25,26
 459 0 459 0 438 24 c 0,27,28
 417 49 417 49 415.5 71.5 c 128,-1,29
 414 94 414 94 414 115 c 3,30,31
 414 132 414 132 418 152 c 0,32,33
 424 192 424 192 446 223 c 1,34,35
 397 241 397 241 344 241 c 0,36,37
 335 241 335 241 325 240 c 1,38,39
 328 173 328 173 328 165 c 3,40,41
 328 118 328 118 322 92.5 c 0,42,43
 313 54 313 54 309 46 c 0,44,45
 286 0 286 0 230 0 c 3,46,47
 139 0 139 0 87 58 c 0,48,49
 47 104 47 104 47 152 c 3,50,51
 47 165 47 165 50 178 c 0,52,53
 56 209 56 209 78.5 236.5 c 128,-1,54
 101 264 101 264 142 281 c 1,55,-1
 142 388 l 2,56,57
 142 411 142 411 161 411 c 2,58,-1
 401 411 l 6,59,60
 411 411 411 411 417 403.5 c 132,-1,61
 423 396 423 396 423 387 c 263,62,63
 423 378 423 378 417 371 c 132,-1,64
 411 364 411 364 401 364 c 6,65,-1
 325 364 l 1,66,-1
 325 287 l 1,67,68
 412 283 412 283 477 253 c 1,69,70
 509 276 509 276 561 276 c 3,71,72
 614 276 614 276 647.5 251.5 c 128,-1,73
 681 227 681 227 697 192 c 0,74,75
 713 158 713 158 713 120 c 3,76,77
 713 79 713 79 698 48 c 1,78,-1
 784 48 l 1,79,-1
 784 386 l 2,80,81
 784 395 784 395 794.5 400.5 c 0,82,83
 805 407 805 407 817.5 406.5 c 0,84,85
 830 407 830 407 840.5 402 c 128,-1,86
 851 397 851 397 851 388 c 2,87,-1
 851 18 l 2,88,89
 851 0 851 0 831 0 c 0,90,-1
 642 0 l 2,0,1
231 49 m 2,91,92
 267 49 267 49 267 142 c 3,93,94
 267 159 267 159 266 179 c 0,95,96
 262 236 262 236 262 238 c 1,97,-1
 168 238 l 1,98,99
 122 221 122 221 106 188 c 0,100,101
 97 168 97 168 97 149 c 3,102,103
 97 136 97 136 102 122 c 0,104,105
 112 90 112 90 144 68 c 0,106,107
 170 49 170 49 209 49 c 2,108,-1
 231 49 l 2,91,92
543 57 m 0,109,110
 555 70.6326979673 555 70.6326979673 555 92 c 3,111,112
 555 119 555 119 538 149 c 0,113,114
 522 177 522 177 490 200 c 1,115,116
 462 166 462 166 462 114 c 2,117,-1
 462 106 l 2,118,119
 461.392118992 39 461.392118992 39 502 39 c 0,120,121
 526 39 526 39 543 57 c 0,109,110
193 364 m 1,122,-1
 193 288 l 1,123,-1
 262 288 l 1,124,-1
 262 364 l 1,125,-1
 193 364 l 1,122,-1
EndSplineSet
LCarets2: 2 0 0
Ligature2: "'akhn' Akhanda subtable" u11324 u1134D u11335
EndChar

StartChar: uE108
Encoding: 57608 57608 25
Width: 772
Flags: MW
AnchorPoint: "stacking" 365 0 basechar 0
LayerCount: 2
Fore
SplineSet
492 371 m 3,0,1
 469 371 469 371 474 389 c 0,2,3
 476 396 476 396 482.5 402 c 128,-1,4
 489 408 489 408 500 408 c 3,5,6
 568 408 568 408 637 324 c 24,7,8
 711 234 711 234 711 142 c 3,9,10
 711 81 711 81 648 33 c 0,11,12
 606 0 606 0 536 0 c 3,13,14
 443 0 443 0 397 65 c 1,15,16
 349 0 349 0 264 0 c 3,17,18
 202 0 202 0 159 36 c 0,19,20
 115 74 115 74 115 134 c 3,21,22
 115 147 115 147 117 161 c 1,23,-1
 39 161 l 2,24,25
 29 161 29 161 23.5 167 c 128,-1,26
 18 173 18 173 18 179.5 c 131,-1,27
 18 186 18 186 23.5 192.5 c 128,-1,28
 29 199 29 199 39 199 c 2,29,-1
 111 199 l 2,30,31
 242 199 242 199 270 241 c 0,32,33
 299 283 299 283 273.5 329 c 0,34,35
 260 354 260 354 240 363 c 0,36,37
 229 368 229 368 219 368 c 3,38,39
 210 368 210 368 200 364 c 0,40,41
 178 356 178 356 162 334 c 1,42,43
 173 336 173 336 182 336 c 0,44,45
 202 336 202 336 220 328 c 0,46,47
 242 319 242 319 242 301 c 2,48,-1
 242 299 l 2,49,50
 242 271 242 271 219.5 254.5 c 0,51,52
 191 235 191 235 142 229 c 0,53,54
 133 228 133 228 115 232 c 0,55,56
 82 239 82 239 82 266 c 3,57,58
 82 334 82 334 125 374 c 0,59,60
 167 412 167 412 221 412 c 3,61,62
 278 412 278 412 315 376 c 0,63,64
 355 337 355 337 355 270 c 3,65,66
 355 250 355 250 343 232 c 128,-1,67
 331 214 331 214 303 199 c 1,68,-1
 461 199 l 2,69,70
 471 199 471 199 476 192.5 c 0,71,72
 480 186 480 186 480.5 179.5 c 0,73,74
 480 173 480 173 474.5 167 c 128,-1,75
 469 161 469 161 459 161 c 2,76,-1
 171 161 l 1,77,78
 166 143 166 143 166 128 c 3,79,80
 166 92 166 92 191.5 66.5 c 128,-1,81
 217 41 217 41 252 41 c 0,82,83
 266 41 266 41 281 44 c 0,84,85
 339 59 339 59 370 128 c 1,86,-1
 425 128 l 1,87,88
 460 66 460 66 486 51 c 0,89,90
 509 38 509 38 533 38 c 3,91,92
 542 38 542 38 550 40 c 0,93,94
 578 46 578 46 607 74.5 c 0,95,96
 638 105 638 105 638 142 c 3,97,98
 638 223 638 223 602.5 289.5 c 0,99,100
 559 371 559 371 492 371 c 3,0,1
143 290 m 0,101,102
 141 285 141 285 140.5 280 c 0,103,104
 137.683446322 260.847434992 137.683446322 260.847434992 166.5 263.5 c 0,105,106
 188.67453505 265.645922747 188.67453505 265.645922747 188 296 c 24,107,108
 188 310 188 310 168 310 c 2,109,-1
 167 310 l 2,110,111
 151 310 151 310 143 290 c 0,101,102
EndSplineSet
LCarets2: 2 0 0
Ligature2: "'akhn' Akhanda subtable" u11326 u1134D u11327
EndChar

StartChar: uE109
Encoding: 57609 57609 26
Width: 1024
Flags: MW
AnchorPoint: "stacking" 507 -292 basechar 0
LayerCount: 2
Fore
SplineSet
287 174 m 2,0,1
 580 174 580 174 580 276 c 3,2,3
 580 293 580 293 564 312 c 0,4,5
 549 329 549 329 528 338 c 0,6,7
 506 348 506 348 482 348 c 3,8,9
 457 348 457 348 438 338 c 0,10,11
 394 315 394 315 394 250 c 2,12,-1
 394 240 l 2,13,14
 394 226 394 226 370 226 c 2,15,-1
 362 226 l 2,16,17
 352 226 352 226 340.5 232 c 0,18,19
 331 237 331 237 331 244 c 3,20,21
 331 290 331 290 310 319.5 c 0,22,23
 290 349 290 349 260 362 c 0,24,25
 237 372 237 372 214 372 c 3,26,27
 207 372 207 372 199 371 c 0,28,29
 168 367 168 367 146 344 c 1,30,31
 179 342 179 342 198 326 c 0,32,33
 231 298 231 298 231 263 c 3,34,35
 231 215 231 215 184 204 c 0,36,37
 163 199 163 199 151 199 c 3,38,39
 128 199 128 199 103 208 c 0,40,41
 48 227 48 227 48 266 c 3,42,43
 48 344 48 344 111 382 c 0,44,45
 150 405 150 405 199 405 c 3,46,47
 221 405 221 405 245 400 c 0,48,49
 321 385 321 385 364 330 c 1,50,51
 393 393 393 393 468 404 c 0,52,53
 490 407 490 407 497 407 c 3,54,55
 543 407 543 407 594 376 c 0,56,57
 657 338 657 338 657 272 c 3,58,59
 657 187 657 187 472 150 c 0,60,61
 374 130 374 130 325 130 c 2,62,63
 283 130 l 2,64,65
 205 130 205 130 159 96 c 0,66,67
 126 71 126 71 126 57.5 c 3,68,69
 126 46 126 46 151 29 c 0,70,71
 189 4 189 4 219 4 c 3,72,73
 288 4 288 4 354 55 c 0,74,-1
 376 72 l 1,75,76
 442 133 442 133 518 133 c 3,77,78
 586 133 586 133 643 86 c 1,79,-1
 643 134 l 1,80,-1
 859 134 l 6,81,82
 878 134 878 134 887.5 127.5 c 4,83,84
 896 121 896 121 896.5 112 c 4,85,86
 896 103 896 103 885 96.5 c 132,-1,87
 874 90 874 90 853 90 c 6,88,-1
 810 90 l 1,89,-1
 810 15 l 1,90,91
 868 10 868 10 904.5 -14.5 c 0,92,93
 942 -40 942 -40 956 -74 c 0,94,95
 965 -96 965 -96 965 -119 c 3,96,97
 965 -132 965 -132 962 -146 c 0,98,99
 954 -184 954 -184 924.5 -216.5 c 128,-1,100
 895 -249 895 -249 844 -270.5 c 128,-1,101
 793 -292 793 -292 720 -292 c 2,102,-1
 718 -292 l 2,103,104
 610 -292 610 -292 532 -252 c 0,105,106
 442 -206 442 -206 441 -124 c 0,107,108
 441 -121 441 -121 441 -118 c 3,109,110
 441 -111 441 -111 446.5 -107 c 0,111,112
 452 -104 452 -104 458 -104 c 3,113,114
 474 -104 474 -104 474 -119 c 3,115,116
 474 -166 474 -166 503 -193 c 128,-1,117
 532 -220 532 -220 572 -234 c 0,118,119
 632 -255 632 -255 700.5 -255 c 131,-1,120
 769 -255 769 -255 806.5 -240.5 c 128,-1,121
 844 -226 844 -226 867 -203.5 c 0,122,123
 890 -182 890 -182 898 -154 c 0,124,125
 902 -139 902 -139 902 -125 c 3,126,127
 902 -113 902 -113 899 -101 c 0,128,129
 892 -76 892 -76 870 -56 c 128,-1,130
 848 -36 848 -36 810 -28 c 1,131,-1
 810 -48 l 2,132,133
 810 -100 810 -100 802 -126 c 0,134,135
 784 -188 784 -188 724 -188 c 2,136,-1
 721 -188 l 2,137,138
 632 -188 632 -188 592 -144 c 0,139,140
 565 -114 565 -114 565 -83 c 3,141,142
 565 -70 565 -70 570 -56 c 0,143,144
 587 -3 587 -3 643 14 c 1,145,146
 638 31 638 31 616 53 c 0,147,148
 596 74 596 74 568 86 c 0,149,150
 534 101 534 101 503 101 c 3,151,152
 475 101 475 101 449 88 c 1,153,154
 485 84 485 84 502 60 c 0,155,156
 518 38 518 38 518 13 c 3,157,158
 518 -17 518 -17 496 -41 c 0,159,160
 476 -63 476 -63 438 -63 c 131,-1,161
 400 -63 400 -63 380.5 -44 c 128,-1,162
 361 -25 361 -25 356 0 c 1,163,164
 298 -36 298 -36 219 -36 c 3,165,166
 129 -36 129 -36 84 6 c 0,167,168
 67 22 67 22 60 48 c 0,169,170
 59 52 59 52 59 57 c 3,171,172
 59 76 59 76 72 94 c 0,173,174
 108 143 108 143 234 169 c 0,175,176
 258 174 258 174 275 174 c 2,177,-1
 287 174 l 2,0,1
724 -140 m 3,178,179
 751 -140 751 -140 751 -101 c 3,180,181
 749 -87.0973907295 749 -87.0973907295 749 -72 c 24,182,-1
 749 -19 l 1,183,-1
 666 -19 l 2,184,185
 632 -19 632 -19 616 -46 c 0,186,187
 605 -64 605 -64 605 -76 c 3,188,189
 605 -82 605 -82 607 -88 c 0,190,191
 613 -109 613 -109 642 -124.5 c 128,-1,192
 671 -140 671 -140 724 -140 c 3,178,179
  Spiro
    724 -140 o
    744.25 -130.25 o
    751 -101 o
    750 -86.75 o
    749 -72 ]
    749 -19 v
    666 -19 ]
    636.5 -25.75 o
    616 -46 o
    607.75 -62.5 o
    605 -76 o
    605.5 -82 o
    607 -88 o
    618.75 -107.625 o
    642 -124.5 o
    677 -136.125 o
    0 0 z
  EndSpiro
470 36.5 m 128,-1,194
 459 49 459 49 440 49 c 3,195,196
 420.5 49 420.5 49 407 40 c 0,197,198
 404 38 404 38 395 30 c 1,199,200
 389 20 389 20 389 10 c 3,201,202
 389 0.944614861863 389 0.944614861863 394 -8 c 0,203,204
 404 -28 404 -28 431.5 -28 c 131,-1,205
 459 -28 459 -28 470 -15.5 c 128,-1,206
 481 -3 481 -3 481 10.5 c 131,-1,193
 481 24 481 24 470 36.5 c 128,-1,194
  Spiro
    470 36.5 o
    457 45.875 o
    440 49 o
    422 46.75 o
    407 40 o
    402.5 36.5 o
    395 30 v
    390.5 20 o
    389 10 o
    390.75 1 o
    394 -8 o
    408.375 -23 o
    431.5 -28 o
    454.875 -24.875 o
    470 -15.5 o
    478.25 -2.75 o
    481 10.5 o
    478.25 23.75 o
    0 0 z
  EndSpiro
749 90 m 1,207,-1
 688 90 l 1,208,-1
 688 17 l 1,209,-1
 749 17 l 1,210,-1
 749 90 l 1,207,-1
  Spiro
    749 90 v
    688 90 v
    688 17 v
    749 17 v
    0 0 z
  EndSpiro
125 265 m 3,211,212
 125 252 125 252 132.5 244 c 128,-1,213
 140 236 140 236 149.5 235.5 c 128,-1,214
 159 235 159 235 168.5 240 c 0,215,216
 180 247 180 247 180 259 c 2,217,-1
 180 263 l 2,218,219
 180 279 180 279 171.5 288.5 c 128,-1,220
 163 298 163 298 152 299 c 128,-1,221
 141 300 141 300 133 291 c 128,-1,222
 125 282 125 282 125 265 c 3,211,212
  Spiro
    125 265 o
    126.875 253.25 o
    132.5 244 o
    140.5 237.875 o
    149.5 235.5 o
    159 236.375 o
    168.5 240 o
    177.125 248.25 o
    180 259 [
    180 263 ]
    177.875 277.375 o
    171.5 288.5 o
    162.375 295.875 o
    152 299 o
    141.75 297.5 o
    133 291 o
    127 280 o
    0 0 z
  EndSpiro
EndSplineSet
Position2: "Single Position lookup 0-1" dx=0 dy=0 dh=-280 dv=0
LCarets2: 2 0 0
Ligature2: "'akhn' Akhanda subtable" u1131C u1134D u1131E
EndChar

StartChar: uE10A
Encoding: 57610 57610 27
Width: 859
Flags: MW
AnchorPoint: "stacking" 427 0 basechar 0
LayerCount: 2
Fore
SplineSet
460 138 m 0,0,1
 494 138 494 138 494 194 c 0,2,3
 494 210 494 210 490 252 c 1,4,-1
 399 252 l 18,5,6
 369 252 369 252 350 224 c 0,7,8
 342 212 342 212 342 200 c 0,9,10
 342 193 342 193 345 186 c 0,11,12
 353 167 353 167 382.5 152.5 c 128,-1,13
 412 138 412 138 460 138 c 0,0,1
824 31 m 2,14,15
 824 0 824 0 804 0 c 2,16,-1
 98 0 l 2,17,18
 90 0 90 0 85.5 6.5 c 128,-1,19
 81 13 81 13 81 21 c 128,-1,20
 81 29 81 29 85.5 35.5 c 128,-1,21
 90 42 90 42 98 42 c 2,22,-1
 425 42 l 1,23,24
 641 58 641 58 641 166 c 0,25,26
 641 193 641 193 618 217 c 128,-1,27
 595 241 595 241 552 249 c 1,28,-1
 557 188 l 2,29,30
 558 172 558 172 550 143 c 0,31,32
 532 83 532 83 465.5 83 c 128,-1,33
 399 83 399 83 360 108 c 0,34,35
 302 145 302 145 302 202.58974359 c 128,-1,36
 302 260 302 260 365 287 c 1,37,38
 351 319 351 319 318.5 339 c 128,-1,39
 286 359 286 359 253 359 c 2,40,-1
 242 359 l 1,41,42
 159 354 159 354 121 297 c 1,43,44
 129 298 129 298 136 298 c 0,45,46
 172 298 172 298 201 281 c 0,47,48
 240 258 240 258 240 219.5 c 128,-1,49
 240 181 240 181 208.5 160 c 128,-1,50
 177 139 177 139 146.5 139 c 0,51,52
 92 139 92 139 61.5 160.5 c 128,-1,53
 31 182 31 182 31 220 c 0,54,55
 31 323 31 323 108 361 c 1,56,57
 167 396 167 396 227 396 c 0,58,59
 330 396 330 396 374 348 c 1,60,-1
 374 411 l 1,61,-1
 615 411 l 6,62,63
 626 411 626 411 631.5 404.5 c 132,-1,64
 637 398 637 398 637 391 c 132,-1,65
 637 384 637 384 631.5 378 c 132,-1,66
 626 372 626 372 615 372 c 6,67,-1
 552 372 l 1,68,-1
 552 295 l 1,69,70
 616 285 616 285 659 247 c 128,-1,71
 702 209 702 209 702 166 c 0,72,73
 702 77 702 77 602 42 c 1,74,-1
 764 42 l 1,75,-1
 764 391 l 2,76,77
 764 401 764 401 772.994793925 407.25 c 0,78,79
 782 414 782 414 794 413.5 c 0,80,81
 824 414 824 414 824 393 c 2,82,-1
 824 31 l 2,14,15
190 216 m 1,83,-1
 190 219 l 1,84,85
 189 241 189 241 174 251 c 0,86,87
 160 260 160 260 140 260 c 0,88,89
 121.972243623 260 121.972243623 260 107 248 c 0,90,91
 92 237 92 237 92 217.5 c 128,-1,92
 92 198 92 198 107 187 c 0,93,94
 122 175 122 175 140 175 c 0,95,96
 159 175 159 175 174 185 c 128,-1,97
 189 195 189 195 190 216 c 1,83,-1
423 372 m 1,98,-1
 423 297 l 1,99,-1
 490 297 l 1,100,-1
 490 372 l 1,101,-1
 423 372 l 1,98,-1
EndSplineSet
LCarets2: 2 0 0
Ligature2: "'akhn' Akhanda subtable" u1131E u1134D u1131A
EndChar

StartChar: uE10B
Encoding: 57611 57611 28
Width: 768
Flags: MW
AnchorPoint: "stacking" 378 -205 basechar 0
LayerCount: 2
Fore
SplineSet
108 244 m 128,-1,1
 94 232 94 232 94 207 c 131,-1,2
 94 182 94 182 108 170 c 128,-1,3
 122 158 122 158 138 158 c 131,-1,4
 154 158 154 158 168 170 c 128,-1,5
 182 182 182 182 182 206 c 3,6,7
 182 232 182 232 168.5 244 c 128,-1,8
 155 256 155 256 138.5 256 c 131,-1,0
 122 256 122 256 108 244 c 128,-1,1
628 147 m 3,9,10
 628 181 628 181 615.5 202 c 128,-1,11
 603 223 603 223 585 230 c 0,12,13
 577 233 577 233 569 233 c 3,14,15
 559 233 559 233 548 228 c 0,16,17
 529 220 529 220 516 195 c 1,18,-1
 516 177 l 2,19,20
 516 166 516 166 504.5 160.5 c 128,-1,21
 493 155 493 155 478.5 155 c 131,-1,22
 464 155 464 155 452 160.5 c 128,-1,23
 440 166 440 166 440 177 c 2,24,-1
 440 365 l 1,25,-1
 357 365 l 1,26,-1
 357 142 l 2,27,28
 357 129 357 129 332 129 c 3,29,30
 297 129 297 129 297 144 c 2,31,-1
 297 172 l 2,32,33
 297 273 297 273 240 330 c 0,34,35
 216 354 216 354 189 362 c 0,36,37
 174 367 174 367 159 366 c 0,38,39
 147 366 147 366 137 363 c 0,40,41
 113 356 113 356 96.5 334.5 c 128,-1,42
 80 313 80 313 79 279 c 1,43,44
 103 293 103 293 135 293 c 3,45,46
 159 293 159 293 184 284 c 0,47,48
 209 274 209 274 226.5 254 c 128,-1,49
 244 234 244 234 244 206 c 3,50,51
 244 154 244 154 190 132 c 0,52,53
 164 121 164 121 138 121 c 3,54,55
 114 121 114 121 90 129 c 0,56,57
 64.9577464789 137.049295775 64.9577464789 137.049295775 49.9788732394 156.524647887 c 128,-1,58
 35 176 35 176 30 206 c 0,59,60
 26 225.272727273 26 225.272727273 26 257 c 3,61,62
 26 331 26 331 62 372 c 0,63,64
 95 410 95 410 146 410 c 3,65,66
 160 410 160 410 176 407 c 0,67,68
 245 394 245 394 297 336 c 1,69,-1
 297 392 l 2,70,71
 297 401 297 401 309 404 c 1,72,73
 316 413 316 413 327 413 c 2,74,-1
 594 413 l 6,75,76
 603 413 603 413 608 405 c 132,-1,77
 613 397 613 397 613 388.5 c 135,-1,78
 613 380 613 380 608 372.5 c 132,-1,79
 603 365 603 365 594 365 c 6,80,-1
 516 365 l 1,81,-1
 516 261 l 1,82,83
 545 274 545 274 574 274 c 3,84,85
 608 274 608 274 640 258 c 0,86,87
 668 244 668 244 686.5 215.5 c 128,-1,88
 705 187 705 187 705 147 c 3,89,90
 705 101 705 101 628 63 c 0,91,92
 507 2 507 2 324 2 c 3,93,94
 262 2 262 2 182 -45 c 0,95,96
 133 -74 133 -74 133 -100 c 3,97,98
 133 -119 133 -119 161 -132 c 0,99,100
 191 -146 191 -146 257 -146 c 3,101,102
 322 -146 322 -146 392 -94 c 0,103,104
 423 -71 423 -71 425 -68 c 0,105,106
 500 -3 500 -3 583 -3 c 3,107,108
 602 -3 602 -3 620 -6 c 0,109,110
 684 -16 684 -16 716 -58 c 0,111,112
 732 -78 732 -78 732 -105 c 3,113,114
 732 -136 732 -136 700 -160.5 c 128,-1,115
 668 -185 668 -185 639 -194 c 0,116,117
 605 -205 605 -205 572 -205 c 3,118,119
 514 -205 514 -205 500 -188.5 c 0,120,121
 494 -181 494 -181 494 -173 c 131,-1,122
 494 -165 494 -165 501.5 -158 c 0,123,124
 513.017857143 -147.25 513.017857143 -147.25 524 -151 c 24,125,126
 565 -165 565 -165 576 -165 c 3,127,128
 594 -165 594 -165 612 -158 c 0,129,130
 651 -144 651 -144 662 -103 c 24,131,132
 665 -92 665 -92 653 -75 c 128,-1,133
 641 -58 641 -58 622 -52 c 0,134,135
 607 -47 607 -47 591 -47 c 3,136,137
 558 -47 558 -47 498 -79 c 2,138,-1
 468 -95 l 1,139,140
 446 -113 446 -113 423.5 -132.5 c 128,-1,141
 401 -152 401 -152 376 -168 c 0,142,143
 317 -205 317 -205 260 -205 c 2,144,-1
 244 -205 l 2,145,146
 193 -205 193 -205 160 -194 c 0,147,148
 118 -180 118 -180 95 -156 c 0,149,150
 70 -130 70 -130 70 -100 c 3,151,152
 70 -74 70 -74 90 -46 c 0,153,154
 152 40 152 40 334 40 c 3,155,156
 520 40 520 40 602 110 c 0,157,158
 628 132 628 132 628 147 c 3,9,10
EndSplineSet
LCarets2: 2 0 0
Ligature2: "'akhn' Akhanda subtable" u1131E u1134D u1131C
EndChar

StartChar: uE10C
Encoding: 57612 57612 29
Width: 1050
Flags: MW
AnchorPoint: "stacking" 515 -119 basechar 0
LayerCount: 2
Fore
SplineSet
411 122 m 0,0,1
 411 79 411 79 427 65.5 c 0,2,3
 441.988101979 52.5 441.988101979 52.5 452.5 52.5 c 131,-1,4
 463.011898021 52.5 463.011898021 52.5 469 71 c 0,5,6
 475 90 475 90 475 97 c 2,7,-1
 475 114 l 2,8,9
 475 130 475 130 472 146 c 0,10,11
 461 204 461 204 440 204 c 0,12,13
 411 204 411 204 411 122 c 0,0,1
162 206 m 1,14,15
 73 164.678571429 73 164.678571429 73 107 c 2,16,-1
 73 100 l 2,17,18
 73 76 73 76 93 61.5 c 128,-1,19
 113 47 113 47 132.5 47 c 128,-1,20
 152 47 152 47 162 63 c 128,-1,21
 172 79 172 79 172 96.5 c 128,-1,22
 172 114 172 114 170 130 c 1,23,-1
 170 148 l 2,24,25
 170 161 170 161 196 161 c 128,-1,26
 222 161 222 161 225 152 c 0,27,28
 241 80 241 80 248.5 68 c 128,-1,29
 256 56 256 56 264.5 56 c 128,-1,30
 273 56 273 56 273 91 c 2,31,-1
 273 103 l 1,32,33
 272 149 272 149 269 171 c 26,34,-1
 265 206 l 1,35,-1
 162 206 l 1,14,15
183 356 m 1,36,-1
 183 251 l 1,37,-1
 265 251 l 1,38,-1
 265 356 l 1,39,-1
 183 356 l 1,36,-1
784 352 m 128,-1,41
 766 352 766 352 752 335.5 c 128,-1,42
 738 319 738 319 738 291.5 c 128,-1,43
 738 264 738 264 764 250.5 c 128,-1,44
 790 237 790 237 824 236 c 1,45,-1
 824 285 l 2,46,47
 824 318 824 318 813 335 c 128,-1,40
 802 352 802 352 784 352 c 128,-1,41
931 211 m 1,48,-1
 899 204 l 1,49,-1
 899 45 l 1,50,-1
 931 45 l 1,51,-1
 931 211 l 1,48,-1
580 0 m 2,52,53
 537 0 537 0 537 26 c 0,54,55
 537 36 537 36 549 43 c 0,56,57
 581 59 581 59 595.5 81.5 c 128,-1,58
 610 104 610 104 610 117 c 128,-1,59
 610 130 610 130 609 134 c 0,60,61
 605 158 605 158 578 177.5 c 128,-1,62
 551 197 551 197 496 203 c 1,63,64
 511 167 511 167 511 136.5 c 0,65,66
 511 26 511 26 468 4 c 0,67,68
 460 0 460 0 451 0 c 0,69,70
 422 -0 422 -0 398.25 36 c 0,71,72
 371 78 371 78 370.5 123.25 c 0,73,74
 370 152 370 152 386 206 c 1,75,-1
 337 206 l 1,76,-1
 337 150 l 2,77,78
 337 103 337 103 324.5 66.5 c 128,-1,79
 312 30 312 30 295 15 c 128,-1,80
 278 0 278 0 261 0 c 0,81,82
 228 0 228 0 204 52 c 1,83,84
 188 12 188 12 160 4 c 0,85,86
 146 0 146 0 132.5 0 c 0,87,88
 90 -0 90 -0 52 43 c 0,89,90
 24 75 24 75 24 104 c 2,91,-1
 24 115 l 2,92,93
 24 190 24 190 122 241 c 1,94,-1
 122 376 l 1,95,-1
 126 385 l 2,96,97
 134 402 134 402 152 402 c 2,98,-1
 405 402 l 6,99,100
 419 402 419 402 425 394 c 132,-1,101
 431 386 431 386 431 378 c 132,-1,102
 431 370 431 370 423 363 c 132,-1,103
 415 356 415 356 404 356 c 6,104,-1
 337 356 l 1,105,-1
 337 251 l 1,106,-1
 450 251 l 2,107,108
 522 251 522 251 573.5 226 c 128,-1,109
 625 201 625 201 638 174 c 0,110,111
 657 136 657 136 657 117 c 0,112,113
 657 79 657 79 632 45 c 1,114,-1
 824 45 l 1,115,-1
 824 198 l 1,116,117
 730 201 730 201 694 249 c 0,118,119
 682 265 682 265 682 294 c 128,-1,120
 682 323 682 323 698 348.5 c 0,121,122
 733 405 733 405 790 405 c 0,123,124
 818 405 818 405 839 394 c 0,125,126
 899 363 899 363 899 265 c 2,127,-1
 899 246 l 1,128,129
 913 251 913 251 931 263 c 1,130,131
 934 290 934 290 970 291.5 c 0,132,133
 981 292 981 292 993.5 283.25 c 0,134,135
 1006 275 1006 275 1006 262 c 2,136,-1
 1006 23 l 2,137,138
 1006 15 1006 15 996 7.5 c 128,-1,139
 986 0 986 0 968 0 c 2,140,-1
 899 0 l 1,141,-1
 899 -93 l 2,142,143
 899 -105 899 -105 887.5 -111.5 c 128,-1,144
 876 -118 876 -118 862 -118 c 128,-1,145
 848 -118 848 -118 836 -111.5 c 128,-1,146
 824 -105 824 -105 824 -93 c 2,147,-1
 824 0 l 1,148,-1
 580 0 l 2,52,53
EndSplineSet
LCarets2: 2 0 0
Ligature2: "'akhn' Akhanda subtable" u11315 u1134D u11337
EndChar

StartChar: uE10D
Encoding: 57613 57613 30
Width: 653
Flags: MW
AnchorPoint: "stacking" 338 -121 basechar 0
LayerCount: 2
Fore
SplineSet
616 24 m 3,0,1
 616 0 616 0 598 0 c 2,2,-1
 452 0 l 1,3,-1
 452 -97 l 2,4,5
 452 -108 452 -108 440.5 -114.5 c 128,-1,6
 429 -121 429 -121 416 -121 c 131,-1,7
 403 -121 403 -121 391.5 -114.5 c 128,-1,8
 380 -108 380 -108 380 -97 c 6,9,-1
 380 0 l 1,10,-1
 199 0 l 2,11,12
 178 0 178 0 178.5 18.5 c 0,13,14
 179 47 179 47 197 47 c 2,15,-1
 215 47 l 2,16,17
 349 47 349 47 400 115 c 0,18,19
 419 140 419 140 419 175 c 3,20,21
 419 198 419 198 398.157013866 213.780995378 c 0,22,23
 365 239 365 239 333.485306817 239 c 3,24,25
 318 239 318 239 302 232 c 0,26,27
 272 221 272 221 272 186 c 2,28,-1
 272 157.939731992 l 2,29,30
 272 145 272 145 259.5 140.5 c 0,31,32
 251 137 251 137 234.5 136.5 c 0,33,34
 224 136 224 136 210.5 145 c 0,35,36
 200 152 200 152 200 163 c 2,37,-1
 200 366 l 1,38,-1
 118 366 l 1,39,-1
 118 16 l 2,40,41
 118 0 118 0 90 0 c 128,-1,42
 62 0 62 0 62 16 c 2,43,-1
 62 387 l 2,44,45
 62 397 62 397 75 402 c 1,46,47
 82 411 82 411 93 411 c 2,48,-1
 346 411 l 2,49,50
 356 411 356 411 361.5 403.5 c 128,-1,51
 367 396 367 396 367 388 c 128,-1,52
 367 380 367 380 361.5 373 c 128,-1,53
 356 366 356 366 346 366 c 2,54,-1
 272 366 l 1,55,-1
 272 269 l 1,56,57
 300 280 300 280 334 280 c 2,58,-1
 342 280 l 2,59,60
 375 280 375 280 412 264.5 c 0,61,62
 444 251 444 251 466 228 c 128,-1,63
 488 205 488 205 488 175 c 3,64,65
 488 96 488 96 411 47 c 1,66,-1
 598 47 l 2,67,68
 616 47 616 47 616 24 c 3,0,1
EndSplineSet
Position2: "Single Position lookup 0-1" dx=0 dy=0 dh=-160 dv=0
LCarets2: 2 0 0
Ligature2: "'akhn' Akhanda subtable" u11328 u1134D u11326
EndChar

StartChar: uE10E
Encoding: 57614 57614 31
Width: 982
Flags: MW
AnchorPoint: "stacking" 490 -107 basechar 0
LayerCount: 2
Fore
SplineSet
117 242.5 m 128,-1,1
 104 231 104 231 104 206 c 131,-1,2
 104 181 104 181 117 166.5 c 128,-1,3
 130 152 130 152 146 150 c 2,4,5
 150 150 l 2,6,7
 164 150 164 150 175 162 c 0,8,9
 188 176 188 176 188 203.5 c 131,-1,10
 188 231 188 231 175 242.5 c 128,-1,11
 162 254 162 254 146 254 c 131,-1,0
 130 254 130 254 117 242.5 c 128,-1,1
246 110 m 0,12,13
 245 116 245 116 245 121 c 3,14,15
 245 140 245 140 264 144 c 0,16,17
 273 146 273 146 289 162 c 0,18,19
 318 192 318 192 318 237 c 3,20,21
 318 273 318 273 291.5 308.5 c 0,22,23
 271 336 271 336 237 346 c 0,24,25
 227 349 227 349 217 349 c 3,26,27
 196 349 196 349 173 340 c 0,28,29
 140 326 140 326 122 289 c 1,30,31
 134 292 134 292 146 292 c 3,32,33
 175 292 175 292 204 276 c 0,34,35
 244 254 244 254 244 213 c 131,-1,36
 244 172 244 172 229 150 c 0,37,38
 203 113 203 113 157 113 c 2,39,-1
 148 113 l 2,40,41
 100 113 100 113 65 160 c 0,42,43
 48 183 48 183 48 202.5 c 3,44,45
 48 313 48 313 100.5 362 c 0,46,47
 151 409 151 409 218.5 409 c 131,-1,48
 286 409 286 409 336 364 c 0,49,50
 360 343 360 343 376 304 c 128,-1,51
 392 265 392 265 392 224 c 3,52,53
 392 176 392 176 354 144 c 1,54,-1
 508 144 l 1,55,-1
 508 312 l 2,56,57
 508 343 508 343 525 366.5 c 0,58,59
 543 392 543 392 572 401 c 256,60,61
 591 407 591 407 604 407 c 3,62,63
 618 407 618 407 631 402 c 0,64,65
 660 392 660 392 680 362 c 1,66,67
 724 410 724 410 784 410 c 2,68,-1
 792 410 l 2,69,70
 850 410 850 410 893 366 c 0,71,72
 931 327 931 327 931 245 c 3,73,74
 931 227 931 227 929 208 c 0,75,76
 923.096514408 144.242355606 923.096514408 144.242355606 862 99 c 24,77,78
 766 28 766 28 766 -12 c 3,79,80
 766 -26 766 -26 774 -39 c 0,81,82
 794 -72 794 -72 823 -72 c 3,83,84
 837 -72 837 -72 854 -64 c 0,85,86
 867 -58 867 -58 867 -45 c 3,87,88
 867 -28 867 -28 842 1 c 1,89,90
 842 4 842 4 842 7 c 0,91,92
 842 34 842 34 850 37 c 0,93,94
 858 39 858 39 865 39 c 3,95,96
 887 39 887 39 906 16 c 0,97,98
 922 -3 922 -3 922 -23 c 3,99,100
 922 -35 922 -35 916 -46 c 0,101,102
 895 -89 895 -89 844 -103 c 0,103,104
 829 -107 829 -107 813 -107 c 3,105,106
 777 -107 777 -107 740 -87 c 1,107,108
 706 -62 706 -62 706 -29 c 3,109,110
 706 8 706 8 722 28 c 26,111,-1
 798 124 l 2,112,113
 850 189.684210526 850 189.684210526 850 212 c 3,114,115
 850 280 850 280 830 315.5 c 0,116,117
 808.613518198 354.530329289 808.613518198 354.530329289 784 360 c 0,118,119
 775 362 775 362 766 362 c 3,120,121
 748.263157895 362 748.263157895 362 733 352 c 0,122,123
 704 331 704 331 704 277 c 2,124,-1
 704 120 l 2,125,126
 704 109 704 109 693 102.5 c 128,-1,127
 682 96 682 96 669 96 c 131,-1,128
 656 96 656 96 644.041992188 102.476074219 c 128,-1,129
 632 109 632 109 632 120 c 2,130,-1
 632 263 l 2,131,132
 632 292 632 292 621 310 c 0,133,134
 606 334 606 334 591 334 c 3,135,136
 580.3 334 580.3 334 574 327 c 24,137,138
 565 317 565 317 564 304 c 24,139,-1
 564 118 l 2,140,141
 564 96 564 96 532 96 c 2,142,-1
 257 96 l 0,143,144
 249 96 249 96 246 110 c 0,12,13
EndSplineSet
LCarets2: 2 0 0
Ligature2: "'akhn' Akhanda subtable" u11339 u1134D u1132E
EndChar

StartChar: uE10F
Encoding: 57615 57615 32
Width: 803
Flags: MW
AnchorPoint: "stacking" 400 -153 basechar 0
LayerCount: 2
Fore
SplineSet
535 190 m 1,0,1
 537 171 537 171 538 143 c 0,2,3
 538 118 538 118 530 92 c 0,4,5
 520 62 520 62 509 49 c 0,6,7
 489 26 489 26 481 20 c 0,8,9
 458 1 458 1 420 0 c 0,10,11
 341 0 341 0 304.5 21.5 c 128,-1,12
 268 43 268 43 242.5 66 c 128,-1,13
 217 89 217 89 210 120 c 0,14,15
 205 140 205 140 205 155 c 3,16,17
 205 162 205 162 206 168 c 0,18,19
 213 202 213 202 314 240 c 1,20,-1
 314 355 l 2,21,22
 314 380 314 380 337 380 c 2,23,-1
 608 380 l 6,24,25
 620 380 620 380 627 372 c 132,-1,26
 634 364 634 364 634 354 c 263,27,28
 634 344 634 344 627 336.5 c 132,-1,29
 620 329 620 329 608 329 c 6,30,-1
 534 329 l 1,31,-1
 534 244 l 1,32,-1
 761 244 l 1,33,-1
 761 190 l 1,34,-1
 706 190 l 1,35,-1
 706 12 l 2,36,37
 706 -50 706 -50 616 -103 c 0,38,39
 530 -153 530 -153 438 -153 c 2,40,-1
 427 -153 l 2,41,42
 336 -153 336 -153 208 -89 c 0,43,44
 192 -81 192 -81 80 21 c 0,45,46
 57 42 57 42 44 67 c 0,47,48
 31 91 31 91 44 96 c 0,49,50
 49 98 49 98 54 99 c 0,51,52
 65 99 65 99 80 89 c 1,53,-1
 210 -27 l 1,54,55
 302 -83 302 -83 370 -89 c 0,56,57
 393 -91 393 -91 414 -92 c 0,58,59
 506 -92 506 -92 562 -61 c 0,60,61
 638 -18 638 -18 638 44 c 2,62,-1
 638 190 l 1,63,-1
 535 190 l 1,0,1
419 78 m 0,64,65
 463 102 463 102 463 145 c 3,66,67
 463 151 463 151 461.5 168.5 c 128,-1,68
 460 186 460 186 460 190 c 1,69,-1
 346 190 l 2,70,71
 290 190 290 190 277 162 c 0,72,73
 275 156 275 156 275 143 c 3,74,75
 275 133 275 133 284 117 c 0,76,77
 290 108 290 108 316 91 c 0,78,79
 346 71 346 71 362 71 c 3,80,81
 405 71 405 71 419 78 c 0,64,65
376 329 m 1,82,-1
 376 245 l 1,83,-1
 458 245 l 1,84,-1
 458 329 l 1,85,-1
 376 329 l 1,82,-1
EndSplineSet
LCarets2: 1 0
Ligature2: "'vatu' Vattu Variants subtable" u11324 uE205
EndChar

StartChar: uE110
Encoding: 57616 57616 33
Width: 912
Flags: MW
AnchorPoint: "stacking" 423 -178 basechar 0
LayerCount: 2
Fore
SplineSet
498 113 m 2,0,1
 498 83 498 83 517 68 c 0,2,3
 533 52 533 52 553 52 c 3,4,5
 569 52 569 52 583 64 c 0,6,7
 602 77 602 77 602 101 c 2,8,-1
 602 361 l 1,9,-1
 498 361 l 1,10,-1
 498 113 l 2,0,1
37 -64 m 0,11,12
 10 -26 10 -26 10 -17 c 0,13,14
 10 -12.8488372093 10 -12.8488372093 13 -14 c 2,15,-1
 56 -30.5 l 2,16,17
 86 -42 86 -42 104 -48 c 0,18,19
 261 -103 261 -103 283 -107 c 0,20,21
 367 -122 367 -122 439 -122 c 3,22,23
 576 -122 576 -122 674 -64 c 0,24,25
 731 -30 731 -30 731 22 c 2,26,-1
 731 361 l 1,27,-1
 671 361 l 1,28,-1
 671 98 l 2,29,30
 671 33 671 33 602 10 c 0,31,32
 571 0 571 0 557 0 c 3,33,34
 524 0 524 0 491 22 c 0,35,36
 444 54 444 54 444 122 c 2,37,-1
 444 361 l 1,38,-1
 402 361 l 2,39,40
 368 361 368 361 354 348.5 c 0,41,42
 341 337 341 337 337 311 c 0,43,44
 336 304 336 304 336 275 c 2,45,-1
 336 134 l 2,46,47
 336 92 336 92 315.5 60.5 c 0,48,49
 296 31 296 31 268 16 c 0,50,51
 239 0 239 0 207 0 c 3,52,53
 177 0 177 0 147 15 c 0,54,55
 82 48 82 48 82 130 c 2,56,-1
 82 387 l 2,57,58
 82 395 82 395 89 399.5 c 128,-1,59
 96 404 96 404 105.5 404 c 131,-1,60
 115 404 115 404 123.5 399.5 c 128,-1,61
 132 395 132 395 132 387 c 2,62,-1
 132 134 l 2,63,64
 132 91 132 91 155 70.5 c 128,-1,65
 178 50 178 50 206 50 c 131,-1,66
 234 50 234 50 255 70 c 0,67,68
 273 88 273 88 273 123 c 2,69,-1
 273 261 l 2,70,71
 273 309 273 309 282 338 c 0,72,73
 293 372 293 372 320.5 390 c 0,74,75
 350 409 350 409 405 409 c 2,76,-1
 855 409 l 2,77,78
 862 409 862 409 871.5 398.5 c 128,-1,79
 881 388 881 388 872.545898438 374.072265625 c 128,-1,80
 864 360 864 360 859 360 c 2,81,-1
 782 360 l 1,82,-1
 782 -3 l 2,83,84
 782 -75 782 -75 647 -142 c 0,85,86
 575 -178 575 -178 461 -178 c 2,87,-1
 428 -178 l 2,88,89
 322 -178 322 -178 245 -155 c 0,90,91
 157 -129 157 -129 51 -76 c 0,92,93
 43 -72 43 -72 37 -64 c 0,11,12
EndSplineSet
LCarets2: 1 0
Ligature2: "'vatu' Vattu Variants subtable" u11336 uE205
EndChar

StartChar: uE111
Encoding: 57617 57617 34
Width: 890
Flags: MW
AnchorPoint: "stacking" 461 0 basechar 0
LayerCount: 2
Fore
SplineSet
138 16 m 2,0,1
 138 0 138 0 110 0 c 128,-1,2
 82 0 82 0 82 16 c 2,3,-1
 82 386 l 2,4,5
 82 396 82 396 95 401 c 1,6,7
 101 409 101 409 113 410 c 1,8,-1
 366 410 l 2,9,10
 376 410 376 410 381.5 402.5 c 128,-1,11
 387 395 387 395 387 387 c 259,12,13
 387 379 387 379 381.5 372 c 128,-1,14
 376 365 376 365 366 365 c 2,15,-1
 292 365 l 1,16,-1
 292 268 l 1,17,18
 319 278 319 278 351 278 c 2,19,20
 362 278 l 2,21,22
 456 278 456 278 487 226 c 24,23,24
 499 206 499 206 499 167 c 3,25,26
 499 141 499 141 491 124 c 24,27,28
 477 95 477 95 477 79 c 3,29,30
 477 57 477 57 488 46 c 0,31,32
 493 41 493 41 504 41 c 3,33,34
 506 41 506 41 523 43 c 24,35,36
 536 45 536 45 550 54 c 0,37,38
 590 81 590 81 590 120 c 2,39,40
 590 126 l 2,41,42
 590 162 590 162 571 181 c 0,43,44
 568 184 568 184 583 196.5 c 128,-1,45
 598 209 598 209 609 204 c 0,46,47
 627 194 627 194 640 165 c 0,48,49
 649 144 649 144 657.5 118.5 c 0,50,51
 671 77 671 77 677 69 c 0,52,53
 700 43 700 43 726 43 c 3,54,55
 751 43 751 43 769 72 c 0,56,57
 784 95 784 95 784 138 c 3,58,59
 784 163 784 163 778 192 c 24,60,61
 770 232 770 232 736 248 c 0,62,63
 722 255 722 255 703 255 c 3,64,65
 682 255 682 255 670 258 c 24,66,67
 651 263 651 263 661.5 280.5 c 0,68,69
 670 295 670 295 693 295 c 3,70,71
 742 295 742 295 793 254 c 0,72,73
 839 217 839 217 840 137 c 0,74,75
 840 127 840 127 839 118 c 0,76,77
 834 77 834 77 819 54 c 24,78,79
 796 18 796 18 758 5 c 0,80,81
 743 0 743 0 729 0 c 3,82,83
 708 0 708 0 685 10 c 0,84,85
 647 26 647 26 621 66 c 1,86,87
 604 38 604 38 578 19.5 c 0,88,89
 551 0 551 0 520 0 c 2,90,-1
 513 0 l 2,91,92
 468 0 468 0 446 14 c 0,93,94
 422 29 422 29 413 57 c 0,95,96
 410 66 410 66 410 75 c 3,97,98
 410 95 410 95 426 116 c 0,99,100
 440 135 440 135 440 164 c 3,101,102
 440 196 440 196 418 214 c 0,103,104
 398 230 398 230 372 236 c 0,105,106
 364 238 364 238 355 238 c 3,107,108
 341 238 341 238 322 230 c 0,109,110
 292 218 292 218 292 185 c 26,111,-1
 292 122 l 2,112,113
 292 108 292 108 279.5 104.5 c 0,114,115
 268 101 268 101 254.5 100.5 c 0,116,117
 241 101 241 101 230.5 109 c 0,118,119
 220 116 220 116 220 127 c 2,120,-1
 220 365 l 1,121,-1
 138 365 l 1,122,-1
 138 16 l 2,0,1
EndSplineSet
Position2: "Single Position lookup 0-1" dx=0 dy=0 dh=-410 dv=0
LCarets2: 2 0 0
Ligature2: "'akhn' Akhanda subtable" u11328 u1134D u11327
EndChar

StartChar: uE112
Encoding: 57618 57618 35
Width: 659
Flags: MW
AnchorPoint: "stacking" 330 0 basechar 0
LayerCount: 2
Fore
SplineSet
85 0 m 128,-1,1
 57 0 57 0 57 16 c 2,2,-1
 57 384 l 2,3,4
 57 394 57 394 70 399 c 1,5,6
 76 407 76 407 88 408 c 1,7,-1
 341 408 l 2,8,9
 351 408 351 408 356.5 400.5 c 128,-1,10
 362 393 362 393 362 385 c 131,-1,11
 362 377 362 377 356.5 370 c 128,-1,12
 351 363 351 363 341 363 c 2,13,-1
 267 363 l 1,14,-1
 267 271 l 1,15,16
 299 282 299 282 330 282 c 3,17,18
 363 282 363 282 403.5 266.5 c 0,19,20
 439 253 439 253 460.5 225 c 128,-1,21
 482 197 482 197 482 167 c 3,22,23
 482 95 482 95 406 49 c 1,24,-1
 550 49 l 1,25,-1
 550 258 l 2,26,27
 550 283 550 283 575 283 c 3,28,29
 603 283 603 283 603 262 c 2,30,-1
 603 0 l 1,31,-1
 194 0 l 2,32,33
 176 0 176 0 175 22 c 0,34,35
 175 49 175 49 192 49 c 2,36,-1
 210 49 l 2,37,38
 341 49 341 49 395 117 c 0,39,40
 412 138 412 138 412 165 c 3,41,42
 412 188 412 188 392.5 211 c 0,43,44
 373 233 373 233 347 239 c 0,45,46
 339 241 339 241 330 241 c 3,47,48
 318 241 318 241 298 233 c 0,49,50
 267 221 267 221 267 188 c 2,51,-1
 267 160 l 2,52,53
 267 148 267 148 254.5 142.5 c 0,54,55
 246 139 246 139 229.5 138.5 c 0,56,57
 219 138 219 138 205.5 147 c 0,58,59
 195 154 195 154 195 165 c 2,60,-1
 195 363 l 1,61,-1
 113 363 l 1,62,-1
 113 16 l 2,63,0
 113 0 113 0 85 0 c 128,-1,1
EndSplineSet
Position2: "Single Position lookup 0-1" dx=0 dy=0 dh=-240 dv=0
LCarets2: 2 0 0
Ligature2: "'akhn' Akhanda subtable" u11328 u1134D u11335
EndChar

StartChar: uE113
Encoding: 57619 57619 36
Width: 834
Flags: MW
AnchorPoint: "stacking" 417 -178 basechar 0
LayerCount: 2
Fore
SplineSet
547 147 m 3,0,1
 547 152 547 152 546 168 c 2,2,-1
 543 216 l 1,3,-1
 433 216 l 2,4,5
 432 216 432 216 405 167 c 0,6,7
 398 154 398 154 398 143 c 27,8,9
 398 117 398 117 408 99 c 24,10,11
 425 67 425 67 443 60 c 0,12,13
 450 57 450 57 464 57 c 3,14,15
 485 57 485 57 503 61 c 24,16,17
 547 71 547 71 547 147 c 3,0,1
463 357 m 1,18,-1
 463 266 l 1,19,-1
 543 266 l 1,20,-1
 543 357 l 1,21,-1
 463 357 l 1,18,-1
376 379 m 7,22,23
 376 355 376 355 340 355 c 6,24,-1
 306 355 l 1,25,-1
 306 266 l 1,26,-1
 405 266 l 1,27,-1
 405 383 l 2,28,29
 405 392 405 392 418 398 c 0,30,31
 432 404 432 404 445 404 c 2,32,-1
 672 404 l 2,33,34
 689 404 689 404 698 396 c 0,35,36
 708 388 708 388 708 378 c 3,37,38
 708 370 708 370 702 364 c 0,39,40
 695 357 695 357 680 357 c 2,41,-1
 617 357 l 1,42,-1
 617 266 l 1,43,44
 633 266 l 2,45,46
 714 266 714 266 747 219 c 0,47,48
 794 152 794 152 794 91 c 3,49,50
 794 -42 794 -42 697 -71 c 0,51,52
 660 -82 660 -82 579 -82 c 2,53,54
 408 -82 l 2,55,56
 320 -82 320 -82 310 -93 c 0,57,58
 308 -95 308 -95 308 -99 c 3,59,60
 308 -111 308 -111 333 -130 c 0,61,62
 341 -136 341 -136 341 -145 c 3,63,64
 341 -152 341 -152 328 -167 c 0,65,66
 318 -178 318 -178 306 -178 c 0,67,68
 304 -178 304 -178 284 -173 c 0,69,70
 266 -168 266 -168 258 -151 c 0,71,72
 249 -131 249 -131 249 -110 c 3,73,74
 249 -104 249 -104 251 -96 c 0,75,76
 256 -81 256 -81 270 -70 c 0,77,78
 308 -40 308 -40 409 -40 c 2,79,-1
 545 -40 l 2,80,81
 690 -40 690 -40 717 0 c 0,82,83
 734 25 734 25 734 73 c 2,84,-1
 734 108 l 2,85,86
 734 151 734 151 704 183 c 0,87,88
 692 196 692 196 668 208 c 0,89,90
 651 216 651 216 623 216 c 2,91,-1
 617 216 l 1,92,93
 622 173 622 173 622 138 c 3,94,95
 622 57 622 57 579 23 c 0,96,97
 550 0 550 0 504 0 c 3,98,99
 428 0 428 0 417 7 c 0,100,101
 349 52 349 52 349 103 c 3,102,103
 349 201 349 201 383 216 c 1,104,-1
 306 216 l 1,105,-1
 306 151 l 2,106,107
 306 25 306 25 264 4 c 0,108,109
 256 0 256 0 247 0 c 3,110,111
 236 0 236 0 226 4 c 0,112,113
 205 14 205 14 193 35 c 1,114,115
 178 0 178 0 148 0 c 3,116,117
 98 0 98 0 60 62 c 0,118,119
 41 94 41 94 41 129 c 2,120,-1
 41 138 l 2,121,122
 41 216 41 216 129 257 c 1,123,-1
 129 380 l 2,124,125
 129 386 129 386 132.5 389.5 c 128,-1,126
 136 393 136 393 141 394 c 1,127,128
 144 404 144 404 153 404 c 2,129,-1
 344 404 l 6,130,131
 359 404 359 404 367.5 395.5 c 132,-1,132
 376 387 376 387 376 379 c 7,22,23
207 118 m 24,133,134
 214 58 214 58 228 58 c 0,135,136
 234 58 234 58 240 79 c 0,137,138
 246 98 246 98 246 112 c 2,139,-1
 246 216 l 1,140,-1
 153 216 l 1,141,142
 113 197 113 197 99 172 c 0,143,144
 87 149 87 149 87 127 c 3,145,146
 87 103 87 103 102 81 c 0,147,148
 113 65 113 65 128.5 60 c 128,-1,149
 144 55 144 55 157 69 c 0,150,151
 168 83 168 83 168 118 c 2,152,-1
 168 135 l 2,153,154
 168 163 168 163 184 163 c 3,155,156
 202 163 202 163 202 157 c 0,157,158
 202 155 202 155 207 118 c 24,133,134
177 355 m 1,159,-1
 177 266 l 1,160,-1
 246 266 l 1,161,-1
 246 355 l 1,162,-1
 177 355 l 1,159,-1
EndSplineSet
LCarets2: 2 0 0
Ligature2: "'akhn' Akhanda subtable" u11315 u1134D u11324
EndChar

StartChar: uE114
Encoding: 57620 57620 37
Width: 854
Flags: MW
AnchorPoint: "stacking" 427 0 basechar 0
LayerCount: 2
Fore
SplineSet
583 63 m 1,0,1
 621 0 621 0 683 0 c 0,2,3
 733 0 733 0 766.5 49 c 0,4,5
 792 86 792 86 792 128 c 0,6,7
 792 165 792 165 781 205 c 0,8,9
 768 251 768 251 723 269 c 0,10,11
 698 279 698 279 680.5 279 c 128,-1,12
 663 279 663 279 648 276 c 128,-1,13
 633 273 633 273 619.5 256 c 128,-1,14
 606 239 606 239 606 214 c 2,15,-1
 606 210 l 2,16,17
 606 193 606 193 620.5 176.5 c 128,-1,18
 635 160 635 160 656.496875488 149.75 c 0,19,20
 678 140 678 140 698 139.5 c 0,21,22
 718 140 718 140 734 151 c 1,23,-1
 734 140 l 2,24,25
 734 94 734 94 719 68 c 128,-1,26
 704 42 704 42 681 42 c 128,-1,27
 658 42 658 42 635 66 c 0,28,29
 600 100 600 100 600 146 c 0,30,31
 600 151 600 151 598 156 c 24,32,33
 589 178 589 178 565 193 c 0,34,35
 557 198 557 198 541.5 186.5 c 128,-1,36
 526 175 526 175 530 171 c 0,37,38
 548 153 548 153 548 125 c 0,39,40
 548 55 548 55 490 43 c 24,41,42
 480 41 480 41 473 41 c 0,43,44
 446 41 446 41 446 66 c 0,45,46
 446 120 446 120 472 172 c 16,47,48
 475 178 475 178 475 189 c 128,-1,49
 475 200 475 200 460 220 c 128,-1,50
 445 240 445 240 413 254 c 128,-1,51
 381 268 381 268 348 268 c 6,52,-1
 338 268 l 6,53,54
 301 268 301 268 273 257 c 1,55,-1
 273 369 l 1,56,-1
 353 369 l 6,57,58
 363 369 363 369 368.5 376 c 132,-1,59
 374 383 374 383 374 391 c 132,-1,60
 374 399 374 399 368.5 406.5 c 132,-1,61
 363 414 363 414 353 414 c 6,62,-1
 94 414 l 2,63,64
 82 414 82 414 76 405 c 1,65,66
 63 400 63 400 63 390 c 2,67,-1
 63 16 l 2,68,69
 63 0 63 0 91 0 c 128,-1,70
 119 0 119 0 119 16 c 2,71,-1
 119 369 l 1,72,-1
 201 369 l 1,73,-1
 201 122 l 2,74,75
 201 113 201 113 211.495117188 104.25 c 0,76,77
 223 95 223 95 235.5 95.5 c 0,78,79
 254 96 254 96 260.5 99 c 0,80,81
 273 104 273 104 273 120 c 2,82,-1
 273 159 l 2,83,84
 273 208 273 208 303 220 c 0,85,86
 320 227 320 227 334.5 227 c 0,87,88
 372 227 372 227 391.387096774 208 c 0,89,90
 411 189 411 189 411 166 c 0,91,92
 411 159 411 159 392 112 c 0,93,94
 386 97 386 97 386 76.5 c 128,-1,95
 386 56 386 56 390 43 c 128,-1,96
 394 30 394 30 416.5 15 c 128,-1,97
 439 0 439 0 481 0 c 2,98,-1
 487 0 l 2,99,100
 542 0 542 0 583 63 c 1,0,1
716 226 m 0,101,102
 724 215 724 215 718 197 c 0,103,104
 712 178 712 178 686 177 c 1,105,-1
 681 177 l 2,106,107
 658 177 658 177 652 186 c 0,108,109
 644 196 644 196 644 212 c 0,110,111
 644 226 644 226 654.5 234.5 c 0,112,113
 664.992648648 242.5 664.992648648 242.5 682 242.5 c 0,114,115
 705.005434141 242.5 705.005434141 242.5 716 226 c 0,101,102
EndSplineSet
Position2: "Single Position lookup 0-1" dx=0 dy=0 dh=-410 dv=0
LCarets2: 2 0 0
Ligature2: "'akhn' Akhanda subtable" u11328 u1134D u11325
EndChar

StartChar: uE115
Encoding: 57621 57621 38
Width: 854
Flags: MW
AnchorPoint: "stacking" 430 -128 basechar 0
LayerCount: 2
Fore
SplineSet
214 165 m 1024,0,-1
117 191 m 3,2,3
 117 133.921107229 117 133.921107229 150 118 c 0,4,5
 163 111 163 111 179 111 c 3,6,7
 209 111 209 111 218 137 c 0,8,9
 219 140 219 140 219 143 c 3,10,11
 219 154 219 154 211 170 c 0,12,13
 201 190 201 190 184 202.5 c 0,14,15
 167 216 167 216 152.5 216.5 c 0,16,17
 135 216 135 216 128.5 211 c 0,18,19
 117 203.041594579 117 203.041594579 117 191 c 3,2,3
735 113 m 1,20,-1
 735 226 l 1,21,22
 710 208 710 208 630 200 c 1,23,-1
 586 113 l 1,24,-1
 735 113 l 1,20,-1
433 238 m 3,25,26
 433 146 433 146 384 113 c 1,27,-1
 526 113 l 1,28,-1
 570 200 l 1,29,30
 525 205 525 205 509.5 230 c 128,-1,31
 494 255 494 255 494 307 c 2,32,-1
 494 312 l 2,33,34
 494 340 494 340 509 359 c 0,35,36
 532 390 532 390 569 390 c 3,37,38
 576 390 576 390 583 389 c 0,39,40
 630 382 630 382 651 328 c 0,41,42
 661 302 661 302 653 262 c 26,43,-1
 649 242 l 1,44,45
 683 251 683 251 726 285 c 0,46,47
 735 292 735 292 735 293 c 0,48,49
 735 303 735 303 756.5 303 c 131,-1,50
 778 303 778 303 783.5 298.5 c 0,51,52
 791 292 791 292 791 286 c 2,53,-1
 791 72 l 1,54,-1
 565 72 l 1,55,-1
 520 -16 l 24,56,-1
 795 -16 l 2,57,58
 809 -16 809 -16 809 -38 c 131,-1,59
 809 -60 809 -60 795 -60 c 2,60,-1
 653 -60 l 1,61,-1
 653 -110 l 2,62,63
 653 -128 653 -128 627.5 -128 c 131,-1,64
 602 -128 602 -128 602 -110 c 2,65,-1
 602 -60 l 1,66,-1
 460 -60 l 2,67,68
 437.363636364 -60 437.363636364 -60 443 -49 c 2,69,-1
 505 72 l 1,70,-1
 290 72 l 1,71,-1
 290 113 l 1,72,-1
 311 113 l 2,73,74
 340.811320755 113 340.811320755 113 352.5 142.5 c 0,75,76
 363 169 363 169 363 221 c 131,-1,77
 363 273 363 273 348 296 c 0,78,79
 316 349 316 349 262 349 c 2,80,-1
 254 349 l 2,81,82
 229 349 229 349 208 340 c 0,83,84
 180 328 180 328 160.5 308 c 128,-1,85
 141 288 141 288 126 246 c 1,86,87
 138 249 138 249 149 249 c 3,88,89
 167 249 167 249 184 242 c 0,90,91
 232 223 232 223 253 181 c 0,92,93
 264 159 264 159 264 144 c 3,94,95
 264 137 264 137 262 130 c 0,96,97
 246 81 246 81 184 73 c 0,98,99
 176 72 176 72 168 72 c 3,100,101
 118 72 118 72 85 122 c 0,102,103
 69 147 69 147 69 197 c 2,104,-1
 69 203 l 2,105,106
 69 312 69 312 164 369 c 0,107,108
 205 394 205 394 248 394 c 2,109,-1
 260 394 l 2,110,111
 349 394 349 394 402 327 c 0,112,113
 433 288 433 288 433 238 c 3,25,26
600 262 m 24,114,115
 603 271 603 271 603 283 c 3,116,117
 603 309.076809621 603 309.076809621 596 326 c 0,118,119
 588 350 588 350 577 355 c 256,120,121
 566 360 566 360 555 347.5 c 0,122,123
 540 331 540 331 540 305 c 27,124,125
 540 277 540 277 554.5 257.5 c 0,126,127
 567 242 567 242 590 239 c 1,128,-1
 600 262 l 24,114,115
EndSplineSet
Position2: "Single Position lookup 0-1" dx=0 dy=0 dh=-50 dv=0
LCarets2: 2 0 0
Ligature2: "'akhn' Akhanda subtable" u11337 u1134D u1131F
EndChar

StartChar: uE116
Encoding: 57622 57622 39
Width: 1228
Flags: MW
AnchorPoint: "stacking" 609 0 basechar 0
LayerCount: 2
Fore
SplineSet
474 347 m 1,0,-1
 474 272 l 1,1,-1
 553 272 l 1,2,-1
 553 347 l 1,3,-1
 474 347 l 1,0,-1
834 111 m 0,4,5
 825 149 825 149 804.5 167.5 c 0,6,7
 779 190 779 190 743 203 c 1,8,9
 727 174 727 174 727 128 c 131,-1,10
 727 82 727 82 746 62 c 0,11,12
 764 42 764 42 788 42 c 3,13,14
 808 42 808 42 822 55.5 c 128,-1,15
 836 69 836 69 836 90 c 0,16,17
 836 100 836 100 834 111 c 0,4,5
216 200 m 2,18,-1
 216 203 l 2,19,20
 216 231 216 231 198 244 c 0,21,22
 183.142578125 256 183.142578125 256 160 256 c 3,23,24
 139 256 139 256 122 242.5 c 0,25,26
 106 230 106 230 106 203 c 2,27,-1
 106 200 l 2,28,29
 106 180 106 180 123 168 c 0,30,31
 143 154 143 154 161 154 c 2,32,-1
 166 154 l 2,33,34
 184 154 184 154 199 164 c 0,35,36
 216 174 216 174 216 200 c 2,18,-1
517 70 m 0,37,38
 551 78 551 78 556 118 c 0,39,40
 557 128 557 128 557 140 c 131,-1,41
 557 152 557 152 556 166 c 0,42,43
 554 192 554 192 553 217 c 1,44,-1
 451 217 l 1,45,46
 411 203 411 203 398 175 c 0,47,48
 390 159 390 159 390 143 c 3,49,50
 390 131 390 131 394 120 c 0,51,52
 404 94 404 94 436 78 c 0,53,54
 454.980007994 68 454.980007994 68 480 68 c 3,55,56
 506.915114463 68 506.915114463 68 517 70 c 0,37,38
517 0 m 3,57,58
 446 0 446 0 402.5 25.5 c 0,59,60
 358 51 358 51 342 88 c 0,61,62
 332 111 332 111 332 137 c 3,63,64
 332 151 332 151 336 166 c 0,65,66
 346 207 346 207 382 237 c 1,67,68
 365 274 365 274 329.5 303.5 c 128,-1,69
 294 333 294 333 255 346 c 0,70,71
 232 354 232 354 211 354 c 3,72,73
 195 354 195 354 179 350 c 0,74,75
 142 340 142 340 121 300 c 1,76,77
 139 304 139 304 156 304 c 3,78,79
 191 304 191 304 222 287 c 0,80,81
 272 260 272 260 272 203 c 2,82,-1
 272 200 l 2,83,84
 272 137 272 137 212 108 c 0,85,86
 185 95 185 95 153 95 c 3,87,88
 125 95 125 95 98 106 c 0,89,90
 37 133 37 133 37 200 c 2,91,-1
 37 206 l 2,92,93
 37 327 37 327 125 376 c 0,94,95
 165 398 165 398 205 398 c 2,96,-1
 219 398 l 2,97,98
 258 398 258 398 290 388 c 0,99,100
 381 359 381 359 419 295 c 1,101,-1
 419 383 l 2,102,103
 419 395 419 395 430 398 c 0,104,105
 450 402 450 402 457 402 c 2,106,-1
 685 402 l 6,107,108
 703 402 703 402 712 392 c 4,109,110
 719 383 719 383 719 373.5 c 135,-1,111
 719 364 719 364 709.5 355.5 c 4,112,113
 701 347 701 347 687 347 c 6,114,-1
 623 347 l 1,115,-1
 623 270 l 1,116,117
 672 266 672 266 714 257 c 1,118,119
 764 318 764 318 844 327 c 0,120,121
 862 329 862 329 880 329 c 3,122,123
 940 329 940 329 986 300 c 0,124,125
 1056 255 1056 255 1056 178 c 2,126,127
 1056 165 l 2,128,129
 1056 91 1056 91 1001 48 c 1,130,-1
 1123 48 l 1,131,-1
 1123 379 l 2,132,133
 1123 385 1123 385 1133.5 395 c 0,134,135
 1143 404 1143 404 1153 404 c 3,136,137
 1167 404 1167 404 1172 401.5 c 0,138,139
 1181 397 1181 397 1181 387 c 2,140,-1
 1181 0 l 1,141,-1
 907 0 l 1,142,-1
 907 48 l 1,143,144
 934 48 934 48 949.5 64.5 c 0,145,146
 966 80 966 80 972 102 c 0,147,148
 980 129 980 129 980 151 c 2,149,-1
 980 177 l 2,150,151
 980 221 980 221 954.5 248.5 c 128,-1,152
 929 276 929 276 896 284 c 0,153,154
 881 288 881 288 866 288 c 3,155,156
 848 288 848 288 828 282 c 0,157,158
 792 272 792 272 766 240 c 1,159,160
 847 201 847 201 873 123 c 24,161,162
 879 105 879 105 879 89 c 3,163,164
 879 76 879 76 875 64 c 0,165,166
 866 35 866 35 845.5 19.5 c 0,167,168
 826 5 826 5 798 1 c 0,169,170
 792 0 792 0 785 0 c 3,171,172
 764 0 764 0 744 9 c 0,173,174
 721 20 721 20 698 51 c 0,175,176
 674 84 674 84 674 130 c 3,177,178
 674 180 674 180 690 217 c 1,179,180
 658 223 658 223 631 223 c 2,181,-1
 623 223 l 1,182,183
 625 196 625 196 628 158 c 0,184,185
 629 148 629 148 629 137 c 3,186,187
 629 110 629 110 623 84 c 0,188,189
 615 48 615 48 591.5 24 c 128,-1,190
 568 0 568 0 517 0 c 3,57,58
EndSplineSet
LCarets2: 4 0 0 0 0
Ligature2: "'akhn' Akhanda subtable" u11328 u1134D u11324 u1134D u11335
EndChar

StartChar: uE200
Encoding: 57856 57856 40
Width: 404
Flags: MW
LayerCount: 2
Fore
SplineSet
61 54 m 2,0,-1
 177 54 l 1,1,2
 178 76 178 76 190.5 132 c 128,-1,3
 203 188 203 188 208.5 207.5 c 152,-1,4
 214 227 214 227 242 315 c 0,5,6
 254 352 254 352 253.5 398 c 128,-1,7
 253 444 253 444 231 477.5 c 128,-1,8
 209 511 209 511 164 542 c 25,9,-1
 132 549 l 25,10,11
 124 556 124 556 124 566 c 0,12,13
 123 589 123 589 139 590 c 0,14,15
 142 590 142 590 178 576 c 0,16,17
 216 562 216 562 240.5 540.5 c 128,-1,18
 265 519 265 519 283 485.5 c 128,-1,19
 301 452 301 452 301 408 c 128,-1,20
 301 364 301 364 296 331 c 0,21,22
 291 297 291 297 269.5 225 c 128,-1,23
 248 153 248 153 244 122.5 c 128,-1,24
 240 92 240 92 232 53 c 1,25,26
 284 50 284 50 316 31 c 0,27,28
 374 -3.17857142857 374 -3.17857142857 374 -74 c 0,29,30
 374 -141.266666667 374 -141.266666667 322 -169 c 0,31,32
 307 -177 307 -177 285 -177 c 0,33,34
 277 -177 277 -177 269 -176 c 8,35,36
 236 -172 236 -172 221.5 -160 c 128,-1,37
 207 -148 207 -148 196 -124 c 0,38,39
 177 -83 177 -83 177 2 c 1,40,-1
 55 2 l 2,41,42
 32 2 32 2 19 11.5 c 128,-1,43
 6 21 6 21 6 30 c 128,-1,44
 6 39 6 39 20.5 46.5 c 128,-1,45
 35 54 35 54 61 54 c 2,0,-1
288 -124 m 1,46,47
 310 -124 310 -124 322 -109 c 0,48,49
 330 -98 330 -98 330 -84 c 0,50,51
 330 -78 330 -78 328 -72 c 0,52,53
 324 -50 324 -50 299 -29 c 128,-1,54
 274 -8 274 -8 225 0 c 1,55,56
 225 -48 225 -48 230 -83 c 128,-1,57
 235 -118 235 -118 263 -121 c 2,58,-1
 288 -124 l 1,46,47
EndSplineSet
PairPos2: "'dist' Distance lookup intra-post-base marker 2-2" u11343 dx=0 dy=0 dh=0 dv=0 dx=0 dy=-100 dh=0 dv=0
Ligature2: "Ligature Substitution post repha rakara ya subtable" u11330 u1134D
Substitution2: "Accent marker rearrangement single substitution 67-1" u11301
Substitution2: "Accent marker rearrangement single substitution 48-1" u1CF4
Substitution2: "Accent marker rearrangement single substitution 47-1" u0952
Substitution2: "Accent marker rearrangement single substitution 46-1" u0951
PairPos2: "'dist' Distance lookup intra-post-base marker 2-2" u11344 dx=0 dy=0 dh=20 dv=0 dx=0 dy=-100 dh=0 dv=0
Substitution2: "Vowel marker rearrangement single substitution 7-1" u1134D
Substitution2: "Vowel marker rearrangement single substitution 6-1" u11340
Substitution2: "Vowel marker rearrangement single substitution 3-1" u1133F
LCarets2: 1 0
EndChar

StartChar: uE201
Encoding: 57857 57857 41
Width: 407
Flags: MW
LayerCount: 2
Fore
SplineSet
159 478 m 1,0,1
 159 510 159 510 186 510 c 0,2,3
 218 510 218 510 225 499 c 0,4,5
 364 313 364 313 366 104 c 0,6,7
 366 5 366 5 354 -57 c 152,-1,8
 342 -119 342 -119 314 -153.5 c 128,-1,9
 286 -188 286 -188 256 -200 c 0,10,11
 234 -209 234 -209 213 -209 c 0,12,13
 205 -209 205 -209 196 -208 c 0,14,15
 167 -203 167 -203 145 -185 c 128,-1,16
 123 -167 123 -167 123 -138 c 128,-1,17
 123 -109 123 -109 135 -74 c 25,18,-1
 151 -51 l 25,19,20
 165 -22 165 -22 165 2 c 128,-1,21
 165 26 165 26 152 41 c 128,-1,22
 139 56 139 56 119 62 c 0,23,24
 112 64 112 64 105 63 c 0,25,26
 92 63 92 63 78 57 c 1,27,-1
 72 33 l 1,28,29
 63 26 63 26 49.5 26 c 128,-1,30
 36 26 36 26 34 35 c 0,31,32
 30 51 30 51 29 52 c 0,33,34
 29 60 29 60 49 72 c 0,35,36
 79 90 79 90 109.5 90 c 128,-1,37
 140 90 140 90 160 80 c 0,38,39
 208 58 208 58 208 7 c 0,40,41
 208 -20 208 -20 197 -56 c 16,42,43
 190 -79 190 -79 190 -98 c 0,44,45
 190 -108 190 -108 192 -116 c 0,46,47
 198 -140 198 -140 216 -147 c 0,48,49
 220 -149 220 -149 225 -149 c 0,50,51
 239 -149 239 -149 256 -135 c 0,52,53
 306 -96 306 -96 306 80 c 4,54,55
 306 192 306 192 299 244.5 c 128,-1,56
 292 297 292 297 264.5 360 c 128,-1,57
 237 423 237 423 196 452 c 2,58,-1
 159 478 l 1,0,1
EndSplineSet
Validated: 1
Ligature2: "Ligature Substitution post repha rakara ya subtable" u1134D u1132F
Substitution2: "Accent marker rearrangement single substitution 68-1" u11301
Substitution2: "Accent marker rearrangement single substitution 51-1" u1CF4
Substitution2: "Accent marker rearrangement single substitution 50-1" u0952
Substitution2: "Accent marker rearrangement single substitution 49-1" u0951
Substitution2: "Vowel marker rearrangement single substitution 4-1" u11340
Substitution2: "Vowel marker rearrangement single substitution 1-1" u1133F
LCarets2: 1 0
EndChar

StartChar: uE203
Encoding: 57859 57859 42
Width: 234
Flags: MW
LayerCount: 2
Fore
SplineSet
-25 -243 m 4,0,1
 -8 -243 -8 -243 12 -240 c 4,2,3
 148 -220 148 -220 148 -2 c 6,4,-1
 148 147 l 1,5,-1
 190 147 l 2,6,7
 200 147 200 147 206.5 155.5 c 128,-1,8
 213 164 213 164 213 174 c 256,9,10
 213 184 213 184 207 192.5 c 128,-1,11
 201 201 201 201 190 201 c 2,12,-1
 43 201 l 2,13,14
 31 201 31 201 25 192.5 c 128,-1,15
 19 184 19 184 19 174 c 256,16,17
 19 164 19 164 25.5 155.5 c 128,-1,18
 32 147 32 147 43 147 c 2,19,-1
 90 147 l 1,20,-1
 90 -2 l 6,21,22
 90 -74 90 -74 84 -114 c 5,23,24
 59 -200 59 -200 -5 -203 c 4,25,26
 -30 -204 -30 -204 -38 -204 c 28,27,28
 -43 -204 -43 -204 -90 -204 c 4,29,30
 -147 -204 -147 -204 -164.5 -203.5 c 4,31,32
 -229 -203 -229 -203 -239 -202 c 4,33,34
 -383 -188 -383 -188 -405.5 -183 c 4,35,36
 -547 -149 -547 -149 -571 -149 c 4,37,38
 -602 -149 -602 -149 -602 -169 c 4,39,40
 -602 -184 -602 -184 -580 -191 c 4,41,42
 -577 -192 -577 -192 -520 -204 c 4,43,44
 -397 -228 -397 -228 -360.970703125 -231.102539062 c 28,45,46
 -277 -238 -277 -238 -277.41015625 -238.8515625 c 6,47,-1
 -169 -242 l 28,48,49
 -167 -243 -167 -243 -25 -243 c 4,0,1
EndSplineSet
EndChar

StartChar: uE204
Encoding: 57860 57860 43
Width: 235
Flags: MW
LayerCount: 2
Fore
SplineSet
-5 -381 m 6,0,1
 74.1229324076 -379.782724117 74.1229324076 -379.782724117 117 -304 c 4,2,3
 149 -248 149 -248 149 -186 c 6,4,-1
 149 147 l 1,5,-1
 191 147 l 2,6,7
 202 147 202 147 208 155.5 c 128,-1,8
 214 164 214 164 214 174 c 256,9,10
 214 184 214 184 208 192.5 c 128,-1,11
 202 201 202 201 191 201 c 2,12,-1
 44 201 l 2,13,14
 32 201 32 201 26 192.5 c 128,-1,15
 20 184 20 184 20 174 c 256,16,17
 20 164 20 164 26.5 155.5 c 128,-1,18
 33 147 33 147 44 147 c 2,19,-1
 91 147 l 1,20,-1
 91 -186 l 6,21,22
 91 -250 91 -250 73 -276.5 c 4,23,24
 67 -286 67 -286 33 -321.75 c 4,25,26
 26 -329 26 -329 -12 -336.5 c 4,27,28
 -20 -338 -20 -338 -66.5 -337.25 c 4,29,30
 -251 -333 -251 -333 -374 -312 c 4,31,32
 -589 -276 -589 -276 -639 -276 c 4,33,34
 -650 -276 -650 -276 -659.5 -286.5 c 132,-1,35
 -669 -297 -669 -297 -665.5 -306.5 c 132,-1,36
 -662 -316 -662 -316 -618.5 -329.5 c 4,37,38
 -553 -350 -553 -350 -404.5 -363 c 4,39,40
 -343 -369 l 4,41,-1
 -252 -376 l 4,42,43
 -252 -379.164835165 -252 -379.164835165 -166 -382 c 28,44,45
 -151 -383 -151 -383 -70 -382 c 28,46,47
 -6 -382 -6 -382 -5 -381 c 6,0,1
EndSplineSet
LCarets2: 1 0
EndChar

StartChar: uE280
Encoding: 57984 57984 44
Width: 308
Flags: MW
LayerCount: 2
Fore
SplineSet
116 108 m 1,0,-1
 100 113 l 2,1,2
 97 113 97 113 89 108 c 128,-1,3
 81 103 81 103 81 95 c 0,4,5
 81 71 81 71 102 62 c 2,6,-1
 119 54 l 1,7,-1
 142 50 l 1,8,9
 147 48 147 48 173 52.5 c 128,-1,10
 199 57 199 57 212 77 c 128,-1,11
 225 97 225 97 225.5 112.5 c 128,-1,12
 226 128 226 128 226 130 c 128,-1,13
 226 132 226 132 224.5 144.5 c 128,-1,14
 223 157 223 157 217 173 c 128,-1,15
 211 189 211 189 189.5 204 c 128,-1,16
 168 219 168 219 137 219 c 2,17,-1
 79 219 l 2,18,19
 74 219 74 219 70 227 c 128,-1,20
 66 235 66 235 66 243 c 0,21,22
 66 263 66 263 98 263 c 2,23,24
 124 263 124 263 150 263 c 2,25,26
 178 263 178 263 191 295 c 0,27,28
 197 308 197 308 197 327.5 c 128,-1,29
 197 347 197 347 188.5 359 c 128,-1,30
 180 371 180 371 170.5 375.5 c 128,-1,31
 161 380 161 380 154 380 c 128,-1,32
 147 380 147 380 136.5 378.5 c 128,-1,33
 126 377 126 377 116 367 c 128,-1,34
 106 357 106 357 106 351 c 128,-1,35
 106 345 106 345 107 340 c 1,36,-1
 79 312 l 1,37,38
 70 338 70 338 70 358 c 128,-1,39
 70 378 70 378 91.5 403 c 128,-1,40
 113 428 113 428 134 428 c 2,41,-1
 160 428 l 2,42,43
 203 428 203 428 228 375 c 0,44,45
 238 356 238 356 238 322.5 c 128,-1,46
 238 289 238 289 230.5 274 c 128,-1,47
 223 259 223 259 209 248 c 1,48,49
 253 235 253 235 271 183 c 0,50,51
 278 163 278 163 278 127.5 c 128,-1,52
 278 92 278 92 265 65 c 0,53,54
 234 0 234 0 152 0 c 2,55,-1
 146 0 l 2,56,57
 125 0 125 0 108.5 4.5 c 128,-1,58
 92 9 92 9 71.5 26.5 c 128,-1,59
 51 44 51 44 42 58.5 c 128,-1,60
 33 73 33 73 33 103 c 128,-1,61
 33 133 33 133 64 149 c 0,62,63
 83 160 83 160 99 160 c 128,-1,64
 115 160 115 160 132 152 c 1,65,66
 142 142 142 142 142 133 c 0,67,68
 142 114 142 114 123 109 c 0,69,70
 121 108 121 108 116 108 c 1,0,-1
EndSplineSet
EndChar

StartChar: uE400
Encoding: 58368 58368 98
Width: 548
Flags: MW
LayerCount: 2
Fore
SplineSet
355 384 m 0,0,1
 355 414 355 414 339 414 c 2,2,-1
 138 414 l 2,3,4
 127 414 127 414 116 407.5 c 128,-1,5
 105 401 105 401 105 381 c 2,6,-1
 105 265 l 1,7,8
 72 252 72 252 53.5 226 c 0,9,10
 31 196 31 196 30 171 c 0,11,12
 30 161 30 161 29 151 c 0,13,14
 28 132 28 132 34 112 c 0,15,16
 53 46 53 46 121 16 c 0,17,18
 157 0 157 0 201.5 0 c 128,-1,19
 246 0 246 0 268.5 25.5 c 128,-1,20
 291 51 291 51 294 79.5 c 128,-1,21
 297 108 297 108 297 217 c 1,22,23
 300 217 300 217 303 217 c 0,24,25
 326 218 326 218 351 210 c 0,26,27
 409 193 l 1,28,29
 397 176 397 176 394.5 157.5 c 128,-1,30
 392 139 392 139 389 127 c 128,-1,31
 386 115 386 115 386 88 c 128,-1,32
 386 61 386 61 393.5 44 c 128,-1,33
 401 27 401 27 416 13.5 c 128,-1,34
 431 0 431 0 449 0 c 0,35,36
 519 0 519 0 518 105 c 0,37,38
 518 155 518 155 479 202 c 0,39,40
 469 214 469 214 463 223 c 1,41,42
 465 228 465 228 467 234.5 c 128,-1,43
 469 241 469 241 472 249.5 c 128,-1,44
 475 258 475 258 477 268 c 128,-1,45
 479 278 479 278 485 308 c 0,46,47
 488 322 488 322 488 335 c 0,48,49
 488 352 488 352 484 366 c 0,50,51
 471 414 471 414 431 414 c 0,52,53
 395 414 395 414 395 390 c 0,54,55
 395 374 395 374 409 371 c 24,56,57
 433 366 433 366 437 364 c 0,58,59
 449 354 449 354 449 337 c 0,60,61
 449 309 449 309 428 243 c 1,62,63
 375 263 375 263 296 268 c 1,64,-1
 296 356 l 1,65,-1
 334 356 l 2,66,67
 344 356 344 356 349.5 365 c 128,-1,68
 355 374 355 374 355 384 c 0,0,1
229 121 m 2,69,70
 229 71 229 71 196 69 c 0,71,72
 145 69 145 69 114 88.5 c 128,-1,73
 83 108 83 108 78 128 c 0,74,75
 76 134 76 134 76 142 c 0,76,77
 76 159 76 159 84 182 c 0,78,79
 96 215 96 215 132 215 c 2,80,-1
 229 215 l 1,81,-1
 229 121 l 2,69,70
157 356 m 1,82,-1
 230 356 l 1,83,-1
 230 269 l 1,84,-1
 157 269 l 1,85,-1
 157 356 l 1,82,-1
443 171 m 1,86,87
 464 150 464 150 470 133.5 c 128,-1,88
 476 117 476 117 476 91 c 128,-1,89
 476 65 476 65 472 55.5 c 128,-1,90
 468 46 468 46 460 42 c 128,-1,91
 452 38 452 38 443 42.5 c 128,-1,92
 434 47 434 47 430 62 c 128,-1,93
 426 77 426 77 426 104 c 128,-1,94
 426 131 426 131 443 171 c 1,86,87
EndSplineSet
LCarets2: 1 0
Ligature2: "'haln' Halant Forms subtable" u11324 u1134D
EndChar

StartChar: uE401
Encoding: 58369 58369 99
Width: 520
Flags: MW
LayerCount: 2
Fore
SplineSet
228 256 m 1,0,1
 268 279 268 279 338 279 c 0,2,3
 357 279 357 279 376 274 c 1,4,5
 385.6875 287.5625 385.6875 287.5625 387 296 c 2,6,-1
 394 341 l 2,7,8
 396 353 396 353 385 361 c 0,9,10
 377 367 377 367 352 371 c 0,11,12
 338 373 338 373 338.5 386.5 c 128,-1,13
 339 400 339 400 348 407 c 128,-1,14
 357 414 357 414 375 414 c 0,15,16
 417 414 417 414 428 366 c 16,17,18
 432 350 432 350 432 334 c 0,19,20
 432 297 432 297 411 260 c 1,21,22
 434 246 434 246 454 214.5 c 128,-1,23
 474 183 474 183 474 152 c 128,-1,24
 474 121 474 121 471.5 95.5 c 128,-1,25
 469 70 469 70 459 48 c 0,26,27
 436 0 436 0 382 0 c 1,28,29
 362 0 362 0 345 17 c 128,-1,30
 328 34 328 34 322 63 c 0,31,32
 319 80 319 80 319 98 c 0,33,34
 319 156 319 156 354 230 c 1,35,36
 334 238 334 238 317 239 c 0,37,38
 295 240 295 240 281 236 c 0,39,40
 230 225 230 225 230 176 c 0,41,42
 230 169 230 169 206 168 c 0,43,44
 197 168 197 168 189 168 c 0,45,46
 178 168 178 168 173 169 c 0,47,48
 165 171 165 171 162.5 172.5 c 128,-1,49
 160 174 160 174 160 185 c 2,50,-1
 160 366 l 1,51,-1
 84 366 l 1,52,-1
 84 97 l 2,53,54
 84 89 84 89 75.5 84.5 c 128,-1,55
 67 80 67 80 57 80 c 256,56,57
 47 80 47 80 39 84.5 c 128,-1,58
 31 89 31 89 31 97 c 2,59,-1
 31 378 l 2,60,61
 31 412 31 412 55 412 c 2,62,-1
 291 412 l 6,63,64
 301 412 301 412 306.5 404.5 c 132,-1,65
 312 397 312 397 312 388.5 c 132,-1,66
 312 380 312 380 306.5 373 c 132,-1,67
 301 366 301 366 291 366 c 6,68,-1
 228 366 l 1,69,-1
 228 256 l 1,0,1
423 122 m 258,70,-1
 423 150 l 2,71,72
 423 162 423 162 413 179 c 128,-1,73
 403 196 403 196 390 208 c 1,74,75
 361 130 361 130 361 89 c 0,76,77
 361 53 361 53 383 46 c 1,78,79
 423 46 423 46 423 122 c 258,70,-1
EndSplineSet
LCarets2: 1 0
Ligature2: "'haln' Halant Forms subtable" u11328 u1134D
EndChar

StartChar: uE402
Encoding: 58370 58370 100
Width: 561
Flags: MW
LayerCount: 2
Fore
SplineSet
399 79 m 0,0,1
 399 109 399 109 355 109 c 0,2,3
 314 108 314 108 288 100 c 0,4,5
 274 96 274 96 274 86 c 0,6,7
 274 35 274 35 348 35 c 0,8,9
 399 35 399 35 399 79 c 0,0,1
406 396 m 0,10,11
 504 364 504 364 504 290 c 0,12,13
 504 223 504 223 380 166 c 0,14,15
 328 139 l 5,16,17
 338 139 338 139 348 139 c 0,18,19
 392 139 392 139 416.5 122 c 128,-1,20
 441 105 441 105 441 80 c 0,21,22
 440 36 440 36 396 15 c 0,23,24
 366 0 366 0 334 -0 c 128,-1,25
 302 0 302 0 264.5 18 c 128,-1,26
 227 36 227 36 227 66.5 c 128,-1,27
 227 97 227 97 231 103 c 128,-1,28
 235 109 235 109 237 113 c 1,29,30
 171 133 171 133 100 195 c 128,-1,31
 29 257 29 257 29 339 c 2,32,-1
 29 439 l 1,33,-1
 72 439 l 1,34,-1
 72 342 l 2,35,36
 72 275 72 275 135.5 217.5 c 128,-1,37
 199 160 199 160 265 144 c 1,38,39
 292 163 292 163 324.5 180 c 128,-1,40
 357 197 357 197 386 214 c 0,41,42
 454 252 454 252 454 305 c 0,43,44
 454 350 454 350 355 366 c 0,45,46
 336 369 336 369 318 369 c 0,47,48
 261 369 261 369 237 354 c 1,49,50
 263 354 263 354 302 324 c 0,51,52
 323 308 323 308 323 283 c 128,-1,53
 323 258 323 258 305.5 239.5 c 128,-1,54
 288 221 288 221 249.5 221 c 128,-1,55
 211 221 211 221 179 242.5 c 128,-1,56
 147 264 147 264 147 286 c 24,57,58
 147 327 147 327 174 356 c 0,59,60
 224 410 224 410 323 410 c 0,61,62
 363 410 363 410 406 396 c 0,10,11
238 263 m 0,63,64
 272 263 272 263 272 284 c 0,65,66
 272 298 272 298 258 312 c 128,-1,67
 244 326 244 326 228 326 c 0,68,69
 210 326 210 326 206 320 c 128,-1,70
 202 314 202 314 200 303 c 0,71,72
 201 263 201 263 238 263 c 0,63,64
EndSplineSet
Ligature2: "'haln' Halant Forms subtable" u1132E u1134D
LCarets2: 1 0
EndChar

StartChar: uE403
Encoding: 58371 58371 101
Width: 788
Flags: MW
LayerCount: 2
Fore
SplineSet
665 209 m 1,0,1
 638 144 638 144 638 113 c 2,2,-1
 638 83 l 2,3,4
 638 48 638 48 657 47 c 1,5,6
 697 47 697 47 697 123 c 2,7,-1
 697 144 l 2,8,9
 697 181 697 181 665 209 c 1,0,1
502 265 m 1,10,11
 601 285 601 285 647 264 c 1,12,-1
 653 275 l 1,13,14
 658.818181818 283.727272727 658.818181818 283.727272727 661 296 c 2,15,-1
 669 341 l 2,16,17
 671 353 671 353 660 361 c 0,18,19
 652 367 652 367 627 371 c 0,20,21
 613 373 613 373 613.5 386.5 c 128,-1,22
 614 400 614 400 623 407 c 0,23,24
 631 414 631 414 649 414 c 0,25,26
 691 413 691 413 703 367 c 0,27,28
 706 355 706 355 706 341 c 0,29,30
 706 305 706 305 683 259 c 1,31,32
 745 228 745 228 745 144 c 2,33,-1
 745 114 l 2,34,35
 745 73 745 73 733 50 c 0,36,37
 707 0 707 0 661 0 c 0,38,39
 635 0 635 0 620 18 c 0,40,41
 595 48 595 48 595 104 c 2,42,-1
 595 134 l 2,43,44
 595 181 595 181 629 231 c 1,45,46
 587 236 587 236 576 236 c 0,47,48
 502 235 502 235 502 196 c 26,49,-1
 502 178 l 2,50,51
 502 156 502 156 471.5 156 c 128,-1,52
 441 156 441 156 441 178 c 2,53,-1
 441 366 l 1,54,-1
 359 366 l 1,55,-1
 359 143 l 2,56,57
 359 130 359 130 329 130 c 128,-1,58
 299 130 299 130 299 145 c 2,59,-1
 299 173 l 2,60,61
 299 274 299 274 242 331 c 0,62,63
 206 367 206 367 161 367 c 0,64,65
 122 367 122 367 98 336 c 0,66,67
 81 315 81 315 81 280 c 1,68,69
 105 293 105 293 136 293 c 0,70,71
 198 293 198 293 228 251 c 0,72,73
 245 227 245 227 245 201 c 0,74,75
 245 155 245 155 192 132 c 0,76,77
 167 121 167 121 141 121 c 0,78,79
 87 121 87 121 51 156 c 0,80,81
 38 168 38 168 33 200 c 0,82,83
 32 206 32 206 32 254 c 128,-1,84
 32 302 32 302 33 308 c 0,85,86
 39 343 39 343 63 371.5 c 128,-1,87
 87 400 87 400 110 405 c 128,-1,88
 133 410 133 410 151 410 c 0,89,90
 233 410 233 410 299 337 c 1,91,-1
 299 393 l 2,92,93
 299 409 299 409 306 410 c 25,94,95
 308 414 308 414 329 414 c 2,96,-1
 567 414 l 2,97,98
 577 414 577 414 582 406 c 128,-1,99
 587 398 587 398 587 389.5 c 128,-1,100
 587 381 587 381 582 373.5 c 128,-1,101
 577 366 577 366 567 366 c 2,102,-1
 502 366 l 1,103,-1
 502 265 l 1,10,11
170 170.5 m 128,-1,105
 183 182 183 182 183 203.5 c 128,-1,106
 183 225 183 225 169 241 c 128,-1,107
 155 257 155 257 139 257 c 128,-1,108
 123 257 123 257 109 245 c 128,-1,109
 95 233 95 233 95 208 c 128,-1,110
 95 183 95 183 109 171 c 128,-1,111
 123 159 123 159 140 159 c 128,-1,104
 157 159 157 159 170 170.5 c 128,-1,105
EndSplineSet
LCarets2: 1 0
Ligature2: "'haln' Halant Forms subtable" uE101 u1134D
EndChar

StartChar: u11302
Encoding: 70402 70402 102
Width: 366
Flags: MW
LayerCount: 2
Fore
SplineSet
345 208 m 0,0,1
 345 176 345 176 322 151.5 c 128,-1,2
 299 127 299 127 264.5 115 c 0,3,4
 230 102 230 102 190 102 c 0,5,6
 188 102 188 102 187 102 c 0,7,8
 150 102 150 102 116 114 c 128,-1,9
 82 126 82 126 58.5 150.5 c 0,10,11
 35 176 35 176 35 208 c 0,12,13
 35 265 35 265 82 293.5 c 128,-1,14
 129 322 129 322 192 322 c 128,-1,15
 255 322 255 322 300 294.5 c 128,-1,16
 345 267 345 267 345 208 c 0,0,1
269 212 m 128,-1,18
 269 244 269 244 245.5 259 c 128,-1,19
 222 274 222 274 191.5 274 c 128,-1,20
 161 274 161 274 136.5 259 c 128,-1,21
 112 244 112 244 112 212 c 128,-1,22
 112 180 112 180 136.5 164 c 128,-1,23
 161 148 161 148 190.5 148 c 128,-1,24
 220 148 220 148 244.5 164 c 128,-1,17
 269 180 269 180 269 212 c 128,-1,18
EndSplineSet
Validated: 1
Substitution2: "Accent marker rearrangement single substitution 36-1" u1CF4
Substitution2: "Accent marker rearrangement single substitution 35-1" u0952
Substitution2: "Accent marker rearrangement single substitution 34-1" u0951
EndChar

StartChar: u11303
Encoding: 70403 70403 103
Width: 372
Flags: MW
LayerCount: 2
Fore
SplineSet
68 288 m 1,0,-1
 68 294 l 2,1,2
 68 335 68 335 104 359 c 0,3,4
 137 381 137 381 184 381 c 0,5,6
 262 380 262 380 291 332 c 0,7,8
 301 316 301 316 302 294 c 1,9,-1
 302 292 l 1,10,-1
 301 288 l 1,11,12
 300 256 300 256 264 238 c 0,13,14
 232 222 232 222 184 222 c 256,15,16
 110 222 110 222 79 259 c 0,17,18
 69 271 69 271 68 288 c 1,0,-1
68 110 m 2,19,-1
 68 113 l 1,20,21
 72 159 72 159 144 173 c 0,22,23
 164 177 164 177 185.5 177 c 128,-1,24
 207 177 207 177 227.5 173 c 128,-1,25
 248 169 248 169 264 161 c 0,26,27
 300 144 300 144 302 112 c 1,28,-1
 302 110 l 2,29,30
 302 68 302 68 266 42 c 0,31,32
 232 19 232 19 184 18 c 0,33,34
 138 18 138 18 104 42 c 0,35,36
 68 68 68 68 68 110 c 2,19,-1
225 289 m 1,37,-1
 225 294 l 1,38,39
 224 316 224 316 212 326 c 128,-1,40
 200 336 200 336 185.5 336 c 128,-1,41
 171 336 171 336 158.5 325.5 c 128,-1,42
 146 315 146 315 146 294 c 2,43,-1
 146 292 l 2,44,45
 146 281 146 281 158 274.5 c 128,-1,46
 170 268 170 268 184.5 267.5 c 128,-1,47
 199 267 199 267 211 272.5 c 128,-1,48
 223 278 223 278 225 289 c 1,37,-1
225 106 m 1,49,-1
 225 112 l 1,50,51
 221 131 221 131 185 131 c 1,52,53
 171 131 171 131 159 126 c 128,-1,54
 147 121 147 121 146 112 c 1,55,-1
 146 110 l 2,56,57
 146 87 146 87 158 75 c 128,-1,58
 170 63 170 63 184.5 63 c 128,-1,59
 199 63 199 63 211.5 74 c 128,-1,60
 224 85 224 85 225 106 c 1,49,-1
EndSplineSet
Validated: 1
Substitution2: "Accent marker rearrangement single substitution 39-1" u1CF4
Substitution2: "Accent marker rearrangement single substitution 38-1" u0952
Substitution2: "Accent marker rearrangement single substitution 37-1" u0951
EndChar

StartChar: u11305
Encoding: 70405 70405 104
Width: 613
Flags: MW
LayerCount: 2
Fore
SplineSet
197 357 m 1,0,-1
 197 258 l 1,1,-1
 279 258 l 1,2,-1
 279 357 l 1,3,-1
 197 357 l 1,0,-1
279 211 m 1,4,-1
 171 211 l 1,5,6
 125 201 125 201 104 176 c 0,7,8
 89 158 89 158 89 139 c 3,9,10
 89 132 89 132 90 125 c 0,11,12
 98 99 98 99 134.5 79 c 128,-1,13
 171 59 171 59 241 59 c 3,14,15
 270 59 270 59 278 88 c 0,16,17
 280 95 280 95 279 153 c 0,18,19
 279 177 279 177 279 211 c 1,4,-1
242 0 m 2,20,-1
 238 0 l 2,21,22
 124 0 124 0 72 54 c 0,23,24
 36 91 36 91 35 132 c 0,25,26
 35 149 35 149 41 166 c 0,27,28
 50 194 50 194 74 217 c 128,-1,29
 98 240 98 240 135 251 c 1,30,-1
 135 381 l 2,31,32
 135 403 135 403 166 403 c 2,33,-1
 354 403 l 6,34,35
 434 403 434 403 440 396 c 128,-1,36
 446 389 446 389 446 380.5 c 131,-1,37
 446 372 446 372 440.5 364.5 c 128,-1,38
 435 357 435 357 354 357 c 1,39,-1
 354 258 l 1,40,-1
 509 258 l 1,41,-1
 509 306 l 2,42,43
 509 317 509 317 518.5 323.5 c 128,-1,44
 528 330 528 330 540 330 c 2,45,46
 544 330 l 2,47,48
 572 330 572 330 572 309 c 2,49,-1
 572 17 l 2,50,51
 572 10 572 10 560 6 c 0,52,53
 544 0 544 0 522 0 c 3,54,55
 495 0 495 0 457 8 c 0,56,57
 398 20 398 20 398 117 c 2,58,-1
 398 211 l 1,59,-1
 354 211 l 1,60,-1
 354 116 l 2,61,62
 354 42 354 42 296 13 c 0,63,64
 270 0 270 0 242 0 c 2,20,-1
509 211 m 1,65,-1
 447 211 l 1,66,-1
 447 81 l 2,67,68
 447 55 447 55 456 46.5 c 0,69,70
 469 34 469 34 492 34 c 2,71,-1
 509 34 l 1,72,-1
 509 211 l 1,65,-1
EndSplineSet
EndChar

StartChar: u11306
Encoding: 70406 70406 105
Width: 798
Flags: MW
LayerCount: 2
Fore
SplineSet
261 362 m 1,0,-1
 261 261 l 1,1,-1
 341 261 l 1,2,-1
 341 362 l 1,3,-1
 261 362 l 1,0,-1
497 214 m 1,4,-1
 497 119 l 2,5,6
 497 79 497 79 526 48 c 0,7,8
 541 33 541 33 548 33 c 0,9,10
 556 33 556 33 556 49 c 2,11,-1
 556 214 l 1,12,-1
 497 214 l 1,4,-1
234 214 m 2,13,14
 188 214 188 214 169 179 c 0,15,16
 154 160 154 160 154 141 c 3,17,18
 154 134 154 134 156 128 c 0,19,20
 163 102 163 102 199.5 81 c 128,-1,21
 236 60 236 60 302 60 c 2,22,-1
 306 60 l 2,23,24
 322 60 322 60 331 69 c 0,25,26
 341 79 341 79 341 93 c 26,27,-1
 341 214 l 1,28,-1
 234 214 l 2,13,14
615 206 m 1,29,-1
 615 50 l 2,30,31
 615 27 615 27 600 12 c 0,32,33
 588 0 588 0 565 -0 c 2,34,-1
 554 0 l 2,35,36
 529 0 529 0 506 18 c 0,37,38
 459 52 459 52 459 119 c 2,39,-1
 459 214 l 1,40,-1
 417 214 l 1,41,-1
 417 175 l 2,42,43
 417 66 417 66 403 42 c 0,44,45
 377 0 377 0 311 0 c 131,-1,46
 245 0 245 0 202.5 17 c 128,-1,47
 160 34 160 34 136.5 58 c 0,48,49
 112 82 112 82 106 112 c 0,50,51
 104 124 104 124 104 136 c 3,52,53
 104 153 104 153 109 169 c 0,54,55
 118 197 118 197 141.5 220 c 128,-1,56
 165 243 165 243 202 254 c 1,57,-1
 202 393 l 2,58,59
 202 409 202 409 231 409 c 2,60,-1
 490 409 l 6,61,62
 510 409 510 409 510 382 c 4,63,64
 510 362 510 362 489 362 c 6,65,-1
 417 362 l 1,66,-1
 417 261 l 1,67,-1
 556 261 l 1,68,-1
 556 324 l 2,69,70
 556 336 556 336 566 342 c 128,-1,71
 576 348 576 348 585.5 348.5 c 128,-1,72
 595 349 595 349 605 344 c 128,-1,73
 615 339 615 339 615 327 c 2,74,-1
 615 253 l 1,75,76
 718 230 718 230 754 156 c 0,77,78
 765 133 765 133 765 118 c 3,79,80
 765 8 765 8 662 -49 c 0,81,82
 575 -97 575 -97 435 -97 c 131,-1,83
 295 -97 295 -97 174.5 -59 c 128,-1,84
 54 -21 54 -21 23 30 c 1,85,-1
 22 31 l 1,86,-1
 79 31 l 1,87,88
 79 13 79 13 107.5 -5 c 128,-1,89
 136 -23 136 -23 181.5 -36 c 128,-1,90
 227 -49 227 -49 284 -57 c 128,-1,91
 341 -65 341 -65 400 -65 c 131,-1,92
 459 -65 459 -65 514 -55 c 0,93,94
 626 -34 626 -34 664 32 c 0,95,96
 680 60 680 60 680 121 c 3,97,98
 680 135 680 135 666 161.5 c 128,-1,99
 652 188 652 188 615 206 c 1,29,-1
EndSplineSet
EndChar

StartChar: u11307
Encoding: 70407 70407 106
Width: 613
Flags: MW
LayerCount: 2
Fore
SplineSet
106 237 m 3,0,1
 106 222 106 222 114.5 212 c 0,2,3
 122.875856205 200.5 122.875856205 200.5 132 200.5 c 3,4,5
 139.265521911 200.5 139.265521911 200.5 149 207.5 c 0,6,7
 158 215 158 215 158 238 c 2,8,-1
 158 243 l 18,9,10
 158 262 158 262 134 262 c 3,11,12
 124 262 124 262 115 255.5 c 128,-1,13
 106 249 106 249 106 237 c 3,0,1
548 47 m 0,14,15
 558 47 558 47 563.5 40.5 c 128,-1,16
 569 34 569 34 569 25.5 c 131,-1,17
 569 17 569 17 563.5 8.5 c 128,-1,18
 558 0 558 0 548 0 c 2,19,-1
 233.5 0 l 0,20,21
 170 0 170 0 139 6.5 c 0,22,23
 108 14 108 14 88 22 c 0,24,25
 50 38 50 38 50.5 62.5 c 0,26,27
 50 87 50 87 73.5 106.5 c 0,28,29
 95.7058823529 125.745098039 95.7058823529 125.745098039 125 129 c 2,30,-1
 278 146 l 2,31,32
 327 151 327 151 373 167 c 0,33,34
 420 183 420 183 444 206 c 128,-1,35
 468 229 468 229 468 267.5 c 131,-1,36
 468 306 468 306 449 332.5 c 0,37,38
 429 362 429 362 406 362 c 2,39,-1
 402 362 l 2,40,41
 385 362 385 362 360.5 339 c 0,42,43
 333 313 333 313 333 255 c 2,44,-1
 333 213 l 2,45,46
 333 185 333 185 296 185 c 3,47,48
 283 185 283 185 271.5 191 c 128,-1,49
 260 197 260 197 260 208 c 3,50,51
 260 266 260 266 242 302 c 128,-1,52
 224 338 224 338 200 350 c 0,53,54
 188 356 188 356 176 357 c 0,55,56
 164 357 164 357 151 350 c 0,57,58
 127 337 127 337 115 299 c 1,59,60
 124 300 124 300 132 300 c 3,61,62
 172 300 172 300 198 270 c 0,63,64
 204 263 204 263 207.5 251.5 c 0,65,66
 210 244 210 244 210 237 c 3,67,68
 210 183 210 183 165 168 c 0,69,70
 150 163 150 163 135 163 c 3,71,72
 109 163 109 163 83 178 c 0,73,74
 44 201 44 201 44 238 c 3,75,76
 44 307 44 307 73.5 348 c 0,77,78
 103 388 103 388 141 398 c 0,79,80
 157 402 157 402 174 402 c 3,81,82
 198 402 198 402 224 392 c 0,83,84
 267 376 267 376 296 335 c 1,85,86
 327 388 327 388 392 400 c 0,87,88
 403 402 403 402 412 402 c 3,89,90
 459 402 459 402 496 372 c 0,91,92
 518 354 518 354 534 326 c 0,93,94
 551 296 551 296 551 260 c 3,95,96
 551 213 551 213 512 178 c 0,97,98
 471 142 471 142 421 130 c 0,99,100
 327 106 327 106 293 104 c 0,101,102
 221 99 221 99 162 96 c 0,103,104
 126 94 126 94 112 84 c 0,105,106
 99 74 99 74 102 63 c 0,107,108
 107 43 107 43 163 43 c 0,109,110
 183.890128558 44.3827849199 183.890128558 44.3827849199 213 46 c 24,111,112
 238 47 238 47 261 47 c 6,113,114
 548 47 l 0,14,15
EndSplineSet
EndChar

StartChar: u11308
Encoding: 70408 70408 107
Width: 736
Flags: MW
LayerCount: 2
Fore
SplineSet
86 203 m 2,0,-1
 86 201 l 2,1,2
 86 181 86 181 94.5 174.5 c 128,-1,3
 103 168 103 168 113.5 170.5 c 0,4,5
 124 174 124 174 132 182 c 0,6,7
 139 189 139 189 139 200 c 2,8,-1
 139 206 l 2,9,10
 139 218 139 218 131.5 225 c 128,-1,11
 124 232 124 232 114 232 c 128,-1,12
 104 232 104 232 96 226 c 0,13,14
 86 218 86 218 86 203 c 2,0,-1
557 204 m 131,-1,16
 557 236 557 236 577 252.5 c 128,-1,17
 597 269 597 269 621 269 c 259,18,19
 645 269 645 269 664 253 c 128,-1,20
 683 237 683 237 683 204.5 c 131,-1,21
 683 172 683 172 664.5 155.5 c 128,-1,22
 646 139 646 139 623 139 c 3,23,24
 600 140 600 140 580 156 c 0,25,15
 557 172 557 172 557 204 c 131,-1,16
180 204 m 3,26,27
 180 166 180 166 157 152 c 0,28,29
 135 138 135 138 111 138 c 2,30,31
 108 138 l 2,32,33
 82 139 82 139 60 156 c 0,34,35
 41 171 41 171 41 197 c 2,36,-1
 41 204 l 2,37,38
 41 234 41 234 62 250 c 0,39,40
 82 264 82 264 108 266 c 2,41,42
 110 266 l 2,43,44
 136 265 136 265 155 252 c 0,45,46
 180 236 180 236 180 204 c 3,26,27
418 41 m 3,47,48
 446 41 446 41 446 59 c 2,49,-1
 446 362 l 1,50,-1
 394 362 l 1,51,-1
 394 51 l 2,52,53
 394 47 394 47 401.5 44 c 128,-1,54
 409 41 409 41 418 41 c 3,47,48
521 54 m 2,55,56
 521 28 521 28 484 9 c 0,57,58
 464 0 464 0 439 0 c 3,59,60
 433 0 433 0 426 1 c 0,61,62
 395 4 395 4 369.5 19 c 128,-1,63
 344 34 344 34 344 53 c 2,64,-1
 344 362 l 1,65,-1
 257 362 l 1,66,-1
 257 20 l 2,67,68
 257 0 257 0 234 0 c 0,69,70
 223 0 223 0 213.5 4.5 c 128,-1,71
 204 9 204 9 204 18 c 2,72,-1
 204 377 l 1,73,74
 200 387 200 387 205.5 398 c 128,-1,75
 211 409 211 409 225 409 c 2,76,-1
 594 409 l 2,77,78
 613 409 613 409 613 385.5 c 131,-1,79
 613 362 613 362 594 362 c 2,80,-1
 521 362 l 5,81,-1
 521 54 l 2,55,56
592 205 m 3,82,83
 592 189 592 189 601 180 c 128,-1,84
 610 171 610 171 621 171 c 131,-1,85
 632 171 632 171 641 179 c 128,-1,86
 650 187 650 187 650 202 c 131,-1,87
 650 217 650 217 640.5 225.5 c 128,-1,88
 631 234 631 234 620.5 236 c 128,-1,89
 610 238 610 238 601 230.5 c 128,-1,90
 592 223 592 223 592 205 c 3,82,83
EndSplineSet
EndChar

StartChar: u1130B
Encoding: 70411 70411 110
Width: 614
Flags: MW
LayerCount: 2
Fore
SplineSet
202 326 m 0,0,1
 210 336 210 336 210 348 c 128,-1,3
 210 360 210 360 198 368 c 128,-1,4
 186 376 186 376 165 380 c 0,5,6
 157 381 157 381 150 382 c 0,7,8
 138 382 138 382 128 378 c 0,9,10
 117 374 117 374 118 355 c 0,11,12
 118 348 118 348 120 338 c 0,13,14
 124 316 124 316 158 310 c 0,15,16
 163 309 163 309 167 309 c 0,17,18
 187 310 187 310 202 326 c 0,0,1
439 369 m 0,19,20
 425 362 425 362 425 348 c 0,21,22
 426 334 426 334 434 324 c 0,23,24
 448 308 448 308 466 309 c 0,25,26
 470 309 470 309 475 310 c 0,27,28
 498 315 498 315 502 322 c 16,29,30
 512 341 512 341 512 353 c 0,31,32
 512 368 512 368 500 374 c 0,33,34
 487 380 487 380 474 379 c 0,35,36
 457 379 457 379 439 369 c 0,19,20
314 52 m 1,37,38
 271 0 271 0 207 0 c 0,39,40
 136 0 136 0 94 43 c 0,41,42
 76 62 76 62 68 86 c 0,43,44
 65 96 65 96 65 106 c 0,45,46
 66 120 66 120 72 134 c 0,47,48
 82 158 82 158 116.5 178.5 c 128,-1,49
 151 199 151 199 208 212 c 1,50,51
 162 225 162 225 127 250 c 0,52,53
 59 299 59 299 59 349 c 0,54,55
 58 391 58 391 114 405 c 0,56,57
 133 410 133 410 154 410 c 0,58,59
 184 410 184 410 216 399 c 0,60,61
 272 380 272 380 271 349 c 0,62,63
 271 316 271 316 238 298 c 0,64,65
 209 282 209 282 165 282 c 1,66,67
 217 236 217 236 311 236 c 0,68,69
 407 236 407 236 465 282 c 1,70,71
 425 282 425 282 403 294 c 0,72,73
 363 317 363 317 363 349 c 0,74,75
 364 364 364 364 380 378 c 0,76,77
 413 405 413 405 470 409 c 0,78,79
 478 410 478 410 484 410 c 0,80,81
 505 410 505 410 521 405 c 0,82,83
 562 392 562 392 562 341 c 0,84,85
 562 331 562 331 560 319 c 0,86,87
 555 282 555 282 515.5 253.5 c 128,-1,88
 476 225 476 225 427 211 c 1,89,90
 518 191 518 191 546 136 c 0,91,92
 554 120 554 120 555 103 c 0,93,94
 554 74 554 74 532 46 c 0,95,96
 494 0 494 0 426.5 0 c 128,-1,97
 359 0 359 0 314 52 c 1,37,38
281 133 m 1,98,-1
 281 138 l 2,99,100
 281 147 281 147 292 152 c 128,-1,101
 303 157 303 157 316 157 c 128,-1,102
 329 157 329 157 341 152 c 128,-1,103
 353 147 353 147 354 138 c 1,104,-1
 354 133 l 2,105,106
 354 74 354 74 392 51 c 0,107,108
 406 43 406 43 431 43 c 128,-1,109
 456 43 456 43 472 52.5 c 128,-1,110
 488 62 488 62 496 76 c 0,111,112
 501 85 501 85 501 95 c 0,113,114
 501 101 501 101 500 107 c 0,115,116
 490 144 490 144 414 167 c 0,117,118
 366 183 366 183 315 182.5 c 128,-1,119
 264 182 264 182 211 167 c 0,120,121
 137 144 137 144 130 107 c 0,122,123
 129 102 129 102 129 97 c 0,124,125
 129 70 129 70 161 54 c 0,126,127
 179 46 179 46 203 45.5 c 128,-1,128
 227 45 227 45 240.5 53 c 128,-1,129
 254 61 254 61 262 74 c 0,130,131
 279 101 279 101 281 133 c 1,98,-1
EndSplineSet
EndChar

StartChar: u1130C
Encoding: 70412 70412 111
Width: 825
Flags: MW
LayerCount: 2
Fore
SplineSet
696 361 m 1,0,-1
 786 361 l 1,1,-1
 786 409 l 1,2,-1
 338 409 l 1,3,-1
 338 314 l 1,4,5
 330 329 330 329 318 349 c 0,6,7
 296 390 296 390 240 405 c 0,8,9
 225 409 225 409 209 408 c 0,10,11
 192 407 192 407 174 403 c 0,12,13
 140 395 140 395 117 372.5 c 128,-1,14
 94 350 94 350 80 321 c 0,15,16
 51 261 51 261 51 187 c 131,-1,17
 51 113 51 113 79 61 c 0,18,19
 113 0 113 0 170 0 c 2,20,-1
 179 0 l 2,21,22
 202 0 202 0 220.5 20.5 c 128,-1,23
 239 41 239 41 248 73 c 0,24,25
 256 99 256 99 256 128 c 2,26,-1
 256 137 l 2,27,28
 256 168 256 168 238.5 198 c 0,29,30
 223 225 223 225 192 239 c 0,31,32
 175 247 175 247 151 247 c 0,33,34
 133 247 133 247 111 242 c 1,35,36
 119 288 119 288 135 313 c 128,-1,37
 151 338 151 338 184 346 c 1,38,-1
 221 346 l 1,39,40
 259 333 259 333 297 283 c 0,41,42
 336 231 336 231 336 190 c 2,43,-1
 336 0 l 1,44,-1
 401 0 l 1,45,-1
 401 361 l 1,46,-1
 498 361 l 1,47,-1
 498 76 l 2,48,49
 498 63 498 63 524.5 36.5 c 0,50,51
 548 13 548 13 570 5 c 0,52,53
 584 0 584 0 598 0 c 3,54,55
 626 0 626 0 652 20 c 0,56,57
 673 36 673 36 684.5 62.5 c 128,-1,58
 696 89 696 89 696 107 c 2,59,-1
 696 361 l 1,0,-1
633 361 m 1,60,-1
 633 110 l 2,61,62
 633.635642127 45 633.635642127 45 605 45 c 3,63,64
 598.358280913 45 598.358280913 45 579.5 55 c 0,65,66
 559 67 559 67 559 95 c 2,67,-1
 559 361 l 1,68,-1
 633 361 l 1,60,-1
111 186 m 24,69,70
 117.169921875 192.64453125 117.169921875 192.64453125 125 196 c 24,71,72
 138.333007812 201 138.333007812 201 151 201 c 3,73,74
 180 201 180 201 197 173 c 0,75,76
 210 151 210 151 210 124 c 3,77,78
 210 109 210 109 206 92 c 0,79,80
 195 45 195 45 168 45 c 3,81,82
 131.944335938 45 131.944335938 45 111 83 c 0,83,84
 96 108 96 108 96 139 c 3,85,86
 96 158.599609375 96 158.599609375 99 168 c 24,87,88
 101 176 101 176 111 186 c 24,69,70
EndSplineSet
EndChar

StartChar: u1130F
Encoding: 70415 70415 112
Width: 1131
Flags: MW
LayerCount: 2
Fore
SplineSet
96 152 m 0,0,1
 96 116 96 116 112 79 c 0,2,3
 124 54 124 54 137 47.5 c 128,-1,4
 150 41 150 41 160.5 50 c 128,-1,5
 171 59 171 59 172 78 c 2,6,7
 172 94 l 2,8,9
 172 109 172 109 163 128 c 128,-1,10
 154 147 154 147 141.5 158 c 128,-1,11
 129 169 129 169 116 168 c 0,12,13
 97 167 97 167 96 152 c 0,0,1
782 315 m 1,14,15
 725 269 725 269 725 176 c 2,16,-1
 725 175 l 2,17,18
 726 108 726 108 742 74 c 0,19,20
 758 41 758 41 777 40 c 0,21,-1
 778 40 l 0,22,23
 798 40 798 40 814.5 74 c 128,-1,24
 831 108 831 108 831 175 c 0,25,26
 831 270 831 270 782 315 c 1,14,15
1108 377 m 132,-1,28
 1108 354 1108 354 1091 354 c 6,29,-1
 1026 354 l 1,30,-1
 1026 26 l 2,31,32
 1026 16 1026 16 1016 8 c 128,-1,33
 1006 0 1006 0 992 0 c 0,34,35
 956 0 956 0 956 26 c 2,36,-1
 956 354 l 1,37,-1
 932 354 l 24,38,-1
 837 342 l 1,39,40
 897 274 897 274 897 175 c 2,41,-1
 897 172 l 2,42,43
 897 116 897 116 879 76.5 c 128,-1,44
 861 37 861 37 836 18 c 0,45,46
 812 -1 812 -1 784 -1 c 0,47,-1
 782 -0 l 0,48,49
 754 0 754 0 728 20 c 0,50,51
 671 64 671 64 671 174 c 3,52,53
 671 279 671 279 741 341 c 1,54,55
 715 348 715 348 698 348 c 2,56,-1
 696 348 l 2,57,58
 641 348 641 348 607 290 c 0,59,60
 570 227 570 227 570 160 c 0,61,62
 570 156 570 156 570 152 c 0,63,64
 570 87 570 87 600 52 c 1,65,66
 611 50 611 50 614 38 c 0,67,68
 616 32 616 32 616 22 c 3,69,70
 616 0 616 0 592 0 c 2,71,-1
 260 0 l 2,72,73
 255.6 8.881784197e-15 255.6 8.881784197e-15 252 6 c 2,74,-1
 249 11 l 2,75,76
 247 14 247 14 247 20 c 2,77,-1
 247 27 l 2,78,79
 247 34.5 247 34.5 250 38 c 2,80,-1
 256 45 l 2,81,82
 259 49 259 49 266 49 c 2,83,-1
 268 49 l 2,84,85
 274 49 274 49 288 63 c 128,-1,86
 302 77 302 77 316 98 c 0,87,88
 348 148 348 148 348 196 c 0,89,90
 348 199 348 199 348 201 c 0,91,92
 348 246 348 246 333 276 c 0,93,94
 316 308 316 308 292 327 c 0,95,96
 272 342 272 342 238 349 c 0,97,98
 233 350 233 350 227 350 c 0,99,100
 203 350 203 350 180 338 c 0,101,102
 152 324 152 324 128 292 c 128,-1,103
 104 260 104 260 93 208 c 1,104,105
 98 209 98 209 103 209 c 0,106,107
 138 209 138 209 180 174 c 0,108,109
 226 134 226 134 226 93 c 3,110,111
 226 66 226 66 211 38 c 0,112,113
 192 0 192 0 152.5 0 c 128,-1,114
 113 0 113 0 88 28 c 0,115,116
 38 84 38 84 38 183 c 3,117,118
 38 193 38 193 39 204 c 24,119,120
 59 343 59 343 158 390 c 0,121,122
 194 407 194 407 233 407 c 0,123,124
 241 407 241 407 249 406 c 0,125,126
 297 402 297 402 337.5 377 c 128,-1,127
 378 352 378 352 404.5 308 c 128,-1,128
 431 264 431 264 431 212 c 0,129,130
 431 122 431 122 350 49 c 1,131,-1
 539 49 l 1,132,133
 514 91 514 91 514 163 c 0,134,135
 514 168 514 168 514 174 c 0,136,137
 518 325 518 325 612 381 c 0,138,139
 649 403 649 403 698 408 c 1,140,141
 753 408 753 408 799 377 c 1,142,143
 852 400 852 400 932 400 c 2,144,-1
 1091 400 l 6,145,27
 1108 400 1108 400 1108 377 c 132,-1,28
EndSplineSet
EndChar

StartChar: u11313
Encoding: 70419 70419 114
Width: 735
Flags: MW
LayerCount: 2
Fore
SplineSet
518 -99 m 2,0,1
 518 -121 518 -121 489 -121 c 128,-1,2
 460 -121 460 -121 460 -99 c 2,3,-1
 460 0 l 1,4,-1
 291 0 l 2,5,6
 285.6 0 285.6 0 282 6 c 2,7,-1
 279 11 l 2,8,9
 278 13 278 13 278 18 c 2,10,-1
 278 30 l 2,11,12
 278 40 278 40 284 42.5 c 6,13,-1
 291 45.5 l 6,14,15
 292 46 292 46 294 46 c 2,16,-1
 303 46 l 2,17,18
 380 46 380 46 431 84 c 0,19,20
 480 120 480 120 486 184 c 1,21,22
 485 220 485 220 479 249 c 0,23,24
 472 278 472 278 452 298 c 0,25,26
 409 341 409 341 295 345 c 0,27,28
 233 347 233 347 176 312 c 0,29,30
 122 279 122 279 97 208 c 1,31,32
 115 214 115 214 131 214 c 0,33,34
 159 214 159 214 184 198 c 0,35,36
 228 170 228 170 228 113 c 0,37,38
 228 72 228 72 200.5 51.5 c 0,39,40
 171 30 171 30 138 30 c 2,41,-1
 135 30 l 2,42,43
 102 30 102 30 74 48 c 0,44,45
 46 65 46 65 37 101 c 0,46,47
 35 109 35 109 35 113 c 0,48,49
 35 232 35 232 98 312 c 0,50,51
 171 404 171 404 295 406 c 0,52,53
 495 408 495 408 561 296 c 0,54,55
 584 257 584 257 584 198 c 0,56,57
 584 191 584 191 584 184 c 0,58,59
 584 133 584 133 530 81 c 0,60,61
 510 62 510 62 483 46 c 1,62,-1
 631 46 l 2,63,64
 644 46 644 46 652 39 c 128,-1,65
 660 32 660 32 661.5 23 c 128,-1,66
 663 14 663 14 655 7 c 128,-1,67
 647 0 647 0 631 0 c 2,68,-1
 518 0 l 1,69,-1
 518 -99 l 2,0,1
98 158 m 0,70,71
 82 144 82 144 82 116 c 128,-1,72
 82 88 82 88 98 75.5 c 128,-1,73
 114 63 114 63 132 63 c 128,-1,74
 150 63 150 63 166 75.5 c 128,-1,75
 182 88 182 88 182 115 c 128,-1,76
 182 142 182 142 166.5 157 c 0,77,78
 149 173 149 173 131 173 c 131,-1,79
 112.972243623 173 112.972243623 173 98 158 c 0,70,71
EndSplineSet
EndChar

StartChar: u11315
Encoding: 70421 70421 116
Width: 572
Flags: MW
AnchorPoint: "stacking" 286 0 basechar 0
LayerCount: 2
Fore
SplineSet
380 32 m 0,0,1
 372 41 372 41 366 64 c 0,2,3
 362 81 362 81 362 99 c 3,4,5
 362 106 362 106 363 113 c 0,6,7
 367 169 367 169 392 212 c 1,8,-1
 313 212 l 1,9,-1
 313 149 l 2,10,11
 313 81 313 81 302 50 c 0,12,13
 290 13 290 13 270 4 c 0,14,15
 261 0 261 0 253 -0 c 3,16,17
 244 0 244 0 234 4 c 0,18,19
 214 14 214 14 198 35 c 1,20,21
 179 -0 179 -0 150 0 c 3,22,23
 130 0 130 0 104 16 c 0,24,25
 80 32 80 32 62 62 c 0,26,27
 42 95 42 95 41 131 c 0,28,29
 41 162 41 162 60 194 c 0,30,31
 80 228 80 228 132 252 c 1,32,-1
 132 388 l 2,33,34
 132 402 132 402 148 407 c 24,35,36
 160 411 160 411 181 411 c 2,37,-1
 368 411 l 6,38,39
 383 411 383 411 392 403.5 c 132,-1,40
 401 396 401 396 401 387 c 135,-1,41
 401 378 401 378 392 371 c 132,-1,42
 383 364 383 364 364 364 c 6,43,-1
 313 364 l 1,44,-1
 313 260 l 1,45,46
 369 260 369 260 426 260 c 256,47,48
 496 260 496 260 520 192 c 0,49,50
 531 160 531 160 531 127 c 3,51,52
 531 95 531 95 523 68 c 0,53,54
 504 0 504 0 448 0 c 3,55,56
 408 0 408 0 380 32 c 0,0,1
252 212 m 1,57,-1
 156 212 l 24,58,59
 116 194 116 194 102 169 c 0,60,61
 89 147 89 147 89 126 c 3,62,63
 89 99 89 99 104.5 79 c 0,64,65
 118 62 118 62 133 58 c 128,-1,66
 148 54 148 54 160 68 c 0,67,68
 175 84 175 84 175 104 c 2,69,70
 175 143.5 l 2,71,72
 175 150 175 150 185 156 c 0,73,74
 195 163 195 163 204 154.5 c 0,75,76
 209 150 209 150 209 145 c 2,77,-1
 209 104.5 l 2,78,79
 209 86 209 86 221 69 c 0,80,81
 229 58 229 58 234 58 c 3,82,83
 252 58 252 58 252 122 c 2,84,-1
 252 212 l 1,57,-1
402 98 m 3,85,86
 402 74 402 74 409 63 c 24,87,88
 425 38 425 38 445 40 c 128,-1,89
 465 42 465 42 479 67 c 0,90,91
 493 91 493 91 496 114 c 0,92,93
 497 121 497 121 497 128 c 3,94,95
 497 146 497 146 491 166 c 0,96,97
 481 198 481 198 463.5 207 c 128,-1,98
 446 216 446 216 440 210 c 24,99,100
 402 171 402 171 402 108 c 0,101,102
 402 103 402 103 402 98 c 3,85,86
181 364 m 1,103,-1
 181 260 l 1,104,-1
 252 260 l 1,105,-1
 252 364 l 1,106,-1
 181 364 l 1,103,-1
EndSplineSet
EndChar

StartChar: u11316
Encoding: 70422 70422 117
Width: 982
Flags: MW
AnchorPoint: "stacking" 486 0 basechar 0
LayerCount: 2
Fore
SplineSet
408 47 m 0,0,1
 416 67 416 67 437 78 c 128,-1,2
 458 89 458 89 485 98.5 c 128,-1,3
 512 108 512 108 534 119 c 128,-1,4
 556 130 556 130 578 154 c 0,5,6
 602 181 602 181 597 202 c 0,7,8
 596 206 596 206 596 211 c 0,9,10
 592 244 592 244 559.5 280 c 128,-1,11
 527 316 527 316 479.5 332 c 0,12,13
 426 349 426 349 376 349 c 0,14,15
 370 349 370 349 365 350 c 0,16,17
 316 350 316 350 269 338 c 0,18,19
 217 325 217 325 174 296 c 128,-1,20
 131 267 131 267 111 221 c 1,21,22
 125 224 125 224 140 224 c 0,23,24
 163 225 163 225 189 217 c 0,25,26
 284 188 284 188 279 115 c 0,27,28
 278 101 278 101 276 87 c 0,29,30
 270 53 270 53 248.5 32 c 0,31,32
 227 10 227 10 196 3 c 0,33,34
 182 0 182 0 168 0 c 0,35,36
 117 0 117 0 77 50 c 0,37,38
 38 99 38 99 38 154.5 c 128,-1,39
 38 210 38 210 65 256.5 c 128,-1,40
 92 303 92 303 137 335 c 128,-1,41
 182 367 182 367 240 384 c 128,-1,42
 298 401 298 401 359 405 c 0,43,44
 376 406 376 406 393 406 c 0,45,46
 438 407 438 407 480 399 c 0,47,48
 605 377 605 377 665 300 c 0,49,50
 702 253 702 253 701 207 c 0,51,52
 698.995453857 131.829519624 698.995453857 131.829519624 594 87 c 2,53,54
 505 49 l 25,55,-1
 866 49 l 1,56,-1
 866 382 l 2,57,58
 866 393 866 393 877 398 c 128,-1,59
 888 403 888 403 900 403 c 256,60,61
 912 403 912 403 923 397.5 c 128,-1,62
 934 392 934 392 934 381 c 2,63,-1
 934 25 l 2,64,65
 934 13 934 13 923 7 c 1,66,-1
 901 0 l 1,67,-1
 413 0 l 1,68,69
 405 16 405 16 405 30 c 0,70,71
 405 39 405 39 408 47 c 0,0,1
114 93 m 0,72,73
 138 47 138 47 176 46 c 0,74,75
 179 47 179 47 181 47 c 0,76,77
 199 49 199 49 211.5 60.5 c 0,78,79
 224 71 224 71 228 91 c 0,80,81
 229 98 229 98 229 104 c 0,82,83
 229 144 229 144 182 172 c 0,84,85
 158 187 158 187 138 187 c 0,86,87
 126 187 126 187 115 181 c 0,88,89
 96 171 96 171 96 149 c 128,-1,90
 96 127 96 127 114 93 c 0,72,73
EndSplineSet
EndChar

StartChar: u11317
Encoding: 70423 70423 118
Width: 570
Flags: MW
AnchorPoint: "stacking" 280 0 basechar 0
LayerCount: 2
Fore
SplineSet
398 335 m 0,0,1
 388 321 388 321 377 280.5 c 128,-1,2
 366 240 366 240 365 206.5 c 128,-1,3
 364 173 364 173 347 154 c 128,-1,4
 330 135 330 135 305 131 c 0,5,6
 298 130 298 130 291 129 c 0,7,8
 272 129 272 129 251 137 c 0,9,10
 222 149 222 149 198 179 c 0,11,12
 143 249 143 249 143 381 c 0,13,14
 143 385 143 385 143 389 c 1,15,-1
 144 389 l 1,16,17
 144 397 144 397 153.5 401.5 c 128,-1,18
 163 406 163 406 175 406 c 128,-1,19
 187 406 187 406 196.5 401.5 c 128,-1,20
 206 397 206 397 206 389 c 0,21,22
 206 296 206 296 221 246.5 c 128,-1,23
 236 197 236 197 254 179 c 0,24,25
 266 167 266 167 276 168 c 0,26,27
 281 168 281 168 286 171 c 0,28,29
 301 180 301 180 301 205 c 2,30,-1
 301 209 l 1,31,32
 318 360 318 360 380 395 c 0,33,34
 397 404 397 404 414 404 c 0,35,36
 424 404 424 404 434 401 c 0,37,38
 462 392 462 392 486.5 369 c 0,39,40
 510 345 510 345 520 319 c 0,41,42
 529 291 529 291 530 257 c 0,43,44
 530 226 530 226 522 189 c 0,45,46
 514 149 514 149 486 109 c 0,47,48
 423 0 423 0 292 0 c 6,49,-1
 55 0 l 2,50,51
 43 0 43 0 37 7.5 c 128,-1,52
 31 15 31 15 31 24 c 132,-1,53
 31 33 31 33 36 40.5 c 128,-1,54
 41 48 41 48 53 48 c 2,55,-1
 293 48 l 2,56,57
 367 48 367 48 410 115 c 0,58,59
 450 178 450 178 451 260 c 0,60,61
 451 315 451 315 434 337 c 0,62,63
 426 348 426 348 417 348 c 0,64,65
 407 348 407 348 398 335 c 0,0,1
EndSplineSet
EndChar

StartChar: u11318
Encoding: 70424 70424 119
Width: 919
Flags: MW
AnchorPoint: "stacking" 456 0 basechar 0
LayerCount: 2
Fore
SplineSet
116 92 m 0,0,1
 138 47 138 47 170 47 c 0,2,3
 173 47 173 47 176 47 c 0,4,5
 192 49 192 49 203 61 c 128,-1,6
 214 73 214 73 217 95 c 0,7,8
 218 100 218 100 218 106 c 0,9,10
 218 145 218 145 173 171 c 0,11,12
 151 184 151 184 134 184 c 0,13,14
 124 185 124 185 116 179 c 0,15,16
 100 169 100 169 100 147 c 0,17,18
 100 126 100 126 116 92 c 0,0,1
395 44 m 1,19,-1
 579 44 l 1,20,-1
 579 383 l 2,21,22
 579 394 579 394 589 399.5 c 128,-1,23
 599 405 599 405 610.5 405 c 128,-1,24
 622 405 622 405 632.5 399.5 c 128,-1,25
 643 394 643 394 643 383 c 2,26,-1
 643 44 l 1,27,28
 714 44 714 44 784 44 c 1,29,-1
 784 381 l 2,30,31
 784 403 784 403 824 403 c 128,-1,32
 864 403 864 403 864 383 c 2,33,-1
 864 33 l 2,34,35
 864 18 864 18 847.5 8 c 0,36,37
 834 0 834 0 821 0 c 2,38,-1
 321 0 l 1,39,-1
 321 44 l 1,40,41
 369 46 369 46 384 149 c 0,42,43
 388 177 388 177 388 214.5 c 128,-1,44
 388 252 388 252 370 284.5 c 128,-1,45
 352 317 352 317 324.5 335 c 0,46,47
 307 346 307 346 264 355 c 0,48,49
 259 356 259 356 254 356 c 0,50,51
 226 355 226 355 198 343 c 0,52,53
 128 311 128 311 105 215 c 1,54,55
 120 221 120 221 140 221 c 0,56,57
 183 221 183 221 219 195 c 0,58,59
 265 161 265 161 265 111 c 0,60,61
 265 99 265 99 262 86 c 0,62,63
 255 53 255 53 233.5 31.5 c 0,64,65
 214 12 214 12 182 3 c 0,66,67
 171 0 171 0 160 0 c 0,68,69
 142 -1 142 -1 124 7 c 0,70,71
 96 19 96 19 73 54 c 0,72,73
 48 92 48 92 48 158 c 0,74,75
 48 161 48 161 48 164 c 0,76,77
 48 229 48 229 78 284 c 0,78,79
 109 341 109 341 155.5 370 c 0,80,81
 198 397 198 397 256 403 c 0,82,83
 265 404 265 404 274 404 c 0,84,85
 318 405 318 405 356 387 c 0,86,87
 402 365 402 365 435.5 317.5 c 128,-1,88
 469 270 469 270 469 214 c 0,89,90
 469 105 469 105 395 44 c 1,19,-1
EndSplineSet
EndChar

StartChar: u11319
Encoding: 70425 70425 120
Width: 607
Flags: MW
AnchorPoint: "stacking" 307 -145 basechar 0
LayerCount: 2
Fore
SplineSet
548 0 m 2,0,-1
 356 0 l 1,1,-1
 356 -129 l 1,2,3
 344 -145 344 -145 330 -145 c 0,4,5
 318 -145 318 -145 305 -134 c 1,6,-1
 305 0 l 1,7,-1
 216 0 l 2,8,9
 95 0 95 0 60 39 c 0,10,11
 51 49 51 49 51 67 c 128,-1,12
 51 85 51 85 73.5 104.5 c 0,13,14
 96.3086419753 124.267489712 96.3086419753 124.267489712 125 127 c 2,15,-1
 146 129 l 1,16,17
 249 140 249 140 292 146 c 0,18,19
 336 153 336 153 378 167 c 0,20,21
 468 197 468 197 468 262 c 0,22,23
 468 304 468 304 449 330.5 c 0,24,25
 429 359 429 359 406 359 c 0,26,27
 404 359 404 359 402 360 c 0,28,29
 380 361 380 361 362 337 c 0,30,31
 342 311 342 311 333 252 c 1,32,-1
 333 211 l 2,33,34
 333 183 333 183 296 183 c 0,35,36
 283 183 283 183 271.5 189 c 128,-1,37
 260 195 260 195 260 206 c 0,38,39
 260 264 260 264 242 300 c 0,40,41
 224 337 224 337 200 349 c 0,42,43
 188 355 188 355 176 355 c 128,-1,44
 164 355 164 355 151 348 c 0,45,46
 127 335 127 335 115 297 c 1,47,48
 124 298 124 298 132 298 c 0,49,50
 175 298 175 298 198 268 c 0,51,52
 210 253 210 253 210 235 c 0,53,54
 210 181 210 181 166 167 c 0,55,56
 150 162 150 162 135 162 c 0,57,58
 108 163 108 163 83 177 c 0,59,60
 44 200 44 200 44 234 c 0,61,62
 44 305 44 305 74 346 c 0,63,64
 102 383 102 383 141 395 c 0,65,66
 157 400 157 400 174 400 c 0,67,68
 198 401 198 401 224 391 c 0,69,70
 267 375 267 375 296 333 c 1,71,72
 318 385 318 385 384 397 c 0,73,74
 405 401 405 401 423 400 c 0,75,76
 530 400 530 400 532 264 c 1,77,78
 532 163 532 163 421 127 c 0,79,80
 364 109 364 109 293 101 c 1,81,-1
 142 92 l 2,82,83
 124 91 124 91 111.5 81.5 c 128,-1,84
 99 72 99 72 102 61 c 0,85,86
 108 41 108 41 166 41 c 0,87,88
 188 41 188 41 217 44 c 9,89,90
 216 46 216 46 548 46 c 0,91,92
 558 46 558 46 563.5 39 c 128,-1,93
 569 32 569 32 569 23.5 c 128,-1,94
 569 15 569 15 563.5 7.5 c 128,-1,95
 558 0 558 0 548 0 c 2,0,-1
114.5 253 m 0,96,97
 106 247 106 247 105 232 c 128,-1,98
 104 217 104 217 114 209 c 0,99,100
 125 199 125 199 136 198 c 0,101,102
 143 199 143 199 150 203 c 0,103,104
 159 209 159 209 159 230 c 0,105,106
 159 260 159 260 134 260 c 0,107,108
 134 259 134 259 132 259 c 0,109,110
 124 259 124 259 114.5 253 c 0,96,97
EndSplineSet
EndChar

StartChar: u1131A
Encoding: 70426 70426 121
Width: 832
Flags: MW
AnchorPoint: "stacking" 415 0 basechar 0
LayerCount: 2
Fore
SplineSet
781 0 m 1,0,1
 415 0 415 0 48 0 c 1,2,-1
 48 41 l 1,3,4
 96 39 96 39 137 39 c 0,5,6
 326 39 326 39 380 87 c 0,7,8
 417 120 417 120 417 157 c 0,9,10
 417 187 417 187 394 219 c 0,11,12
 377 243 377 243 342 257 c 0,13,14
 311 269 311 269 284 269 c 0,15,16
 245 269 245 269 215 244 c 1,17,18
 222 245 222 245 229 245 c 0,19,20
 271 245 271 245 304 223 c 0,21,22
 342 199 342 199 342 156 c 0,23,24
 342 109 342 109 306 84 c 0,25,26
 272 60 272 60 230 60 c 128,-1,27
 188 60 188 60 155 83 c 0,28,29
 123 106 123 106 121 152 c 1,30,-1
 121 161 l 1,31,32
 128 222 128 222 158 259 c 0,33,34
 188 297 188 297 228 313 c 0,35,36
 262 327 262 327 300 326 c 0,37,38
 307 326 307 326 314 326 c 0,39,40
 359 323 359 323 398.5 302.5 c 0,41,42
 438 283 438 283 462 245 c 0,43,44
 484 212 484 212 484 165 c 0,45,46
 484 159 484 159 484 153 c 0,47,48
 479 77 479 77 416 41 c 1,49,50
 671 41 671 41 697 40 c 1,51,-1
 697 352 l 2,52,53
 697 380 697 380 710 390.5 c 128,-1,54
 723 401 723 401 739.5 400.5 c 128,-1,55
 756 400 756 400 768.5 388 c 128,-1,56
 781 376 781 376 781 355 c 2,57,-1
 781 0 l 1,0,1
179 154 m 1,58,-1
 178 154 l 1,59,60
 178 132 178 132 194.5 120.5 c 0,61,62
 210 109 210 109 230 109 c 0,63,64
 231 109 231 109 232 108 c 0,65,66
 250 108 250 108 266 119 c 128,-1,67
 282 130 282 130 283 154 c 1,68,-1
 282 154 l 1,69,70
 282 177 282 177 266 187 c 0,71,72
 252 196 252 196 234 195 c 0,73,74
 232 195 232 195 230 195 c 0,75,76
 210 194 210 194 194.5 183 c 128,-1,77
 179 172 179 172 179 154 c 1,58,-1
EndSplineSet
EndChar

StartChar: u1131B
Encoding: 70427 70427 122
Width: 830
Flags: MW
AnchorPoint: "stacking" 411 0 basechar 0
LayerCount: 2
Fore
SplineSet
52 48 m 1,0,-1
 191 48 l 2,1,2
 312 48 312 48 353 66.5 c 128,-1,3
 394 85 394 85 412 106 c 0,4,5
 434 126 434 126 434 164 c 131,-1,6
 434 202 434 202 410 230 c 0,7,8
 388 258 388 258 356 272 c 0,9,10
 333 282 333 282 306 282 c 0,11,12
 298 282 298 282 290 281 c 0,13,14
 256 277 256 277 230 251 c 1,15,16
 238 252 238 252 245 252 c 0,17,18
 286 252 286 252 316 232 c 0,19,20
 334 220 334 220 346 202 c 0,21,22
 357 184 357 184 357 163 c 3,23,24
 357 114 357 114 322 90 c 0,25,26
 288 67 288 67 245 67 c 131,-1,27
 202 67 202 67 169 90.5 c 128,-1,28
 136 114 136 114 136 159 c 3,29,30
 136 218 136 218 174 255 c 0,31,32
 241 320 241 320 309 320 c 2,33,-1
 326 320 l 2,34,35
 422 318 422 318 472 248 c 0,36,37
 501 209 501 209 501 173 c 2,38,-1
 501 160 l 18,39,40
 501 125 501 125 482 95.5 c 128,-1,41
 463 66 463 66 431 48 c 1,42,-1
 583 48 l 1,43,-1
 583 316 l 2,44,45
 583 405 583 405 681 405 c 3,46,47
 771 405 771 405 771 330 c 2,48,-1
 771 0 l 1,49,-1
 52 0 l 1,50,-1
 52 48 l 1,0,-1
714 311 m 2,51,52
 714 318 714 318 702 330 c 0,53,54
 692 340 692 340 680 340 c 3,55,56
 666 340 666 340 654 333 c 0,57,58
 641 325 641 325 641 303 c 2,59,-1
 641 48 l 1,60,-1
 714 48 l 1,61,-1
 714 311 l 2,51,52
210 190 m 0,62,63
 194 179 194 179 194 159 c 131,-1,64
 194 139 194 139 210.5 127 c 128,-1,65
 227 115 227 115 247 115 c 3,66,67
 266 115 266 115 281 126 c 0,68,69
 297 137 297 137 297 161 c 19,70,71
 297 184 297 184 281 194 c 0,72,73
 267 202 267 202 249 202 c 3,74,75
 227 202 227 202 210 190 c 0,62,63
EndSplineSet
EndChar

StartChar: u1131C
Encoding: 70428 70428 123
Width: 722
Flags: MW
AnchorPoint: "stacking" 367 -108 basechar 0
LayerCount: 2
Fore
SplineSet
414 -17 m 2,0,-1
 341 -81 l 2,1,2
 310 -108 310 -108 241 -108 c 0,3,4
 232 -108 232 -108 222 -108 c 1,5,6
 135 -108 135 -108 87 -58 c 0,7,8
 68 -38 68 -38 62 -9 c 0,9,10
 61 -4 61 -4 61 1 c 0,11,12
 61 23 61 23 75 45 c 0,13,14
 132 136 132 136 265 138 c 0,15,16
 436 140 436 140 513.5 168.5 c 128,-1,17
 591 197 591 197 592 258 c 0,18,19
 592 280 592 280 576 299.5 c 128,-1,20
 560 319 560 319 538 330 c 0,21,22
 513 342 513 342 491 342 c 0,23,24
 468 342 468 342 446 329 c 0,25,26
 401 301 401 301 401 230 c 0,27,28
 401 223 401 223 401 215 c 0,29,30
 401 199 401 199 379 199 c 0,31,32
 374 199 374 199 369 200 c 0,33,34
 337 204 337 204 337 219 c 0,35,36
 337 272 337 272 316 307.5 c 0,37,38
 295 342 295 342 266 358 c 0,39,40
 244 370 244 370 220 370 c 0,41,42
 212 370 212 370 205 369 c 0,43,44
 173 364 173 364 152 338 c 1,45,46
 203 335 203 335 228 281 c 0,47,48
 236 264 236 264 236 252 c 0,49,50
 236 190 236 190 188 172 c 0,51,52
 171 166 171 166 154 166 c 0,53,54
 130 166 130 166 106 176 c 0,55,56
 86 184 86 184 67.5 204.5 c 128,-1,57
 49 225 49 225 49 246 c 0,58,59
 49 336 49 336 111 378 c 0,60,61
 154 408 154 408 205 408 c 0,62,63
 228 408 228 408 252 402 c 0,64,65
 330 384 330 384 373 321 c 1,66,67
 401 392 401 392 474 407 c 0,68,69
 489 410 489 410 504 410 c 4,70,71
 558 410 558 410 606 374 c 0,72,73
 671 329.164296097 671 329.164296097 671 253 c 3,74,75
 671 151.955455367 671 151.955455367 480 110 c 0,76,77
 387 89 387 89 326 88 c 128,-1,78
 265 87 265 87 264 87 c 0,79,80
 200 74 200 74 165 50 c 0,81,82
 128 25 128 25 128 5 c 0,83,84
 128 -14 128 -14 152 -30 c 0,85,86
 177 -46 177 -46 222 -56 c 1,87,88
 305 -56 305 -56 361 0 c 1,89,90
 446 75 446 75 482 79 c 0,91,92
 511 82 511 82 535 82 c 0,93,94
 686 82 686 82 686 -12 c 0,95,96
 686 -15 686 -15 686 -19 c 0,97,98
 686 -108 686 -108 495 -108 c 0,99,100
 482 -108 482 -108 474 -101.5 c 128,-1,101
 466 -95 466 -95 465.5 -88 c 128,-1,102
 465 -81 465 -81 470.5 -75 c 128,-1,103
 476 -69 476 -69 492.5 -69 c 128,-1,104
 509 -69 509 -69 539.5 -66.5 c 128,-1,105
 570 -64 570 -64 588 -47.5 c 128,-1,106
 606 -31 606 -31 607.5 -16.5 c 128,-1,107
 609 -2 609 -2 597 12 c 128,-1,108
 585 26 585 26 563 34 c 0,109,110
 545 40 545 40 525 40 c 0,111,112
 479 40 479 40 414 -17 c 2,0,-1
124 278.5 m 128,-1,114
 116 267 116 267 116 250 c 128,-1,115
 116 233 116 233 123.5 224.5 c 128,-1,116
 131 216 131 216 140.5 214.5 c 128,-1,117
 150 213 150 213 159 219.5 c 128,-1,118
 168 226 168 226 171 242 c 1,119,-1
 171 246 l 2,120,121
 171 265 171 265 162.5 276.5 c 128,-1,122
 154 288 154 288 143 289 c 128,-1,113
 132 290 132 290 124 278.5 c 128,-1,114
EndSplineSet
EndChar

StartChar: u1131D
Encoding: 70429 70429 124
Width: 760
Flags: MW
AnchorPoint: "stacking" 391 0 basechar 0
LayerCount: 2
Fore
SplineSet
546 64 m 3,0,1
 588 64 588 64 616 89 c 0,2,3
 644 113 644 113 654 149 c 0,4,5
 659 166 659 166 660 185 c 0,6,7
 660 205 660 205 654 227 c 0,8,9
 642 269 642 269 605 311 c 1,10,-1
 595 327 l 1,11,12
 596 353 596 353 615 353 c 0,13,14
 629 353 629 353 640 339 c 0,15,16
 688 282 688 282 704 220 c 0,17,18
 712 188 712 188 712 159 c 0,19,20
 712 138 712 138 704 109 c 0,21,22
 690 59 690 59 649.5 29.5 c 128,-1,23
 609 0 609 0 540.5 0 c 128,-1,24
 472 0 472 0 434.5 46 c 128,-1,25
 397 92 397 92 395 162 c 1,26,-1
 358 162 l 1,27,-1
 358 35 l 2,28,29
 358 15 358 15 354 7.5 c 128,-1,30
 350 0 350 0 333 0 c 2,31,-1
 215 0 l 2,32,33
 192 0 192 0 186.5 7.5 c 128,-1,34
 181 15 181 15 181 35 c 2,35,-1
 181 183 l 2,36,37
 181 193 181 193 187.5 199.5 c 128,-1,38
 194 206 194 206 203 206 c 2,39,-1
 285 206 l 1,40,-1
 285 364 l 1,41,-1
 128 364 l 1,42,-1
 128 23 l 18,43,44
 128 12 128 12 119.5 6 c 128,-1,45
 111 0 111 0 102 0 c 0,46,47
 100 0 100 0 98 0 c 0,48,49
 70 0 70 0 70 25 c 2,50,-1
 70 382 l 2,51,52
 70 394 70 394 77.5 403.5 c 128,-1,53
 85 413 85 413 101 413 c 2,54,-1
 415 413 l 6,55,56
 428 413 428 413 435.5 405 c 132,-1,57
 443 397 443 397 443 388 c 260,58,59
 443 379 443 379 436.5 371.5 c 132,-1,60
 430 364 430 364 418 364 c 6,61,-1
 358 364 l 1,62,-1
 358 206 l 1,63,-1
 398 206 l 1,64,65
 409.022282242 287.164078325 409.022282242 287.164078325 454 330 c 2,66,-1
 475 350 l 2,67,68
 481 356 481 356 490.5 355.5 c 128,-1,69
 500 355 500 355 507 351 c 0,70,71
 524 339 524 339 513 328 c 0,72,73
 474 289 474 289 456 243 c 0,74,75
 442 206 442 206 441 173 c 0,76,77
 441 165 441 165 442 157 c 0,78,79
 446 117 446 117 474.5 90.5 c 128,-1,80
 503 64 503 64 546 64 c 3,0,1
241 51 m 1,81,-1
 285 51 l 1,82,-1
 285 162 l 1,83,-1
 241 162 l 1,84,-1
 241 51 l 1,81,-1
EndSplineSet
EndChar

StartChar: u1131E
Encoding: 70430 70430 125
Width: 762
Flags: MW
AnchorPoint: "stacking" 363 0 basechar 0
LayerCount: 2
Fore
SplineSet
431 0 m 2,0,-1
 428 0 l 2,1,2
 304 0 304 0 221 36 c 0,3,4
 177 55 177 55 146 88 c 0,5,6
 118 118 118 118 119 162 c 0,7,8
 119 165 119 165 119 168 c 0,9,10
 119 183 119 183 137 182 c 0,11,12
 156 181 156 181 156 166 c 0,13,14
 156 113 156 113 214 78 c 0,15,16
 226 71 226 71 430 37 c 0,17,18
 436 36 436 36 437 36 c 0,19,20
 539 37 539 37 599 90 c 0,21,22
 624 112 624 112 632 138 c 0,23,24
 636 151 636 151 636 164 c 128,-1,25
 636 177 636 177 632 189 c 0,26,27
 624 213 624 213 597.5 231.5 c 128,-1,28
 571 250 571 250 529 256 c 1,29,-1
 529 214 l 2,30,31
 529 168 529 168 514 142 c 0,32,33
 491 100 491 100 434 100 c 2,34,-1
 430 100 l 2,35,36
 352 100 352 100 311 125.5 c 0,37,38
 270 152 270 152 262 184 c 0,39,40
 260 193 260 193 259 202 c 0,41,42
 258 225 258 225 274 248 c 0,43,44
 296 280 296 280 342 294 c 1,45,46
 337 316 337 316 314.5 335.5 c 0,47,48
 292 356 292 356 260 368 c 0,49,50
 221 383 221 383 187 383 c 0,51,52
 154 383 154 383 125 369 c 1,53,54
 166 366 166 366 186 342 c 0,55,56
 205 319 205 319 205 293 c 0,57,58
 206 264 206 264 182 241 c 0,59,60
 160 219 160 219 111 219 c 128,-1,61
 62 219 62 219 36 253 c 0,62,63
 19 275 19 275 20 297 c 0,64,65
 20 318 20 318 36 337 c 0,66,67
 69 376 69 376 110.5 394 c 0,68,69
 157 414 157 414 194 414 c 0,70,71
 199 414 199 414 204 414 c 0,72,73
 282 414 282 414 343 369 c 1,74,-1
 343 412 l 1,75,-1
 580 412 l 5,76,77
 583 412 583 412 586 412 c 4,78,79
 604 412 604 412 612 406 c 4,80,81
 622 400 622 400 621.5 392 c 132,-1,82
 621 384 621 384 609 377.5 c 132,-1,83
 597 371 597 371 574 371 c 6,84,-1
 529 371 l 1,85,-1
 529 299 l 1,86,87
 597 294 597 294 638.5 270 c 128,-1,88
 680 246 680 246 696 212 c 0,89,90
 707 190 707 190 707 167 c 0,91,92
 707 154 707 154 704 142 c 0,93,94
 695 104 695 104 662 72.5 c 128,-1,95
 629 41 629 41 571 20.5 c 128,-1,96
 513 0 513 0 431 0 c 2,0,-1
373 264 m 2,97,98
 338 264 338 264 319 240 c 0,99,100
 304 221 304 221 304 205 c 0,101,102
 304 200 304 200 306 196 c 0,103,104
 312 177 312 177 342.5 161.5 c 128,-1,105
 373 146 373 146 431 146 c 2,106,-1
 434 146 l 2,107,108
 450 146 450 146 457 156.5 c 128,-1,109
 464 167 464 167 464 177 c 2,110,-1
 464 264 l 1,111,-1
 373 264 l 2,97,98
  Spiro
    373 264 ]
    342 258 o
    319 240 o
    307.75 221.75 o
    304 205 o
    304.5 200.25 o
    306 196 o
    318.125 177.875 o
    342.5 161.5 o
    379.875 149.875 o
    431 146 [
    434 146 ]
    447.75 148.625 o
    457 156.5 o
    462.25 166.875 o
    464 177 [
    464 264 v
    0 0 z
  EndSpiro
153.5 321 m 128,-1,113
 141 333 141 333 114.5 333 c 128,-1,114
 88 333 88 333 74.5 321 c 128,-1,115
 61 309 61 309 61 294.5 c 128,-1,116
 61 280 61 280 74.5 268 c 128,-1,117
 88 256 88 256 114.5 256 c 128,-1,118
 141 256 141 256 153.5 268 c 128,-1,119
 166 280 166 280 166 294.5 c 128,-1,112
 166 309 166 309 153.5 321 c 128,-1,113
  Spiro
    153.5 321 o
    137.5 330 o
    114.5 333 o
    91.25 330 o
    74.5 321 o
    64.375 308.375 o
    61 294.5 o
    64.375 280.625 o
    74.5 268 o
    91.25 259 o
    114.5 256 o
    137.5 259 o
    153.5 268 o
    162.875 280.625 o
    166 294.5 o
    162.875 308.375 o
    0 0 z
  EndSpiro
465 372 m 1,120,121
 396 373 396 373 395 373 c 1,122,-1
 395 300 l 1,123,-1
 465 300 l 1,124,-1
 465 372 l 1,120,121
  Spiro
    465 372 v
    413 372.75 o
    395 373 v
    395 300 v
    465 300 v
    0 0 z
  EndSpiro
EndSplineSet
EndChar

StartChar: u1131F
Encoding: 70431 70431 126
Width: 660
Flags: MW
AnchorPoint: "stacking" 322 -91 basechar 0
LayerCount: 2
Fore
SplineSet
614 25 m 128,-1,1
 614 0 614 0 595 0 c 2,2,-1
 363 0 l 1,3,-1
 363 -67 l 2,4,5
 363 -91 363 -91 328 -91 c 4,6,7
 315 -91 315 -91 305 -85 c 132,-1,8
 295 -79 295 -79 295 -67 c 2,9,-1
 295 0 l 1,10,-1
 64 0 l 2,11,12
 49 0 49 0 39.5 7.5 c 128,-1,13
 30 15 30 15 30 26 c 2,14,-1
 30 386 l 2,15,16
 30 397 30 397 40 403 c 128,-1,17
 50 409 50 409 63 409 c 128,-1,18
 76 409 76 409 86 403 c 128,-1,19
 96 397 96 397 96 386 c 2,20,-1
 96 50 l 1,21,-1
 595 50 l 2,22,0
 614 50 614 50 614 25 c 128,-1,1
EndSplineSet
Position2: "Single Position lookup 0-1" dx=0 dy=0 dh=-160 dv=0
EndChar

StartChar: u11320
Encoding: 70432 70432 127
Width: 624
Flags: MW
AnchorPoint: "stacking" 307 0 basechar 0
LayerCount: 2
Fore
SplineSet
183 382 m 0,0,1
 234 402 234 402 304 402 c 3,2,3
 434 402 434 402 506 342.5 c 128,-1,4
 578 283 578 283 578 200 c 256,5,6
 578 118 578 118 503.5 59 c 128,-1,7
 429 0 429 0 303.5 0 c 132,-1,8
 178 0 178 0 108 59 c 128,-1,9
 38 118 38 118 38 196 c 256,10,11
 38 326 38 326 183 382 c 0,0,1
307 339 m 0,12,13
 224 336 224 336 177 290 c 0,14,15
 131 244 131 244 131 194 c 128,-1,16
 131 144 131 144 175.5 106.5 c 128,-1,17
 220 69 220 69 297 69 c 2,18,-1
 300 69 l 2,19,20
 360 69 360 69 400 89 c 0,21,22
 484 130 484 130 485 202 c 0,23,24
 485 270 485 270 405 314 c 0,25,26
 362 339 362 339 307 339 c 0,12,13
EndSplineSet
EndChar

StartChar: u11321
Encoding: 70433 70433 128
Width: 735
Flags: MW
AnchorPoint: "stacking" 379 0 basechar 0
LayerCount: 2
Fore
SplineSet
139 330 m 5,0,-1
 125 340 l 5,1,2
 113 324 113 324 113 301 c 0,3,4
 113 290 113 290 116 279 c 5,5,6
 120 278 120 278 123 278 c 0,7,8
 138 278 138 278 144 294 c 4,9,10
 147 302 147 302 148 309 c 0,11,12
 148 320 148 320 139 330 c 5,0,-1
343 176 m 6,13,-1
 355 176 l 6,14,15
 388 176 388 176 391 157 c 4,16,17
 397 119 397 119 421.5 95 c 4,18,19
 446 70 446 70 470 64 c 4,20,21
 480 61 480 61 491 62 c 0,22,23
 506 62 506 62 524 67 c 4,24,25
 554 76 554 76 582.5 101 c 4,26,27
 610 126 610 126 612 148 c 4,28,29
 616 203 616 203 617 227 c 0,30,31
 617 235 617 235 616 240 c 4,32,33
 613 287 613 287 582 321.5 c 132,-1,34
 551 356 551 356 485 368 c 4,35,36
 418 380 418 380 410 382 c 4,37,38
 404 382 404 382 403 389.5 c 132,-1,39
 402 397 402 397 412 403 c 4,40,41
 424 410 424 410 447 410 c 0,42,43
 474 410 474 410 516 399 c 4,44,45
 554 389 554 389 595.5 364.5 c 4,46,47
 638 340 638 340 654 314 c 4,48,49
 690 252 690 252 690 215.5 c 132,-1,50
 690 179 690 179 674.5 139 c 4,51,52
 660 99 660 99 634 68 c 4,53,54
 579 1 579 1 502 1 c 0,55,56
 501 1 501 1 500 1 c 4,57,58
 422 2 422 2 360 97 c 5,59,60
 324 26 324 26 248 8 c 4,61,62
 222 2 222 2 199 2 c 0,63,64
 154 2 154 2 118 25 c 4,65,66
 92 42 92 42 78 70 c 4,67,68
 68 90 68 90 67 114 c 0,69,70
 67 124 67 124 69 135 c 5,71,-1
 76 148 l 6,72,73
 88 170 88 170 117.5 191 c 132,-1,74
 147 212 147 212 190.5 238 c 132,-1,75
 234 264 234 264 240 272 c 20,76,77
 258 295 258 295 258 313 c 0,78,79
 258 342 258 342 216 362 c 4,80,81
 201 369 201 369 184 369 c 0,82,83
 182 369 182 369 180 369 c 4,84,85
 160 368 160 368 142 357 c 5,86,87
 172 358 172 358 178 308 c 4,88,89
 178 305 178 305 178 301 c 0,90,91
 178 280 178 280 162 260 c 4,92,93
 148 241 148 241 134 241 c 0,94,95
 130 241 130 241 127 242 c 4,96,97
 68 260 68 260 68 326 c 0,98,99
 68 332 68 332 69 339 c 4,100,101
 71 364 71 364 106.5 386 c 132,-1,102
 142 408 142 408 180 410 c 4,103,104
 186 410 186 410 190 411 c 0,105,106
 221 410 221 410 248 398 c 4,107,108
 279 384 279 384 295 352 c 4,109,110
 309 325 309 325 309 302 c 0,111,112
 309 281 309 281 297 264 c 4,113,114
 284 243 284 243 203 205.5 c 132,-1,115
 122 168 122 168 122 128 c 4,116,117
 122 70 122 70 174 58 c 4,118,119
 211 50 211 50 239 49 c 0,120,121
 282 50 282 50 302 70 c 4,122,-1
 330 166 l 5,123,124
 340 176 340 176 343 176 c 6,13,-1
EndSplineSet
EndChar

StartChar: u11322
Encoding: 70434 70434 129
Width: 736
Flags: MW
AnchorPoint: "stacking" 363 0 basechar 0
LayerCount: 2
Fore
SplineSet
481 0 m 3,0,1
 399 0 399 0 345 63 c 1,2,3
 324 34 324 34 286 17 c 128,-1,4
 248 0 248 0 210.5 0 c 131,-1,5
 173 0 173 0 145 15.5 c 0,6,7
 112 34 112 34 96 72 c 0,8,9
 86 96 86 96 86 119 c 3,10,11
 86 155 86 155 114 172 c 0,12,13
 188 216 188 216 206 232.5 c 128,-1,14
 224.164383562 249.150684932 224.164383562 249.150684932 228 276 c 2,15,-1
 231 297 l 26,16,17
 233 310 233 310 218.44140625 333.08984375 c 128,-1,18
 204 356 204 356 196 359 c 128,-1,19
 188 362 188 362 178.5 362 c 131,-1,20
 169 362 169 362 154 358 c 1,21,22
 181 338 181 338 181 303 c 2,23,-1
 181 298 l 2,24,25
 181 280 181 280 162 260.5 c 0,26,27
 149 248 149 248 133 242 c 24,28,29
 121 237 121 237 103 242 c 0,30,31
 68 251 68 251 61 268 c 0,32,33
 52 291 52 291 52 302.5 c 3,34,35
 52 320 52 320 59 336 c 0,36,37
 73 372 73 372 102.5 390 c 128,-1,38
 132 408 132 408 164 408 c 7,39,40
 237 408 237 408 274 356 c 0,41,42
 290 334 290 334 289 298 c 0,43,44
 289 294 289 294 289 290 c 8,45,46
 287 248 287 248 260.5 218 c 128,-1,47
 234 188 234 188 166 155 c 0,48,49
 138 141 138 141 138 132 c 18,50,-1
 138 123 l 2,51,52
 138 86 138 86 165.5 60 c 0,53,54
 186 41 186 41 215 41 c 3,55,56
 243 41 243 41 276 72 c 0,57,58
 293 88 293 88 317 157 c 0,59,60
 324 177 324 177 344 177 c 3,61,62
 366 177 366 177 369 158 c 0,63,64
 382 81 382 81 427 57 c 0,65,66
 457 41 457 41 478 40.5 c 0,67,68
 491 40 491 40 506 44 c 0,69,70
 544 54 544 54 574 98 c 128,-1,71
 604 142 604 142 604 236 c 3,72,73
 604 362 604 362 493 362 c 0,74,75
 475 362 475 362 456 357 c 1,76,77
 496 354 496 354 508 336.5 c 128,-1,78
 520 319 520 319 520 307.5 c 3,79,80
 520 272 520 272 497.5 250.346153846 c 0,81,82
 475 229 475 229 447 228 c 0,83,84
 425 228 425 228 407 239 c 2,85,-1
 389 250 l 2,86,87
 375 259 375 259 375 299.5 c 131,-1,88
 375 340 375 340 386 353 c 0,89,90
 434 409 434 409 493 409 c 19,91,92
 616 409 616 409 660 306 c 0,93,94
 671 280 671 280 671 259.5 c 128,-1,95
 671 239 671 239 663.5 185.5 c 128,-1,96
 656 132 656 132 652 122 c 0,97,98
 617 36 617 36 542 12 c 0,99,100
 505 0 505 0 481 0 c 3,0,1
424 333 m 24,101,102
 409 323.625 409 323.625 409 308 c 0,103,104
 409 278 409 278 437 273 c 0,105,106
 452.359351737 269.632793114 452.359351737 269.632793114 460 276 c 0,107,108
 476 288 476 288 477 303 c 0,109,110
 477 310 477 310 473 318 c 0,111,112
 468.833333333 326.928571429 468.833333333 326.928571429 449 333 c 24,113,114
 432 338 432 338 424 333 c 24,101,102
102 270 m 1,115,116
 118 264 118 264 130 272 c 0,117,118
 146 282 146 282 146 300 c 0,119,120
 146 314 146 314 144 319 c 0,121,122
 135 342 135 342 115.5 342 c 131,-1,123
 96 342 96 342 89 315 c 0,124,125
 87 307 87 307 87 300 c 3,126,127
 87 283 87 283 102 270 c 1,115,116
EndSplineSet
EndChar

StartChar: u11325
Encoding: 70437 70437 132
Width: 768
Flags: MW
AnchorPoint: "stacking" 385 0 basechar 0
LayerCount: 2
Fore
SplineSet
651 169 m 1,0,1
 605 129 605 129 549.5 129 c 128,-1,2
 494 129 494 129 456 178 c 0,3,4
 428 214 428 214 428.5 264.5 c 128,-1,5
 429 315 429 315 452 348 c 0,6,7
 492 407 492 407 575 407 c 0,8,9
 675 407 675 407 714 331 c 4,10,11
 735 289 735 289 735 244 c 0,12,13
 735 118 735 118 649 52 c 0,14,15
 580 0 580 0 488 -0 c 0,16,17
 430 0 430 0 378 22 c 128,-1,18
 326 44 326 44 292 79 c 1,19,20
 260 0 260 0 186 0 c 0,21,22
 97 0 97 0 51 98 c 0,23,24
 36 130 36 130 36 170 c 2,25,-1
 36 389 l 6,26,27
 36 407 36 407 66 407 c 128,-1,28
 96 407 96 407 96 389 c 2,29,-1
 96 170 l 2,30,31
 96 117 96 117 120 84 c 128,-1,32
 144 51 144 51 168.5 51 c 128,-1,33
 193 51 193 51 209.5 68.5 c 128,-1,34
 226 86 226 86 226 150 c 2,35,-1
 226 384 l 2,36,37
 226 395 226 395 237.5 401 c 128,-1,38
 249 407 249 407 264.5 407 c 128,-1,39
 280 407 280 407 292 401 c 128,-1,40
 304 395 304 395 304 384 c 2,41,-1
 304 175 l 1,42,43
 328 101 328 101 406 71 c 0,44,45
 440 58 440 58 477 58 c 128,-1,46
 514 58 514 58 548 70 c 0,47,48
 622 98 622 98 651 169 c 1,0,1
510 210 m 0,49,50
 530 177 530 177 576.5 177 c 128,-1,51
 623 177 623 177 654 208 c 0,52,53
 656 210 656 210 656 220 c 0,54,55
 656 297 656 297 632 323 c 0,56,57
 600 358 600 358 571 358 c 128,-1,58
 542 358 542 358 518 336.5 c 128,-1,59
 494 315 494 315 494 274.5 c 128,-1,60
 494 234 494 234 510 210 c 0,49,50
EndSplineSet
EndChar

StartChar: u11326
Encoding: 70438 70438 133
Width: 512
Flags: MW
AnchorPoint: "stacking" 261 -106 basechar 0
LayerCount: 2
Fore
SplineSet
165.5 290 m 128,-1,1
 153 302 153 302 140.5 302 c 128,-1,2
 128 302 128 302 113.5 293 c 128,-1,3
 99 284 99 284 99 260.5 c 128,-1,4
 99 237 99 237 111 217.5 c 0,5,6
 122 198 122 198 138 198 c 0,7,-1
 139 197 l 0,8,9
 154 197 154 197 166 212 c 128,-1,10
 178 227 178 227 178 252.5 c 128,-1,0
 178 278 178 278 165.5 290 c 128,-1,1
343 -82 m 2,11,12
 343 -106 343 -106 310 -106 c 0,13,14
 298 -106 298 -106 288 -101 c 128,-1,15
 278 -96 278 -96 278 -86 c 2,16,-1
 278 0 l 1,17,-1
 218 0 l 2,18,19
 138 0 138 0 105 17 c 0,20,21
 73 33 73 33 73 53 c 0,22,23
 73 112 73 112 199 124 c 0,24,25
 242 128 242 128 266.5 140 c 128,-1,26
 291 152 291 152 313.5 170.5 c 128,-1,27
 336 189 336 189 340 199 c 0,28,29
 347 219 347 219 347 242 c 0,30,31
 346 266 346 266 338 296 c 0,32,33
 330 322 330 322 293 339.5 c 128,-1,34
 256 357 256 357 219 357 c 128,-1,35
 182 357 182 357 154 343 c 1,36,37
 184 339 184 339 207.5 317 c 128,-1,38
 231 295 231 295 231 258 c 128,-1,39
 231 221 231 221 218 200.5 c 128,-1,40
 205 180 205 180 184.5 169.5 c 128,-1,41
 164 159 164 159 140 159 c 128,-1,42
 116 159 116 159 95.5 168 c 128,-1,43
 75 177 75 177 62 200 c 128,-1,44
 49 223 49 223 49 268 c 128,-1,45
 49 313 49 313 79 347.5 c 128,-1,46
 109 382 109 382 151 394 c 0,47,48
 186 404 186 404 225 404 c 0,49,50
 233 404 233 404 242 404 c 0,51,52
 291 402 291 402 334.5 383.5 c 0,53,54
 378 364 378 364 406 326 c 0,55,56
 429 293 429 293 429 237 c 0,57,58
 429 227 429 227 428 216 c 0,59,60
 427 200 427 200 412 178 c 0,61,62
 377 126 377 126 300 98 c 0,63,64
 263 85 263 85 224.5 84.5 c 128,-1,65
 186 84 186 84 156 76 c 0,66,67
 123 67 123 67 123 58.5 c 128,-1,68
 123 50 123 50 220 50 c 10,69,-1
 444 50 l 2,70,71
 473 50 473 50 473 26 c 0,72,73
 473 17 473 17 466 8.5 c 128,-1,74
 459 0 459 0 444 0 c 2,75,-1
 343 0 l 1,76,-1
 343 -82 l 2,11,12
EndSplineSet
EndChar

StartChar: u11327
Encoding: 70439 70439 134
Width: 768
Flags: MW
AnchorPoint: "stacking" 396 0 basechar 0
LayerCount: 2
Fore
SplineSet
67 166 m 2,0,-1
 67 378 l 2,1,2
 67 391 67 391 77 399 c 128,-1,3
 87 407 87 407 97.5 407 c 128,-1,4
 108 407 108 407 117 399.5 c 128,-1,5
 126 392 126 392 126 378 c 2,6,-1
 126 166 l 2,7,8
 126 121 126 121 151 87 c 128,-1,9
 176 53 176 53 200 53 c 0,10,11
 251 55 251 55 251 153 c 2,12,-1
 251 380 l 2,13,14
 251 393 251 393 262 400 c 128,-1,15
 273 407 273 407 286.5 407 c 132,-1,16
 300 407 300 407 312 400 c 128,-1,17
 324 393 324 393 324 380 c 2,18,-1
 324 172 l 2,19,20
 324 134 324 134 365 104 c 0,21,22
 407 74 407 74 430 68 c 0,23,24
 451 62 451 62 492 62 c 0,25,26
 494 62 494 62 498 62 c 0,27,28
 582 63 582 63 633 138 c 0,29,30
 660 178 660 178 660 216 c 0,31,32
 660 287 660 287 601 333 c 1,33,34
 570 363 570 363 523 363 c 16,35,36
 496 363 496 363 496 388 c 0,37,38
 496 407 496 407 530 407 c 0,39,40
 596 407 596 407 656 351 c 0,41,42
 682 326 682 326 704 286 c 128,-1,43
 726 246 726 246 726 225 c 0,44,45
 726 170 726 170 703 124 c 0,46,47
 658 33 658 33 565 10 c 0,48,49
 524 0 524 0 477.5 0 c 128,-1,50
 431 0 431 0 388 20 c 128,-1,51
 345 40 345 40 314 74 c 1,52,53
 303 45 303 45 278.5 22.5 c 128,-1,54
 254 0 254 0 208 0 c 128,-1,55
 162 0 162 0 118 38 c 0,56,57
 67 82 67 82 67 166 c 2,0,-1
EndSplineSet
EndChar

StartChar: u1132A
Encoding: 70442 70442 136
Width: 864
Flags: MW
AnchorPoint: "stacking" 430 0 basechar 0
LayerCount: 2
Fore
SplineSet
816 27 m 2,0,1
 816 0 816 0 769 0 c 2,2,-1
 302 0 l 1,3,-1
 291 26 l 1,4,5
 294 36 294 36 300 42 c 24,6,7
 332 71 332 71 343.5 84.5 c 128,-1,8
 355 98 355 98 366 121.5 c 128,-1,9
 377 145 377 145 377 205.5 c 128,-1,10
 377 266 377 266 341 304.5 c 0,11,12
 302 345 302 345 262 345 c 3,13,14
 221 345 221 345 178 315 c 24,15,16
 138.905528236 290.275110513 138.905528236 290.275110513 111 214 c 1,17,18
 130 222 130 222 147 222 c 0,19,20
 159 222 159 222 170 218 c 0,21,22
 221 201 221 201 241 155 c 0,23,24
 252 129 252 129 252 104 c 0,25,26
 252 94 252 94 250 84 c 0,27,28
 244 50 244 50 219 25 c 128,-1,29
 194 0 194 0 168 0 c 0,30,31
 100 0 100 0 67 54 c 0,32,33
 45 90 45 90 45 156 c 0,34,35
 45.9838882138 275.050473871 45.9838882138 275.050473871 152 370 c 0,36,37
 190 404 190 404 243.5 404 c 3,38,39
 294 404 294 404 352 380 c 0,40,41
 395 362 395 362 431 314.5 c 0,42,43
 468 266 468 266 468 210 c 0,44,45
 468 103 468 103 399 43 c 1,46,-1
 736 43 l 1,47,-1
 736 382 l 2,48,49
 736 392 736 392 748.5 398 c 128,-1,50
 761 404 761 404 776 404 c 256,51,52
 791 404 791 404 803.5 398 c 128,-1,53
 816 392 816 392 816 382 c 2,54,-1
 816 27 l 2,0,1
99 149 m 3,55,56
 99 75.6651515308 99 75.6651515308 140 54 c 0,57,58
 153.990743914 44.5 153.990743914 44.5 167.5 44.5 c 131,-1,59
 181.009256086 44.5 181.009256086 44.5 192.5 57.5 c 0,60,61
 204 70 204 70 207 91 c 0,62,63
 208 96 208 96 208 102 c 0,64,65
 208 118 208 118 200 134 c 8,66,67
 190 155 190 155 170 167.5 c 128,-1,68
 150 180 150 180 135.5 180 c 128,-1,69
 121 180 121 180 109.5 169.5 c 0,70,71
 99 159.049875621 99 159.049875621 99 149 c 3,55,56
EndSplineSet
EndChar

StartChar: u1132B
Encoding: 70443 70443 137
Width: 866
Flags: MW
AnchorPoint: "stacking" 418 0 basechar 0
LayerCount: 2
Fore
SplineSet
598 45 m 1,0,-1
 598 284 l 2,1,2
 598 364 598 364 652 394 c 0,3,4
 677 408 677 408 707 408 c 131,-1,5
 737 408 737 408 762.5 395 c 0,6,7
 786 383 786 383 805.5 357.5 c 0,8,9
 823 334 823 334 823 303 c 2,10,-1
 823 29 l 2,11,12
 823 15 823 15 805 7.5 c 128,-1,13
 787 0 787 0 767 0 c 2,14,-1
 253 0 l 1,15,-1
 253 45 l 1,16,17
 294 45 294 45 326 100 c 128,-1,18
 358 155 358 155 358 205 c 0,19,20
 358 251 358 251 338 285 c 0,21,22
 298 353 298 353 232 354 c 0,23,24
 162 354 162 354 112 300 c 0,25,26
 86 272 86 272 74 228 c 1,27,28
 87 232 87 232 101 232 c 0,29,30
 124 232 124 232 148 222 c 0,31,32
 187 206 187 206 214 155 c 16,33,34
 225 134 225 134 225 112 c 0,35,36
 225 100 225 100 222 88 c 0,37,38
 214 52 214 52 193.5 30.5 c 0,39,40
 173 8 173 8 145 2 c 0,41,42
 135 0 135 0 124 0 c 0,43,44
 78 0 78 0 41 52 c 0,45,46
 14 89 14 89 14 141 c 0,47,48
 14 238 14 238 50.5 295 c 128,-1,49
 87 352 87 352 134 380 c 128,-1,50
 181 408 181 408 234 408 c 0,51,52
 352 408 352 408 406 321 c 0,53,54
 436 272 436 272 437 219 c 0,55,56
 437 114 437 114 351 45 c 1,57,-1
 598 45 l 1,0,-1
646 45 m 1,58,-1
 746 45 l 1,59,-1
 746 313 l 2,60,61
 746 322 746 322 730.5 334.5 c 128,-1,62
 715 347 715 347 696 347 c 128,-1,63
 677 347 677 347 661.5 336.5 c 128,-1,64
 646 326 646 326 646 315 c 2,65,-1
 646 45 l 1,58,-1
132 182 m 0,66,67
 119 191 119 191 107 191 c 0,68,69
 92 191 92 191 78 174 c 0,70,71
 68 160 68 160 67.5 139 c 152,-1,72
 67 118 67 118 78.5 94.5 c 128,-1,73
 90 71 90 71 103 62.5 c 128,-1,74
 116 54 116 54 129 57 c 0,75,76
 158 64 158 64 168 100 c 0,77,78
 170 110 170 110 170 119 c 0,79,80
 170 156 170 156 132 182 c 0,66,67
EndSplineSet
EndChar

StartChar: u1132C
Encoding: 70444 70444 138
Width: 859
Flags: MW
AnchorPoint: "stacking" 420 0 basechar 0
LayerCount: 2
Fore
SplineSet
94 155 m 0,0,1
 94 121 94 121 105.5 92 c 128,-1,2
 117 63 117 63 130 53 c 128,-1,3
 143 43 143 43 156.5 43 c 128,-1,4
 170 43 170 43 181.5 55.5 c 128,-1,5
 193 68 193 68 198 90 c 0,6,7
 200 99 200 99 200 106 c 0,8,9
 200 142 200 142 163 166 c 0,10,11
 143 179 143 179 128 180 c 0,12,13
 118 180 118 180 108 174 c 0,14,15
 94 165 94 165 94 155 c 0,0,1
327 343 m 1,16,17
 362 410 362 410 434 410 c 0,18,19
 495 410 495 410 560 349 c 0,20,21
 620 292 620 292 620 206 c 0,22,23
 620 160 620 160 596.5 119.5 c 128,-1,24
 573 79 573 79 539 49 c 1,25,-1
 737 49 l 1,26,-1
 737 387 l 2,27,28
 737 398 737 398 746 404 c 128,-1,29
 755 410 755 410 765.5 410 c 128,-1,30
 776 410 776 410 785.5 404 c 128,-1,31
 795 398 795 398 795 387 c 2,32,-1
 795 25 l 2,33,34
 795 14 795 14 786 7 c 128,-1,35
 777 0 777 0 767 0 c 2,36,-1
 416 0 l 1,37,-1
 416 49 l 1,38,39
 474 49 474 49 510 100 c 0,40,41
 546 149 546 149 545 209 c 24,42,43
 544 284 544 284 500 328 c 0,44,45
 478 350 478 350 458 357 c 0,46,47
 444 362 444 362 430 362 c 0,48,49
 420 362 420 362 411 360 c 0,50,51
 391 355 391 355 376 332 c 0,52,53
 357 302 357 302 357 206 c 2,54,-1
 357 25 l 2,55,56
 357 14 357 14 348 7 c 128,-1,57
 339 0 339 0 328.5 0 c 128,-1,58
 318 0 318 0 308.5 6.5 c 128,-1,59
 299 13 299 13 299 25 c 2,60,-1
 299 207 l 2,61,62
 299 282 299 282 283.5 318 c 0,63,64
 268 353 268 353 254 359 c 0,65,66
 239 365 239 365 212.5 365 c 128,-1,67
 186 365 186 365 162 348.5 c 128,-1,68
 138 332 138 332 119.5 298 c 128,-1,69
 101 264 101 264 96 210 c 1,70,71
 109 216 109 216 131 217 c 0,72,73
 148 218 148 218 168 212 c 0,74,75
 210 200 210 200 230 162 c 16,76,77
 242 140 242 140 247 100 c 0,78,79
 248 92 248 92 246 84 c 0,80,81
 240 45 240 45 218.5 22.5 c 128,-1,82
 197 0 197 0 165 0 c 128,-1,83
 133 0 133 0 107.5 14.5 c 128,-1,84
 82 29 82 29 63.5 67.5 c 128,-1,85
 45 106 45 106 45 169.5 c 128,-1,86
 45 233 45 233 60.5 277 c 0,87,88
 79 328 79 328 100 353 c 0,89,90
 150 410 150 410 216 410 c 0,91,92
 280 410 280 410 327 343 c 1,16,17
EndSplineSet
EndChar

StartChar: u1132D
Encoding: 70445 70445 139
Width: 754
Flags: MW
AnchorPoint: "stacking" 362 0 basechar 0
LayerCount: 2
Fore
SplineSet
54 164.5 m 128,-1,1
 43 187 43 187 43 224.5 c 128,-1,2
 43 262 43 262 52 298 c 0,3,4
 72 370 72 370 132 398 c 0,5,6
 157 409 157 409 185 409 c 0,7,8
 269 408 269 408 311 366 c 0,9,10
 339 338 339 338 365 228 c 0,11,12
 374 190 374 190 391 180 c 128,-1,13
 408 170 408 170 422 170 c 128,-1,14
 436 170 436 170 447.5 188 c 128,-1,15
 459 206 459 206 459 227 c 0,16,17
 459 286 459 286 483.5 333 c 128,-1,18
 508 380 508 380 532.5 394.5 c 128,-1,19
 557 409 557 409 584 409 c 3,20,21
 630.671461915 409 630.671461915 409 682 332 c 0,22,23
 707 294 707 294 707 249.5 c 0,24,25
 707 206 707 206 695 158 c 0,26,27
 670 58 670 58 585 20 c 0,28,29
 540 0 540 0 477 0 c 2,30,-1
 45 0 l 2,31,32
 30 0 30 0 26 5 c 0,33,34
 19 16 19 16 19 22 c 128,-1,35
 19 28 19 28 27.5 35.5 c 128,-1,36
 36 43 36 43 51 43 c 2,37,-1
 496 43 l 2,38,39
 568 43 568 43 614 132 c 0,40,41
 636 175 636 175 636 255 c 0,42,43
 636 272 636 272 626 290 c 0,44,45
 604 330 604 330 574.5 329.5 c 128,-1,46
 545 329 545 329 527.5 291 c 128,-1,47
 510 253 510 253 510 224 c 128,-1,48
 510 195 510 195 500 170.5 c 128,-1,49
 490 146 490 146 481 133 c 0,50,51
 460 102 460 102 433 102 c 3,52,53
 385 102 385 102 350 137.5 c 128,-1,54
 315 173 315 173 309 223.5 c 24,55,56
 304 274 304 274 294 296 c 0,57,58
 274 342 274 342 237 356 c 0,59,60
 214 365 214 365 203 365 c 2,61,-1
 173 365 l 2,62,63
 159 365 159 365 140 343 c 0,64,65
 103 301 103 301 93 260 c 1,66,67
 112 272 112 272 134 272 c 0,68,69
 176 272 176 272 201 218 c 0,70,71
 215 187 215 187 215 161.5 c 128,-1,72
 215 136 215 136 201.5 122.5 c 0,73,74
 186 109 186 109 166 106 c 0,75,76
 158 105 158 105 151 104 c 0,77,78
 138 104 138 104 124 108 c 0,79,80
 103 114 103 114 84 128 c 128,-1,0
 65 142 65 142 54 164.5 c 128,-1,1
158 163 m 0,81,82
 158 187 158 187 148.5 202.5 c 128,-1,83
 139 218 139 218 127.5 223.5 c 128,-1,84
 116 229 116 229 104.5 224 c 0,85,86
 90.4251572327 217.880503145 90.4251572327 217.880503145 90 203 c 24,87,88
 90 187 90 187 102.5 173 c 0,89,90
 113 162 113 162 124 158 c 128,-1,91
 135 154 135 154 145.5 155.5 c 128,-1,92
 156 157 156 157 158 163 c 0,81,82
EndSplineSet
EndChar

StartChar: u1132E
Encoding: 70446 70446 140
Width: 508
Flags: MW
AnchorPoint: "stacking" 244 0 basechar 0
LayerCount: 2
Fore
SplineSet
338 106 m 0,0,1
 364 106 364 106 364 89 c 0,2,3
 364 43 364 43 310 13 c 0,4,5
 286 0 286 0 258 0 c 128,-1,6
 230 0 230 0 204 4 c 0,7,8
 147 14 147 14 130 65 c 0,9,10
 127 74 127 74 127 92 c 128,-1,11
 127 110 127 110 151 134 c 0,12,13
 192 174 192 174 258.5 210.5 c 128,-1,14
 325 247 325 247 347.5 264.5 c 128,-1,15
 370 282 370 282 370 294 c 0,16,17
 370 320 370 320 328 338 c 128,-1,18
 286 356 286 356 258 361 c 0,19,20
 242 364 242 364 225 364 c 0,21,22
 211 364 211 364 195 362 c 0,23,24
 160 358 160 358 135 345 c 1,25,26
 181 344 181 344 209 323.5 c 128,-1,27
 237 303 237 303 237 278.5 c 128,-1,28
 237 254 237 254 218 234 c 128,-1,29
 199 214 199 214 153 214 c 0,30,31
 110 214 110 214 76 235 c 0,32,33
 66 241 66 241 51.5 255.5 c 128,-1,34
 37 270 37 270 37 285 c 0,35,36
 37 322 37 322 68 350 c 128,-1,37
 99 378 99 378 142 392 c 128,-1,38
 185 406 185 406 236 406 c 128,-1,39
 287 406 287 406 336.5 393.5 c 0,40,41
 386 382 386 382 408 360 c 0,42,43
 452 316 452 316 452.5 290 c 128,-1,44
 453 264 453 264 435.5 244.5 c 128,-1,45
 418 225 418 225 391.5 211 c 128,-1,46
 365 197 365 197 332.5 185 c 128,-1,47
 300 173 300 173 283 165 c 128,-1,48
 266 157 266 157 220 130 c 0,49,50
 190 112 190 112 190 86 c 128,-1,51
 190 60 190 60 209 46.5 c 128,-1,52
 228 33 228 33 251.5 33 c 128,-1,53
 275 33 275 33 293.5 46.5 c 128,-1,54
 312 60 312 60 312 87 c 0,55,56
 312 96 312 96 320.5 101 c 128,-1,57
 329 106 329 106 338 106 c 0,0,1
102 298 m 0,58,59
 102 283 102 283 117.5 273 c 128,-1,60
 133 263 133 263 151 263 c 128,-1,61
 169 263 169 263 173.5 271.5 c 128,-1,62
 178 280 178 280 174.5 290.5 c 128,-1,63
 171 301 171 301 162 310.5 c 128,-1,64
 153 320 153 320 142 320 c 0,65,66
 104 320 104 320 102 298 c 0,58,59
EndSplineSet
EndChar

StartChar: u11330
Encoding: 70448 70448 142
Width: 520
Flags: MW
AnchorPoint: "stacking" 264 0 basechar 0
LayerCount: 2
Fore
SplineSet
51 380 m 1,0,1
 53 404 53 404 82 404 c 2,2,-1
 455 404 l 2,3,4
 465 404 465 404 470.5 396 c 128,-1,5
 476 388 476 388 476 379 c 128,-1,6
 476 370 476 370 470.5 362 c 128,-1,7
 465 354 465 354 455 354 c 2,8,-1
 381 354 l 1,9,-1
 381 60 l 1,10,11
 380 32 380 32 352 16 c 128,-1,12
 324 0 324 0 293 0 c 128,-1,13
 262 0 262 0 234 12 c 128,-1,14
 206 24 206 24 205 49 c 1,15,-1
 205 354 l 1,16,-1
 102 354 l 1,17,-1
 102 17 l 2,18,19
 102 0 102 0 82 0 c 0,20,21
 51 0 51 0 51 17 c 2,22,-1
 51 380 l 1,0,1
249 50 m 2,23,24
 249 39 249 39 257 33 c 128,-1,25
 265 27 265 27 274.5 27 c 128,-1,26
 284 27 284 27 293.5 33.5 c 128,-1,27
 303 40 303 40 303 53 c 2,28,-1
 303 354 l 1,29,-1
 249 354 l 1,30,-1
 249 50 l 2,23,24
EndSplineSet
EndChar

StartChar: u11332
Encoding: 70450 70450 143
Width: 665
Flags: MW
AnchorPoint: "stacking" 334 0 basechar 0
LayerCount: 2
Fore
SplineSet
243 262 m 0,0,1
 243 276 243 276 220 276 c 0,2,3
 212 276 212 276 205 271.5 c 128,-1,4
 198 267 198 267 198 263 c 0,5,6
 198 153 198 153 250 128 c 0,7,8
 262 122 262 122 274 122 c 128,-1,9
 286 122 286 122 298 128 c 0,10,11
 323 139 323 139 339 173 c 1,12,13
 356 139 356 139 383 131 c 0,14,15
 393 128 393 128 403 128 c 0,16,17
 420 128 420 128 436 136 c 0,18,19
 462 150 462 150 478.5 183 c 128,-1,20
 495 216 495 216 495 258.5 c 128,-1,21
 495 301 495 301 477 328 c 128,-1,22
 459 355 459 355 427.5 374 c 128,-1,23
 396 393 396 393 356 401.5 c 128,-1,24
 316 410 316 410 275 410 c 128,-1,25
 234 410 234 410 194 394 c 0,26,27
 110 362 110 362 76 282 c 0,28,29
 58 242 58 242 58 187 c 128,-1,30
 58 132 58 132 92.5 93.5 c 128,-1,31
 127 55 127 55 168 35 c 0,32,33
 240 0 240 0 313 0 c 0,34,35
 451 0 451 0 535 72 c 0,36,37
 580 112 580 112 595 149.5 c 128,-1,38
 610 187 610 187 610 239 c 0,39,40
 610 257 610 257 592 257 c 128,-1,41
 574 257 574 257 574 239 c 26,42,-1
 574 230 l 2,43,44
 574 164 574 164 502 108 c 0,45,46
 460 76 460 76 424 65 c 0,47,48
 356 47 356 47 328 47 c 24,49,50
 208 47 208 47 166 102 c 16,51,52
 134 144 134 144 134 194 c 0,53,54
 134 232 134 232 153 274 c 0,55,56
 173 320 173 320 203 334 c 0,57,58
 252 359 252 359 299 359 c 0,59,60
 322 359 322 359 346 352 c 0,61,62
 380 342 380 342 404 318 c 128,-1,63
 428 294 428 294 432 253 c 16,64,65
 433 241 433 241 433 230 c 0,66,67
 433 206 433 206 427 192 c 0,68,69
 419 172 419 172 404 172 c 128,-1,70
 389 172 389 172 375.5 196 c 128,-1,71
 362 220 362 220 362 263 c 1,72,-1
 310 263 l 1,73,74
 310 220 310 220 296.5 195 c 0,75,76
 284 170 284 170 272 170 c 128,-1,77
 260 170 260 170 251.5 192.5 c 128,-1,78
 243 215 243 215 243 262 c 0,0,1
EndSplineSet
Position2: "Single Position lookup 0-1" dx=0 dy=0 dh=-80 dv=0
EndChar

StartChar: u11333
Encoding: 70451 70451 144
Width: 908
Flags: MW
AnchorPoint: "stacking" 446 0 basechar 0
LayerCount: 2
Fore
SplineSet
108 152 m 0,0,1
 108 123.097560976 108 123.097560976 122 91 c 24,2,3
 131 71 131 71 149 58 c 24,4,5
 163 48 163 48 181.5 48 c 0,6,7
 198 48 198 48 210 60 c 0,8,9
 224 71 224 71 224 88 c 0,10,11
 224 132 224 132 180 164 c 0,12,13
 162 176 162 176 149 176 c 128,-1,14
 136 176 136 176 122 170 c 128,-1,15
 108 164 108 164 108 152 c 0,0,1
820 47 m 2,16,17
 829 47 829 47 834.5 41 c 128,-1,18
 840 35 840 35 840 27.5 c 131,-1,19
 840 20 840 20 835 10 c 128,-1,20
 830 0 830 0 819 0 c 2,21,-1
 478 0 l 6,22,23
 453 0 453 0 442 20 c 0,24,25
 435 34 435 34 435 46 c 3,26,27
 435 75 435 75 476 96 c 0,28,29
 488 102 488 102 509 108 c 128,-1,30
 530 114 530 114 550 124 c 0,31,32
 590 144 590 144 598 165 c 0,33,34
 607 189 607 189 607 199 c 3,35,36
 607 278 607 278 558 325 c 0,37,38
 536 346 536 346 510 355 c 0,39,40
 497 359 497 359 484 359 c 3,41,42
 469 359 469 359 455 354 c 0,43,44
 426 344 426 344 416 323 c 0,45,46
 391 264 391 264 391 203 c 2,47,-1
 391 23 l 2,48,49
 391 12 391 12 381.5 6 c 128,-1,50
 372 0 372 0 360 0 c 0,51,52
 330 0 330 0 330 23 c 2,53,-1
 330 205 l 2,54,55
 330 302 330 302 286 336 c 0,56,57
 263 354 263 354 235 354 c 3,58,59
 206 354 206 354 180 339 c 0,60,61
 122 306 122 306 109 206 c 1,62,63
 124 214 124 214 142.5 214 c 128,-1,64
 161 214 161 214 181 208 c 0,65,66
 224 196 224 196 256 151 c 1,67,68
 270 112 270 112 270 79.5 c 131,-1,69
 270 47 270 47 243.5 23.5 c 128,-1,70
 217 0 217 0 184.5 0 c 131,-1,71
 152 0 152 0 123 14 c 0,72,73
 52 48 52 48 52 171 c 3,74,75
 52 285 52 285 112 351 c 0,76,77
 161 406 161 406 238 406 c 3,78,79
 272 406 272 406 302.5 388 c 128,-1,80
 333 370 333 370 354 338 c 1,81,82
 390 406 390 406 476 406 c 3,83,84
 510 406 510 406 547 390.5 c 128,-1,85
 584 375 584 375 611.5 348.5 c 128,-1,86
 639 322 639 322 657 284 c 0,87,88
 675 247 675 247 675 208 c 3,89,90
 675 168 675 168 658 146 c 0,91,92
 635 116 635 116 568.5 91 c 0,93,94
 558 87 558 87 500.46484375 72.9951171875 c 0,95,96
 492 71 492 71 485 66 c 24,97,98
 475 58 475 58 478 53 c 0,99,100
 483 47 483 47 497 47 c 2,101,-1
 820 47 l 2,16,17
EndSplineSet
EndChar

StartChar: u11336
Encoding: 70454 70454 146
Width: 763
Flags: MW
AnchorPoint: "stacking" 372 0 basechar 0
LayerCount: 2
Fore
SplineSet
453 113 m 2,0,1
 453 83 453 83 472 68 c 0,2,3
 487 53 487 53 505 53 c 0,4,5
 522 53 522 53 538 64 c 0,6,7
 556 80 556 80 557 101 c 2,8,-1
 557 357 l 1,9,-1
 453 357 l 1,10,-1
 453 113 l 2,0,1
686 409 m 2,11,12
 706 409 706 409 706 383 c 128,-1,13
 706 357 706 357 686 357 c 2,14,-1
 626 357 l 1,15,-1
 626 100 l 2,16,17
 626 64 626 64 601.5 40.5 c 128,-1,18
 577 17 577 17 553.5 8.5 c 128,-1,19
 530 0 530 0 500.5 0 c 0,20,21
 470 0 470 0 446 20 c 0,22,23
 398 58 398 58 399 132 c 2,24,-1
 399 357 l 1,25,-1
 357 357 l 2,26,27
 323 357 323 357 308.5 346.5 c 128,-1,28
 294 336 294 336 294 311 c 2,29,-1
 294 134 l 2,30,31
 294 95 294 95 272.5 63 c 128,-1,32
 251 31 251 31 223 15.5 c 128,-1,33
 195 0 195 0 162.5 0 c 128,-1,34
 130 0 130 0 102 14 c 0,35,36
 37 48 37 48 37 130 c 2,37,-1
 37 387 l 2,38,39
 37 395 37 395 44 399.5 c 128,-1,40
 51 404 51 404 60.5 404 c 128,-1,41
 70 404 70 404 78.5 399.5 c 128,-1,42
 87 395 87 395 87 387 c 2,43,-1
 87 134 l 2,44,45
 87 91 87 91 110 70.5 c 128,-1,46
 133 50 133 50 161 50 c 128,-1,47
 189 50 189 50 208.5 70 c 128,-1,48
 228 90 228 90 228 134 c 2,49,-1
 228 252 l 2,50,51
 228 306 228 306 238 339 c 0,52,53
 259 409 259 409 360 409 c 2,54,-1
 686 409 l 2,11,12
EndSplineSet
EndChar

StartChar: u11337
Encoding: 70455 70455 147
Width: 999
Flags: MW
AnchorPoint: "stacking" 487 -103 basechar 0
LayerCount: 2
Fore
SplineSet
857 196 m 1,0,1
 811 171 811 171 760 163 c 1,2,-1
 760 52 l 1,3,-1
 857 52 l 1,4,-1
 857 196 l 1,0,1
691 242 m 2,5,6
 691 346 691 346 662 360 c 0,7,8
 648 366 648 366 634 350 c 0,9,10
 616 334 616 334 616 295.5 c 128,-1,11
 616 257 616 257 637.5 235.5 c 128,-1,12
 659 214 659 214 691 209 c 1,13,-1
 691 242 l 2,5,6
95 151 m 0,14,15
 96 84 96 84 136 59 c 0,16,17
 152 49 152 49 169.5 49 c 128,-1,18
 187 49 187 49 201.5 58.5 c 128,-1,19
 216 68 216 68 216 89 c 0,20,21
 216 137 216 137 178 166 c 0,22,23
 153 185 153 185 133 185 c 0,24,25
 120 184 120 184 109 176 c 0,26,27
 95 166 95 166 95 151 c 0,14,15
724 -103 m 0,28,29
 692 -103 692 -103 692 -86 c 0,30,31
 692 -43 692 -43 692 0 c 1,32,33
 500 0 500 0 308 0 c 1,34,-1
 308 52 l 1,35,-1
 333 52 l 2,36,37
 368 52 368 52 382 86 c 0,38,39
 398 122 398 122 397 211 c 0,40,41
 397 253 397 253 379.5 284 c 128,-1,42
 362 315 362 315 334.5 333 c 128,-1,43
 307 351 307 351 273 351 c 128,-1,44
 239 351 239 351 206.5 339 c 128,-1,45
 174 327 174 327 147 297.5 c 128,-1,46
 120 268 120 268 105 221 c 1,47,48
 118 224 118 224 131 224 c 0,49,50
 160 224 160 224 190 211 c 0,51,52
 238 190 238 190 263 139 c 0,53,54
 275 115 275 115 275 93 c 0,55,56
 276 54 276 54 238 22 c 0,57,58
 212 0 212 0 175 0 c 128,-1,59
 138 0 138 0 109 11.5 c 128,-1,60
 80 23 80 23 58 59.5 c 128,-1,61
 36 96 36 96 36 168 c 128,-1,62
 36 240 36 240 70 294 c 0,63,64
 103 348 103 348 152 378.5 c 128,-1,65
 201 409 201 409 257 409 c 0,66,67
 382 409 382 409 446 324 c 0,68,69
 483 277 483 277 483 214 c 0,70,71
 483 122 483 122 464 89 c 128,-1,72
 445 56 445 56 440 52 c 1,73,-1
 692 52 l 1,74,-1
 692 162 l 1,75,76
 637 168 637 168 598.5 201.5 c 128,-1,77
 560 235 560 235 560 303 c 0,78,79
 560 338 560 338 577 362.5 c 0,80,81
 594 386 594 386 618 396 c 0,82,83
 635 403 635 403 654 403 c 0,84,85
 662 403 662 403 670 402 c 0,86,87
 728 394 728 394 754 326 c 0,88,89
 760 310 760 310 761 215 c 1,90,91
 804 216 804 216 872 284 c 0,92,93
 884 296 884 296 895 295.5 c 0,94,95
 906 296 906 296 914 292 c 0,96,97
 936 283 936 283 937 272 c 2,98,-1
 937 0 l 1,99,-1
 760 0 l 1,100,-1
 760 -86 l 2,101,102
 760 -95 760 -95 747.5 -99 c 128,-1,103
 735 -103 735 -103 724 -103 c 0,28,29
EndSplineSet
Position2: "Single Position lookup 0-1" dx=0 dy=0 dh=-50 dv=0
EndChar

StartChar: u11338
Encoding: 70456 70456 148
Width: 875
Flags: MW
AnchorPoint: "stacking" 425 0 basechar 0
LayerCount: 2
Fore
SplineSet
164 350 m 0,0,1
 114 295 114 295 97 248 c 16,2,3
 85 213 85 213 85 193 c 0,4,5
 85 187 85 187 86 182 c 1,6,7
 96 186 96 186 109 186 c 0,8,9
 118 186 118 186 128 184 c 0,10,11
 172 175 172 175 197 135 c 0,12,13
 210 115 210 115 211 88 c 0,14,15
 212 64 212 64 198 38 c 0,16,17
 179 2 179 2 141 -1 c 0,18,19
 130 -2 130 -2 118 2 c 0,20,21
 96 8 96 8 76 32 c 0,22,23
 34 82 34 82 34 188 c 0,24,25
 34 256 34 256 84 324 c 0,26,27
 117 370 117 370 151 385 c 0,28,29
 189 403 189 403 220 403 c 0,30,31
 257 403 257 403 285 377 c 0,32,33
 358 309 358 309 365 211 c 0,34,35
 368 167 368 167 369 144 c 0,36,37
 370 131 370 131 368 125 c 0,38,39
 358 81 358 81 317 55 c 1,40,-1
 451 55 l 1,41,-1
 451 273 l 2,42,43
 451 335 451 335 482 374 c 0,44,45
 509 408 509 408 547 408 c 0,46,47
 582 408 582 408 616 370 c 0,48,49
 632 352 632 352 643 323.5 c 128,-1,50
 654 295 654 295 654 266 c 2,51,-1
 654 91 l 2,52,53
 654 46 654 46 690 46 c 0,54,55
 747 46 747 46 762 198 c 0,56,57
 764 218 764 218 764 237 c 0,58,59
 764 266 764 266 759 290 c 0,60,61
 743 366 743 366 714 372 c 0,62,63
 694 376 694 376 696 389 c 0,64,65
 698 406 698 406 714 406 c 0,66,67
 773 406 773 406 805 307 c 0,68,69
 817 269 817 269 817 215 c 0,70,71
 817 207 817 207 817 199 c 0,72,73
 811 0 811 0 693 0 c 0,74,75
 601 0 601 0 601 89 c 2,76,-1
 601 273 l 2,77,78
 601 318 601 318 586.5 341 c 128,-1,79
 572 364 572 364 555 365 c 0,80,-1
 554 364 l 0,81,82
 537 364 537 364 523.5 342 c 128,-1,83
 510 320 510 320 510 273 c 2,84,-1
 510 25 l 2,85,86
 510 11 510 11 481 0 c 1,87,-1
 254 0 l 1,88,-1
 254 53 l 1,89,90
 290 64 290 64 300 100 c 0,91,92
 312 143 312 143 309 176 c 0,93,94
 308 187 308 187 308 199 c 0,95,96
 306 261 306 261 293 292 c 128,-1,97
 280 323 280 323 259 340.5 c 0,98,99
 232 363 232 363 208 362 c 0,100,101
 203 362 203 362 198 362 c 0,102,103
 177 363 177 363 164 350 c 0,0,1
126 154 m 0,104,105
 121 155 121 155 117 155 c 0,106,107
 97 155 97 155 91 128 c 0,108,109
 89 119 89 119 89 111 c 0,110,111
 89 88 89 88 105 66 c 0,112,113
 119 45 119 45 133 46 c 0,114,115
 142 46 142 46 152 55 c 0,116,117
 165 69 165 69 165 91 c 0,118,119
 165 106 165 106 158 126 c 0,120,121
 153 140 153 140 144.5 146 c 128,-1,122
 136 152 136 152 126 154 c 0,104,105
EndSplineSet
EndChar

StartChar: u11339
Encoding: 70457 70457 149
Width: 996
Flags: MW
AnchorPoint: "stacking" 491 -81 basechar 0
LayerCount: 2
Fore
SplineSet
675 354 m 1,0,1
 718 401 718 401 780 401 c 0,2,3
 888 402 888 402 924 296 c 0,4,5
 938 258 938 258 938 216 c 128,-1,6
 938 174 938 174 924 139 c 128,-1,7
 910 104 910 104 873 72 c 0,8,9
 788 -1 788 -1 593 0 c 2,10,-1
 139 0 l 2,11,12
 121 0 121 0 109.5 -5 c 128,-1,13
 98 -10 98 -10 98 -16 c 128,-1,14
 98 -22 98 -22 107 -27.5 c 128,-1,15
 116 -33 116 -33 133 -33 c 128,-1,16
 150 -33 150 -33 157 -42 c 128,-1,17
 164 -51 164 -51 164 -57 c 128,-1,18
 164 -63 164 -63 157 -72 c 128,-1,19
 150 -81 150 -81 137 -81 c 0,20,21
 99 -81 99 -81 78.5 -71 c 128,-1,22
 58 -61 58 -61 52.5 -50.5 c 128,-1,23
 47 -40 47 -40 47 -21.5 c 0,24,25
 47 -4 47 -4 62 12 c 0,26,27
 96 48 96 48 139 48 c 26,28,-1
 593 48 l 2,29,30
 654 48 654 48 702 64 c 0,31,32
 790 94 790 94 824 150 c 0,33,34
 846 186 846 186 846 204 c 0,35,36
 846 272 846 272 826 307.5 c 0,37,38
 806 344 806 344 780 352 c 0,39,40
 772 355 772 355 764 354 c 0,41,42
 746 354 746 354 726 341 c 0,43,44
 698 322 698 322 699 274 c 2,45,-1
 699 112 l 2,46,47
 699 101 699 101 688 94.5 c 128,-1,48
 677 88 677 88 664.5 88 c 128,-1,49
 652 88 652 88 640.5 94.5 c 128,-1,50
 629 101 629 101 629 112 c 2,51,-1
 629 255 l 2,52,53
 629 284 629 284 617.5 304.5 c 128,-1,54
 606 325 606 325 593.5 327 c 128,-1,55
 581 329 581 329 570 319.5 c 128,-1,56
 559 310 559 310 559 287 c 2,57,-1
 559 110 l 2,58,59
 559 101 559 101 547.5 94.5 c 128,-1,60
 536 88 536 88 522 88 c 2,61,-1
 240 88 l 2,62,63
 223 88 223 88 223 101 c 2,64,-1
 223 122 l 2,65,66
 223 136 223 136 246 136 c 0,67,68
 254 136 254 136 267 142 c 128,-1,69
 280 148 280 148 290 158 c 0,70,71
 312 182 312 182 311.5 229 c 128,-1,72
 311 276 311 276 287.5 304 c 128,-1,73
 264 332 264 332 232 338 c 0,74,75
 222 340 222 340 212 341 c 0,76,77
 190 342 190 342 168 332 c 0,78,79
 135 318 135 318 117 281 c 1,80,81
 130 284 130 284 143 284 c 0,82,83
 172 284 172 284 198 269 c 0,84,85
 240 245 240 245 239.5 204.5 c 128,-1,86
 239 164 239 164 224.5 142.5 c 128,-1,87
 210 121 210 121 189 113 c 128,-1,88
 168 105 168 105 143 105 c 0,89,90
 92 106 92 106 60 152 c 0,91,92
 44 174 44 174 44.5 219 c 128,-1,93
 45 264 45 264 59.5 298.5 c 128,-1,94
 74 333 74 333 98 355.5 c 128,-1,95
 122 378 122 378 152 389.5 c 128,-1,96
 182 401 182 401 214 401 c 128,-1,97
 246 401 246 401 276.5 389.5 c 128,-1,98
 307 378 307 378 331 356 c 0,99,100
 386 307 386 307 388 229 c 0,101,102
 388 172 388 172 350 136 c 1,103,-1
 504 136 l 1,104,-1
 504 289 l 2,105,106
 504 330 504 330 523.5 357 c 128,-1,107
 543 384 543 384 570 394 c 0,108,109
 584 399 584 399 598 399 c 0,110,111
 612 398 612 398 626 394 c 0,112,113
 655 384 655 384 675 354 c 1,0,1
113 234.5 m 128,-1,115
 100 223 100 223 100 198 c 128,-1,116
 100 173 100 173 113 157.5 c 128,-1,117
 126 142 126 142 142 142 c 128,-1,118
 158 142 158 142 170.5 154.5 c 128,-1,119
 183 167 183 167 183 195 c 128,-1,120
 183 223 183 223 170.5 234.5 c 128,-1,121
 158 246 158 246 142 246 c 128,-1,114
 126 246 126 246 113 234.5 c 128,-1,115
EndSplineSet
EndChar

StartChar: u1133D
Encoding: 70461 70461 150
Width: 409
Flags: MW
LayerCount: 2
Fore
SplineSet
326 409 m 0,0,1
 354 409 354 409 354 384 c 0,2,3
 354 376 354 376 337.5 375 c 0,4,5
 322 374 322 374 282 374 c 2,6,-1
 201 374 l 2,7,8
 160 374 160 374 135.5 371 c 128,-1,9
 111 368 111 368 101.5 357.5 c 128,-1,10
 92 347 92 347 92 324.5 c 128,-1,11
 92 302 92 302 119.5 286.5 c 128,-1,12
 147 271 147 271 181 256.5 c 128,-1,13
 215 242 215 242 252 225.5 c 0,14,15
 288 209 288 209 320 188 c 0,16,17
 392 140 392 140 392 79 c 0,18,19
 392 51 392 51 367 33 c 128,-1,20
 342 15 342 15 303.5 7.5 c 128,-1,21
 265 0 265 0 220 0 c 0,22,23
 128 0 128 0 62 47 c 0,24,25
 24 75 24 75 24 103 c 0,26,27
 24 115 24 115 27.5 119 c 128,-1,28
 31 123 31 123 43 123 c 128,-1,29
 55 123 55 123 56 116 c 0,30,31
 62 72 62 72 126 52 c 0,32,33
 164 40 164 40 205 40 c 0,34,35
 224 40 224 40 244 42 c 0,36,37
 271 46 271 46 289 56 c 128,-1,38
 307 66 307 66 308 80 c 5,39,40
 308 103 308 103 288 121 c 128,-1,41
 268 139 268 139 238 155.5 c 128,-1,42
 208 172 208 172 173 188.5 c 0,43,44
 138 206 138 206 108 224 c 0,45,46
 35 270 35 270 35 326 c 0,47,48
 36 354 36 354 54 376 c 0,49,50
 84 410 84 410 186 410 c 0,51,52
 240 408 240 408 326 409 c 0,0,1
EndSplineSet
Validated: 33
EndChar

StartChar: u11343
Encoding: 70467 70467 156
Width: 276
Flags: MW
LayerCount: 2
Fore
SplineSet
20 -156 m 0,0,1
 46 -156 46 -156 46 -127 c 0,2,3
 46 -100 46 -100 20 -100 c 256,4,5
 8 -100 8 -100 1 -107.5 c 128,-1,6
 -6 -115 -6 -115 -6 -126 c 128,-1,7
 -6 -137 -6 -137 0 -146.5 c 128,-1,8
 6 -156 6 -156 20 -156 c 0,0,1
35 -68 m 0,9,10
 91 -68 91 -68 91 -138 c 0,11,12
 91 -156 91 -156 81 -163 c 2,13,-1
 50 -184 l 1,14,15
 76 -184 76 -184 108 -152 c 0,16,17
 117 -143 117 -143 117 -95 c 2,18,-1
 117 156 l 1,19,-1
 65 156 l 2,20,21
 53 156 53 156 46 165.5 c 128,-1,22
 39 175 39 175 39 187 c 128,-1,23
 39 199 39 199 46 208.5 c 128,-1,24
 53 218 53 218 65 218 c 2,25,-1
 237 218 l 2,26,27
 249 218 249 218 256 208 c 128,-1,28
 263 198 263 198 263 186.5 c 128,-1,29
 263 175 263 175 256 165.5 c 128,-1,30
 249 156 249 156 237 156 c 2,31,-1
 184 156 l 1,32,-1
 184 -85 l 2,33,34
 184 -226 184 -226 88 -226 c 0,35,36
 62 -226 62 -226 19 -212 c 128,-1,37
 -24 -198 -24 -198 -38 -169 c 0,38,39
 -53 -139 -53 -139 -53 -118 c 4,40,41
 -53 -105 -53 -105 -48 -95 c 0,42,43
 -34 -68 -34 -68 35 -68 c 0,9,10
EndSplineSet
Validated: 1
Substitution2: "Accent marker rearrangement single substitution 61-1" u11301
Substitution2: "Accent marker rearrangement single substitution 18-1" u1CF4
Substitution2: "Accent marker rearrangement single substitution 17-1" u0952
Substitution2: "Accent marker rearrangement single substitution 16-1" u0951
EndChar

StartChar: u11344
Encoding: 70468 70468 157
Width: 337
Flags: MW
LayerCount: 2
Fore
SplineSet
95 -110 m 0,0,1
 89 -118 89 -118 89 -129 c 128,-1,2
 89 -140 89 -140 94 -146 c 128,-1,3
 99 -152 99 -152 116 -152 c 256,4,5
 124 -152 124 -152 129 -148 c 0,6,7
 138 -144 138 -144 138 -133.5 c 128,-1,8
 138 -123 138 -123 129 -110 c 0,9,10
 122 -102 122 -102 112 -102 c 256,11,12
 102 -102 102 -102 95 -110 c 0,0,1
-36 -126 m 128,-1,14
 -36 -141 -36 -141 -30 -148 c 128,-1,15
 -24 -155 -24 -155 -16 -155 c 128,-1,16
 -8 -155 -8 -155 0 -147 c 128,-1,17
 8 -139 8 -139 8 -126 c 256,18,19
 8 -113 8 -113 0 -105 c 128,-1,20
 -8 -97 -8 -97 -16 -97 c 128,-1,21
 -24 -97 -24 -97 -30 -104 c 128,-1,13
 -36 -111 -36 -111 -36 -126 c 128,-1,14
106 -64 m 0,22,23
 139 -64 139 -64 148.5 -81 c 0,24,25
 162 -97.7158203125 162 -97.7158203125 162 -126 c 131,-1,26
 162 -154.284179688 162 -154.284179688 143 -177 c 1,27,28
 177 -171 177 -171 177 -152 c 2,29,30
 177 -151 177 -151 178 156 c 1,31,-1
 83 156 l 2,32,33
 71 156 71 156 64 165.5 c 128,-1,34
 57 175 57 175 57 187 c 128,-1,35
 57 199 57 199 64 208.5 c 128,-1,36
 71 218 71 218 83 218 c 2,37,-1
 298 218 l 2,38,39
 310 218 310 218 317 208 c 128,-1,40
 324 198 324 198 324 186.5 c 128,-1,41
 324 175 324 175 317 165.5 c 128,-1,42
 310 156 310 156 298 156 c 2,43,-1
 245 156 l 1,44,-1
 245 -85 l 2,45,46
 245 -152 245 -152 229.5 -173 c 128,-1,47
 214 -194 214 -194 193 -214 c 0,48,49
 179 -227 179 -227 123 -227 c 0,50,51
 -70 -227 -70 -227 -70 -110 c 0,52,53
 -70 -97 -70 -97 -57 -81 c 128,-1,54
 -44 -65 -44 -65 -5 -65 c 0,55,56
 42 -65 42 -65 58 -160 c 1,57,58
 69 -64 69 -64 106 -64 c 0,22,23
EndSplineSet
Substitution2: "Accent marker rearrangement single substitution 62-1" u11301
Substitution2: "Accent marker rearrangement single substitution 21-1" u1CF4
Substitution2: "Accent marker rearrangement single substitution 20-1" u0952
Substitution2: "Accent marker rearrangement single substitution 19-1" u0951
EndChar

StartChar: u11348
Encoding: 70472 70472 159
Width: 1108
Flags: MW
LayerCount: 2
Fore
SplineSet
290 215 m 0,0,1
 330 215 330 215 356 181 c 128,-1,2
 382 147 382 147 382 105.5 c 128,-1,3
 382 64 382 64 356.5 32 c 128,-1,4
 331 0 331 0 281 0 c 0,5,6
 270 0 270 0 234.5 2.5 c 128,-1,7
 199 5 199 5 158 25.5 c 128,-1,8
 117 46 117 46 89 76 c 0,9,10
 33 136 33 136 33 217 c 0,11,12
 33 276 33 276 55.5 331 c 128,-1,13
 78 386 78 386 116 426 c 0,14,15
 197 512 197 512 314 512 c 0,16,17
 356 512 356 512 395 494 c 0,18,19
 470 460 470 460 504 386 c 0,20,21
 522 348 522 348 522 313 c 2,22,-1
 522 24 l 2,23,24
 522 12 522 12 511.5 6 c 128,-1,25
 501 0 501 0 488 0 c 0,26,27
 453 0 453 0 453 24 c 2,28,-1
 453 309 l 2,29,30
 453 372 453 372 418 414 c 0,31,32
 401 434 401 434 372 447 c 0,33,34
 342 460 342 460 304 460 c 0,35,36
 303 460 303 460 302 461 c 0,37,38
 265 460 265 460 228 442 c 0,39,40
 190 424 190 424 162 392 c 0,41,42
 104 323 104 323 104 215 c 0,43,44
 104 124 104 124 176 85 c 1,45,46
 174 98 174 98 174 110 c 0,47,48
 174 144 174 144 193 172 c 0,49,50
 223 214 223 214 290 215 c 0,0,1
1059 309 m 6,51,-1
 1059 29 l 2,52,53
 1059 17 1059 17 1049 8.5 c 128,-1,54
 1039 0 1039 0 1027.5 0 c 128,-1,55
 1016 0 1016 0 1005.5 9 c 128,-1,56
 995 18 995 18 995 33 c 2,57,-1
 995 304 l 2,58,59
 995 360 995 360 961 407.5 c 132,-1,60
 927 455 927 455 868 467 c 16,61,62
 860 469 860 469 852 469 c 0,63,64
 824 469 824 469 790 451 c 0,65,66
 746 428 746 428 718 394 c 0,67,68
 663 325 663 325 663 214 c 0,69,70
 663 173 663 173 682.5 132.5 c 128,-1,71
 702 92 702 92 748 69 c 1,72,73
 741 92 741 92 741 116.5 c 0,74,75
 740 142 740 142 752 162 c 0,76,77
 779 210 779 210 837 210 c 0,78,79
 894 210 894 210 924 158 c 0,80,81
 936 136 936 136 937 108 c 0,82,83
 937 50 937 50 897 18 c 0,84,85
 874 0 874 0 835 0 c 128,-1,86
 796 0 796 0 751.5 15 c 128,-1,87
 707 30 707 30 675 56 c 128,-1,88
 643 82 643 82 617.5 125 c 128,-1,89
 592 168 592 168 592 222 c 128,-1,90
 592 276 592 276 607 331 c 0,91,92
 638 446 638 446 740 492 c 0,93,94
 798 518 798 518 843 518 c 0,95,96
 856 518 856 518 868 516 c 8,97,98
 963 498 963 498 1008 437 c 0,99,100
 1032 406 1032 406 1044 372 c 0,101,102
 1060 338 1060 338 1059 309 c 6,51,-1
862 66 m 0,103,104
 884 78 884 78 884 100 c 0,105,106
 884 124 884 124 871 142 c 128,-1,107
 858 160 858 160 834.5 159.5 c 128,-1,108
 811 159 811 159 798 144 c 128,-1,109
 785 129 785 129 785 103.5 c 0,110,111
 784 78 784 78 798 70 c 0,112,113
 819 60 819 60 837 60 c 0,114,115
 851 59 851 59 862 66 c 0,103,104
228 110 m 0,116,117
 228 61 228 61 279 61 c 0,118,119
 309 61 309 61 320.5 76 c 128,-1,120
 332 91 332 91 332 108 c 128,-1,121
 332 125 332 125 318 139 c 128,-1,122
 304 153 304 153 278.5 153 c 128,-1,123
 253 153 253 153 240.5 139.5 c 128,-1,124
 228 126 228 126 228 110 c 0,116,117
EndSplineSet
Validated: 33
EndChar

StartChar: u1134D
Encoding: 70477 70477 162
Width: 335
Flags: MW
LayerCount: 2
Fore
SplineSet
163 428.5 m 0,0,1
 163 411 163 411 139 411 c 0,2,3
 3 412 3 412 -30 440 c 0,4,5
 -48 456 -48 456 -48 477.5 c 128,-1,6
 -48 499 -48 499 -24 513 c 1,7,8
 -64 523 -64 523 -81.5 540 c 128,-1,9
 -99 557 -99 557 -99 576.5 c 128,-1,10
 -99 596 -99 596 -59 608 c 0,11,12
 -40 614 -40 614 56 613 c 2,13,-1
 286 613 l 2,14,15
 295 613 295 613 302.5 607 c 128,-1,16
 310 601 310 601 310 595 c 132,-1,17
 310 589 310 589 304 581 c 128,-1,18
 298 573 298 573 286 573 c 2,19,-1
 61 573 l 2,20,21
 13 573 13 573 -12.5 568 c 128,-1,22
 -38 563 -38 563 -38 557 c 256,23,24
 -38 551 -38 551 -14 546 c 128,-1,25
 10 541 10 541 36 541 c 0,26,27
 92 541 92 541 94 519 c 0,28,29
 94 504 94 504 68 504 c 2,30,-1
 47 504 l 2,31,32
 27 504 27 504 15 493 c 128,-1,33
 3 482 3 482 10 472 c 128,-1,34
 17 462 17 462 45.5 454 c 128,-1,35
 74 446 74 446 108 446 c 0,36,37
 162 446 162 446 163 428.5 c 0,0,1
EndSplineSet
Validated: 33
Substitution2: "Accent marker rearrangement single substitution 66-1" u11301
Substitution2: "Accent marker rearrangement single substitution 32-1" u0952
Substitution2: "Accent marker rearrangement single substitution 31-1" u0951
Substitution2: "Vowel marker rearrangement single substitution 7-1" uE486
EndChar

StartChar: u11350
Encoding: 70480 70480 163
Width: 705
Flags: MW
LayerCount: 2
Fore
SplineSet
373 -76 m 0,0,1
 373 -62 373 -62 359 -42 c 1,2,3
 318 0 l 1,4,5
 289 -12 289 -12 261 -39 c 0,6,7
 258 -42 258 -42 258 -47 c 0,8,9
 258 -62 258 -62 306 -90 c 0,10,11
 333 -106 333 -106 348 -106 c 0,12,13
 373 -106 373 -106 373 -76 c 0,0,1
133.5 358 m 128,-1,15
 115 358 115 358 99 343.5 c 128,-1,16
 83 329 83 329 83 301 c 128,-1,17
 83 273 83 273 99 260.5 c 128,-1,18
 115 248 115 248 133 248 c 128,-1,19
 151 248 151 248 167 260.5 c 128,-1,20
 183 273 183 273 183 300 c 128,-1,21
 183 327 183 327 167.5 342.5 c 128,-1,14
 152 358 152 358 133.5 358 c 128,-1,15
347 185 m 2,22,23
 319 185 319 185 319 203 c 2,24,-1
 319 215 l 2,25,26
 319 232 319 232 344 232 c 2,27,-1
 395 232 l 17,28,29
 444 274 444 274 466 305.5 c 0,30,31
 488 336 488 336 488 366 c 0,32,33
 488 448 488 448 451 486.5 c 128,-1,34
 414 525 414 525 326 531 c 1,35,36
 305 431 305 431 305 281.5 c 128,-1,37
 305 132 305 132 338 57 c 1,38,-1
 528 57 l 2,39,40
 599 57 599 57 599 78 c 128,-1,41
 599 99 599 99 555 99 c 2,42,-1
 394 99 l 2,43,44
 367 99 367 99 367 125 c 128,-1,45
 367 151 367 151 390 151 c 2,46,-1
 461 151 l 1,47,-1
 461 185 l 1,48,-1
 347 185 l 2,22,23
519 151 m 1,49,-1
 541 151 l 2,50,51
 609 151 609 151 630 117 c 0,52,53
 642 97 642 97 642 76 c 0,54,55
 642 49 642 49 622 21 c 0,56,57
 607 0 607 0 550 0 c 2,58,-1
 370 0 l 1,59,60
 400 -18 400 -18 419 -47 c 0,61,62
 429 -61 429 -61 428.5 -75 c 128,-1,63
 428 -89 428 -89 419 -102 c 0,64,65
 383 -148 383 -148 346 -148 c 0,66,67
 276 -148 276 -148 221 -63 c 0,68,69
 210 -46 210 -46 210 -33 c 0,70,71
 210 -16 210 -16 227 -2 c 2,72,-1
 288 46 l 1,73,74
 247 140 247 140 247 315 c 4,75,76
 247 432 247 432 262 530 c 1,77,78
 142 517 142 517 98 393 c 1,79,80
 115 398 115 398 131 398 c 0,81,82
 160 398 160 398 187 382 c 0,83,84
 229 356 229 356 229 298 c 0,85,86
 229 257 229 257 201 236 c 0,87,88
 174 216 174 216 141 216 c 0,89,90
 111 216 111 216 76 232 c 0,91,92
 38 250 38 250 38 286 c 0,93,94
 38 581 38 581 272 591 c 1,95,96
 292 691 292 691 327 721 c 0,97,98
 342 734 342 734 353 719 c 128,-1,99
 364 704 364 704 364 692 c 128,-1,100
 364 680 364 680 339 589 c 1,101,102
 493 577 493 577 550 484 c 0,103,104
 575 443 575 443 575 368 c 0,105,106
 575 316 575 316 522 266 c 0,107,108
 486 232 486 232 484 231 c 1,109,-1
 632 231 l 2,110,111
 645 231 645 231 653 224 c 128,-1,112
 661 217 661 217 662.5 208 c 128,-1,113
 664 199 664 199 656 192 c 128,-1,114
 648 185 648 185 632 185 c 2,115,-1
 519 185 l 1,116,-1
 519 151 l 1,49,-1
EndSplineSet
Validated: 1
EndChar

StartChar: u0BAA
Encoding: 2986 2986 167
Width: 572
Flags: MW
LayerCount: 2
Fore
SplineSet
502 374 m 2,0,1
 502 399 502 399 468 399 c 128,-1,2
 434 399 434 399 434 374 c 2,3,-1
 434 43 l 1,4,-1
 92 43 l 1,5,-1
 92 376 l 2,6,7
 92 399 92 399 58 399 c 128,-1,8
 24 399 24 399 24 374 c 2,9,-1
 24 22 l 2,10,11
 24 0 24 0 60 0 c 2,12,-1
 502 0 l 25,13,-1
 502 374 l 2,0,1
EndSplineSet
EndChar

StartChar: uE205
Encoding: 57861 57861 170
Width: 228
Flags: MW
LayerCount: 2
Fore
SplineSet
-62.5 -96 m 28,0,1
 -55 -95 -55 -95 -10 -90 c 4,2,3
 55 -83 55 -83 80 -10 c 4,4,5
 88 14 88 14 88 91 c 6,6,-1
 88 150 l 1,7,-1
 42 150 l 2,8,9
 31 150 31 150 25 158 c 128,-1,10
 19 166 19 166 19 176 c 256,11,12
 19 186 19 186 25 194 c 128,-1,13
 31 202 31 202 42 202 c 2,14,-1
 186 202 l 2,15,16
 197 202 197 202 202.5 194 c 128,-1,17
 208 186 208 186 208 176 c 256,18,19
 208 166 208 166 202.5 158 c 128,-1,20
 197 150 197 150 186 150 c 2,21,-1
 145 150 l 1,22,-1
 145 91 l 6,23,24
 145 -59 145 -59 73 -104 c 4,25,26
 52.2554347826 -117.201086957 52.2554347826 -117.201086957 3 -133 c 28,27,28
 0 -134 0 -134 -33 -138 c 28,29,30
 -51.632 -140.192 -51.632 -140.192 -57 -140.5 c 6,31,-1
 -118 -144 l 4,32,33
 -597 -131 -597 -131 -649 -79 c 4,34,35
 -656 -72 -656 -72 -653 -60 c 4,36,37
 -651 -50 -651 -50 -624 -50 c 4,38,39
 -623 -50 -623 -50 -600 -55 c 4,40,41
 -556 -64 -556 -64 -551 -65 c 4,42,43
 -397 -97 -397 -97 -314.5 -97 c 7,44,45
 -301 -97 -301 -97 -118 -99 c 28,46,47
 -98 -99 -98 -99 -62.5 -96 c 28,0,1
EndSplineSet
Ligature2: "Ligature Substitution post repha rakara ya subtable" u1134D u11330
Substitution2: "Single Substitution lookup 1-1" uE203
Substitution2: "Single Substitution lookup 2-1" uE204
Substitution2: "Vowel marker rearrangement single substitution 2-1" u1133F
Substitution2: "Vowel marker rearrangement single substitution 5-1" u11340
Substitution2: "Accent marker rearrangement single substitution 52-1" u0951
Substitution2: "Accent marker rearrangement single substitution 53-1" u0952
Substitution2: "Accent marker rearrangement single substitution 54-1" u1CF4
Substitution2: "Accent marker rearrangement single substitution 69-1" u11301
Substitution2: "Single Substitution lookup 8-1" uE202
LCarets2: 1 0
EndChar

StartChar: uE206
Encoding: 57862 57862 171
Width: 192
Flags: MW
LayerCount: 2
Fore
SplineSet
-34 18 m 0,0,1
 -34 0 -34 0 -52 0 c 0,2,3
 -67 0 -67 0 -94 12 c 0,4,5
 -110 19 -110 19 -123.5 51.5 c 128,-1,6
 -137 84 -137 84 -138 90 c 0,7,8
 -147 131 -147 131 -147 166 c 0,9,10
 -147 194 -147 194 -141 220 c 0,11,12
 -127 276 -127 276 -96.5 311.5 c 0,13,14
 -66 348 -66 348 -26 362 c 0,15,16
 4 373 4 373 30 372 c 0,17,18
 77 372 77 372 111 335 c 0,19,20
 139 305 139 305 139 246.5 c 128,-1,21
 139 188 139 188 100 164 c 256,22,23
 77 150 77 150 52 150 c 0,24,25
 34 150 34 150 15 158 c 0,26,27
 -37 180 -37 180 -55 250 c 25,28,-1
 -60 284 l 1,29,30
 -77 273 -77 273 -91.5 248 c 128,-1,31
 -106 223 -106 223 -111 191 c 0,32,33
 -114 171 -114 171 -114 153 c 0,34,35
 -114 73 -114 73 -52 34 c 8,36,37
 -34 23 -34 23 -34 18 c 0,0,1
100 264 m 0,38,39
 85 318 85 318 25 318 c 0,40,41
 1 318 1 318 -10 304 c 0,42,43
 -13 300 -13 300 -17 283.5 c 128,-1,44
 -21 267 -21 267 -18 253 c 0,45,46
 -11 217 -11 217 9.5 203.5 c 128,-1,47
 30 190 30 190 52.5 190 c 128,-1,48
 75 190 75 190 89 206 c 128,-1,49
 103 222 103 222 103 237.5 c 128,-1,50
 103 253 103 253 100 264 c 0,38,39
EndSplineSet
EndChar

StartChar: uE207
Encoding: 57863 57863 172
Width: 240
Flags: MW
LayerCount: 2
Fore
SplineSet
153 0 m 260,0,1
 121 0 121 0 121 6 c 6,2,3
 121 332 l 6,4,5
 121 359 121 359 106.5 402.5 c 132,-1,6
 92 446 92 446 65 473 c 132,-1,7
 38 500 38 500 -14 507 c 4,8,9
 -26 509 -26 509 -37 509 c 4,10,11
 -75 509 -75 509 -109 491 c 4,12,13
 -153 467 -153 467 -168 422 c 4,14,15
 -172 410 -172 410 -172 344 c 4,16,17
 -172 238 -172 238 -12 32 c 5,18,-1
 -82 32 l 5,19,20
 -168 128 -168 128 -224 268 c 4,21,22
 -244 317 -244 317 -244 367 c 4,23,24
 -244 395 -244 395 -237 425 c 4,25,26
 -219 505 -219 505 -164 535.5 c 132,-1,27
 -109 566 -109 566 -75 567 c 5,28,29
 6 567 6 567 18 564 c 4,30,31
 84 550 84 550 120.5 514 c 132,-1,32
 157 478 157 478 171 434 c 132,-1,33
 185 390 185 390 185 325 c 6,34,-1
 185 17 l 6,35,36
 185 0 185 0 153 0 c 260,0,1
EndSplineSet
EndChar

StartChar: uE208
Encoding: 57864 57864 173
Width: 145
Flags: MW
LayerCount: 2
Fore
SplineSet
-295 467 m 0,0,1
 -295 418 -295 418 -181 418 c 0,2,3
 -169 418 -169 418 -164 410 c 0,4,5
 -155 393 -155 393 -164.5 382 c 128,-1,6
 -174 371 -174 371 -185 371 c 0,7,8
 -264 371 -264 371 -307 399 c 0,9,10
 -330 414 -330 414 -338.5 430 c 128,-1,11
 -347 446 -347 446 -347 476.5 c 128,-1,12
 -347 507 -347 507 -318 534 c 128,-1,13
 -289 561 -289 561 -225 574 c 0,14,15
 -192 581 -192 581 -136 581 c 0,16,17
 -78 581 -78 581 4 542 c 0,18,19
 64 514 64 514 76 490.5 c 128,-1,20
 88 467 88 467 88 391 c 2,21,-1
 88 18 l 6,22,23
 88 0 88 0 56.5 0 c 132,-1,24
 25 0 25 0 25 19 c 6,25,-1
 25 441 l 2,26,27
 25 451 25 451 -33 490 c 24,28,29
 -75 518 -75 518 -155 518 c 0,30,31
 -236 518 -236 518 -277 494 c 256,32,33
 -295 483 -295 483 -295 467 c 0,0,1
EndSplineSet
EndChar

StartChar: uE404
Encoding: 58372 58372 174
Width: 730
Flags: MW
LayerCount: 2
Fore
SplineSet
632 -167 m 0,0,1
 655 -156 655 -156 655 -123 c 0,2,3
 655 -98 655 -98 642 -61 c 0,4,5
 634 -40 634 -40 619 -25 c 1,6,7
 601 -69 601 -69 598 -99 c 0,8,9
 597 -111 597 -111 597 -121 c 0,10,11
 597 -158 597 -158 614 -167 c 0,12,13
 623 -171 623 -171 632 -167 c 0,0,1
304 0 m 1024,14,-1
683 186 m 2,15,-1
 636 32 l 1,16,17
 642 22 642 22 653 9 c 128,-1,18
 664 -4 664 -4 674 -20 c 0,19,20
 696 -58 696 -58 696 -101 c 128,-1,21
 696 -144 696 -144 685 -170 c 128,-1,22
 674 -196 674 -196 656.5 -204.5 c 128,-1,23
 639 -213 639 -213 620 -213 c 128,-1,24
 601 -213 601 -213 584 -198.5 c 128,-1,25
 567 -184 567 -184 559 -165 c 128,-1,26
 551 -146 551 -146 551 -116.5 c 128,-1,27
 551 -87 551 -87 554.5 -73.5 c 128,-1,28
 558 -60 558 -60 563 -45.5 c 128,-1,29
 568 -31 568 -31 575 -15.5 c 128,-1,30
 582 0 582 0 575 0 c 2,31,-1
 373 0 l 1,32,-1
 373 -68 l 2,33,34
 373 -92 373 -92 338.5 -92 c 128,-1,35
 304 -92 304 -92 304 -68 c 2,36,-1
 304 0 l 1,37,-1
 66 0 l 2,38,39
 53 0 53 0 42 7.5 c 128,-1,40
 31 15 31 15 31 28 c 2,41,-1
 31 381 l 2,42,43
 31 390 31 390 41.5 397 c 128,-1,44
 52 404 52 404 65.5 404 c 128,-1,45
 79 404 79 404 89 397.5 c 128,-1,46
 99 391 99 391 99 381 c 2,47,-1
 99 51 l 1,48,-1
 582 51 l 2,49,50
 597 51 597 51 598 55 c 2,51,-1
 642 199 l 2,52,53
 654 239 654 239 654 274 c 0,54,55
 654 318 654 318 635 356 c 2,56,-1
 614 397 l 2,57,58
 607 407 607 407 588 408.5 c 128,-1,59
 569 410 569 410 569 424 c 128,-1,60
 569 438 569 438 578 443 c 0,61,62
 594 451 594 451 608 451 c 30,63,-1
 636 444 l 2,64,65
 650 440 650 440 673 377 c 0,66,67
 695 318 695 318 695 263 c 0,68,69
 695 224 695 224 683 186 c 2,15,-1
EndSplineSet
Validated: 1
LCarets2: 1 0
Ligature2: "'haln' Halant Forms subtable" u1131F u1134D
EndChar

StartChar: u11300
Encoding: 70400 70400 175
Width: 370
Flags: MW
LayerCount: 2
Fore
SplineSet
302 521 m 0,0,1
 302 469 302 469 245 448 c 0,2,3
 220 440 220 440 189 440 c 128,-1,4
 158 440 158 440 131 450.5 c 128,-1,5
 104 461 104 461 94.5 475.5 c 128,-1,6
 85 490 85 490 85 518 c 24,7,8
 85 575 85 575 150 593 c 0,9,10
 164 597 164 597 190 597 c 0,11,12
 236 597 236 597 263 581 c 128,-1,13
 290 565 290 565 296 551 c 128,-1,14
 302 537 302 537 302 521 c 0,0,1
230 552 m 0,15,16
 214 564 214 564 192.5 564 c 128,-1,17
 171 564 171 564 150 550.5 c 128,-1,18
 129 537 129 537 129 518.5 c 128,-1,19
 129 500 129 500 148.5 486 c 128,-1,20
 168 472 168 472 190 472 c 256,21,22
 212 472 212 472 231 486.5 c 128,-1,23
 250 501 250 501 250 520 c 128,-1,24
 250 539 250 539 230 552 c 0,15,16
EndSplineSet
EndChar

